M48
; DRILL file {KiCad (5.1.6)-1} date 06/23/20 22:53:23
; FORMAT={-:-/ absolute / inch / decimal}
; #@! TF.CreationDate,2020-06-23T22:53:23-07:00
; #@! TF.GenerationSoftware,Kicad,Pcbnew,(5.1.6)-1
; #@! TF.FileFunction,Plated,1,2,PTH
FMAT,2
INCH
T1C0.0157
T2C0.0236
T3C0.0276
T4C0.0315
T5C0.0354
T6C0.0400
T7C0.0433
T8C0.0591
T9C0.0866
T10C0.1693
%
G90
G05
T1
X2.0689Y-6.3035
X2.075Y-6.35
X2.075Y-6.407
X2.2Y-6.4
X2.208Y-6.473
X2.275Y-6.3715
X3.28Y-6.831
X5.275Y-7.075
X5.3Y-6.2535
X5.6Y-6.8
X5.953Y-6.383
X5.953Y-6.462
X6.4Y-8.3
X6.536Y-6.383
X6.536Y-6.462
X7.225Y-6.3
X8.5Y-6.275
X9.6Y-8.25
X9.7Y-6.2535
X9.725Y-7.05
X9.85Y-6.9
X9.975Y-6.925
X10.01Y-7.05
X10.275Y-6.325
X10.45Y-7.75
X11.925Y-6.285
X11.95Y-6.34
X12.0Y-6.34
X12.25Y-6.75
X12.2993Y-6.7757
X12.3257Y-6.8525
X12.375Y-6.85
X12.4Y-6.925
X12.6285Y-7.35
X12.775Y-6.375
X13.0Y-7.2
X13.08Y-6.21
X13.18Y-6.21
X13.28Y-6.21
X13.38Y-6.21
X13.47Y-6.21
X13.55Y-5.925
X13.57Y-6.21
X13.63Y-6.85
X13.67Y-6.21
X13.73Y-6.85
X13.95Y-6.85
X14.075Y-6.235
X14.2Y-6.525
X14.3Y-6.525
X14.39Y-6.54
X14.45Y-6.46
X14.85Y-6.75
X15.85Y-5.975
X15.85Y-6.05
X15.85Y-6.125
X11.8202Y-6.1665
X11.8204Y-6.2187
X11.8536Y-6.1665
X11.8538Y-6.2187
X11.8871Y-6.1665
X11.8873Y-6.2187
X11.9206Y-6.1665
X11.9208Y-6.2187
X11.954Y-6.1665
X11.9542Y-6.2187
X11.9875Y-6.1665
X11.9877Y-6.2187
X12.021Y-6.1665
X12.0212Y-6.2187
X12.0546Y-6.1665
X12.0546Y-6.2187
T2
X12.4062Y-6.2812
X12.4062Y-6.3403
T3
X12.575Y-6.375
X12.875Y-6.375
X11.65Y-5.9596
X11.65Y-6.1604
X12.575Y-6.0938
X12.875Y-6.0938
X12.575Y-6.5625
X12.875Y-6.5625
X12.575Y-6.1875
X12.875Y-6.1875
X12.575Y-6.4688
X12.875Y-6.4688
X12.575Y-6.2812
X12.875Y-6.2812
X12.575Y-6.6562
X12.875Y-6.6562
T4
X6.9Y-6.425
X6.9Y-6.625
X8.4Y-6.575
X8.4Y-6.775
X4.275Y-6.35
X4.275Y-6.55
X2.65Y-6.5
X2.65Y-6.7
X7.15Y-6.575
X7.15Y-6.775
X6.4Y-6.5
X6.4Y-6.7
X13.425Y-7.05
X13.425Y-7.25
X10.65Y-6.425
X10.65Y-6.625
X11.15Y-6.35
X11.15Y-6.55
X10.775Y-6.5
X10.775Y-6.7
X4.025Y-6.575
X4.025Y-6.775
X11.4Y-6.5
X11.4Y-6.7
X8.9Y-6.5
X8.9Y-6.7
X14.695Y-6.7361
X14.695Y-6.8345
X4.65Y-6.575
X4.65Y-6.775
X7.275Y-6.65
X7.275Y-6.85
X2.27Y-6.65
X2.27Y-6.85
X4.9Y-6.35
X4.9Y-6.55
X6.275Y-6.425
X6.275Y-6.625
X9.025Y-6.575
X9.025Y-6.775
X10.4Y-6.65
X10.4Y-6.85
X8.15Y-6.425
X8.15Y-6.625
X6.525Y-6.575
X6.525Y-6.775
X1.275Y-6.425
X1.275Y-6.625
X3.775Y-6.425
X3.775Y-6.625
X11.275Y-6.425
X11.275Y-6.625
X5.9Y-6.575
X5.9Y-6.775
X10.9Y-6.575
X10.9Y-6.775
X13.8125Y-5.9319
X14.0094Y-5.9319
X13.55Y-7.05
X13.55Y-7.25
X12.8Y-7.05
X12.8Y-7.25
X8.275Y-6.5
X8.275Y-6.7
X3.025Y-6.35
X3.025Y-6.55
X13.05Y-7.05
X13.05Y-7.25
X13.175Y-7.05
X13.175Y-7.25
X10.525Y-6.35
X10.525Y-6.55
X8.525Y-6.65
X8.525Y-6.85
X3.275Y-6.5
X3.275Y-6.7
X1.775Y-6.35
X1.775Y-6.55
X11.525Y-6.575
X11.525Y-6.775
X7.9Y-6.65
X7.9Y-6.85
X13.0725Y-6.0312
X13.0725Y-6.6312
X13.1725Y-6.0312
X13.1725Y-6.6312
X13.2725Y-6.0312
X13.2725Y-6.6312
X13.3725Y-6.0312
X13.3725Y-6.6312
X13.4725Y-6.0312
X13.4725Y-6.6312
X13.5725Y-6.0312
X13.5725Y-6.6312
X13.6725Y-6.0312
X13.6725Y-6.6312
X13.7725Y-6.0312
X13.7725Y-6.6312
X13.8725Y-6.0312
X13.8725Y-6.6312
X13.9725Y-6.0312
X13.9725Y-6.6312
X14.0725Y-6.0312
X14.0725Y-6.6312
X14.1725Y-6.0312
X14.1725Y-6.6312
X14.2725Y-6.0312
X14.2725Y-6.6312
X14.3725Y-6.0312
X14.3725Y-6.6312
X14.4725Y-6.0312
X14.4725Y-6.6312
X14.5725Y-6.0312
X14.5725Y-6.6312
X14.6725Y-6.0312
X14.6725Y-6.6312
X14.7725Y-6.0312
X14.7725Y-6.6312
X14.8725Y-6.0312
X14.8725Y-6.6312
X14.9725Y-6.0312
X14.9725Y-6.6312
X13.925Y-7.05
X13.925Y-7.25
X11.025Y-6.65
X11.025Y-6.85
X2.775Y-6.575
X2.775Y-6.775
X5.65Y-6.425
X5.65Y-6.625
X2.02Y-6.5
X2.02Y-6.7
X3.65Y-6.35
X3.65Y-6.55
X7.525Y-6.425
X7.525Y-6.625
X2.9Y-6.65
X2.9Y-6.85
X3.9Y-6.5
X3.9Y-6.7
X1.9Y-6.425
X1.9Y-6.625
X5.025Y-6.425
X5.025Y-6.625
X8.775Y-6.425
X8.775Y-6.625
X14.3129Y-6.805
X14.505Y-6.805
X5.775Y-6.5
X5.775Y-6.7
X1.15Y-6.35
X1.15Y-6.55
X13.8Y-7.05
X13.8Y-7.25
X12.359Y-6.5294
X12.359Y-6.7294
X13.835Y-6.742
X14.0319Y-6.742
X14.12Y-6.7366
X14.12Y-6.835
X6.15Y-6.35
X6.15Y-6.55
X12.15Y-6.575
X12.15Y-6.775
X10.025Y-6.425
X10.025Y-6.625
X4.15Y-6.65
X4.15Y-6.85
X9.65Y-6.575
X9.65Y-6.775
X8.65Y-6.35
X8.65Y-6.55
X8.025Y-6.35
X8.025Y-6.55
X2.52Y-6.425
X2.52Y-6.625
X12.025Y-6.5
X12.025Y-6.7
X4.4Y-6.425
X4.4Y-6.625
X7.4Y-6.35
X7.4Y-6.55
X5.4Y-6.65
X5.4Y-6.85
X12.46Y-6.5294
X12.46Y-6.7294
X9.4Y-6.425
X9.4Y-6.625
X7.65Y-6.5
X7.65Y-6.7
X10.15Y-6.5
X10.15Y-6.7
X9.525Y-6.5
X9.525Y-6.7
X5.525Y-6.35
X5.525Y-6.55
X13.3Y-7.05
X13.3Y-7.25
X7.025Y-6.5
X7.025Y-6.7
X9.775Y-6.65
X9.775Y-6.85
X1.65Y-6.65
X1.65Y-6.85
X10.275Y-6.575
X10.275Y-6.775
X7.775Y-6.575
X7.775Y-6.775
X2.145Y-6.575
X2.145Y-6.775
X13.675Y-7.05
X13.675Y-7.25
X11.775Y-6.35
X11.775Y-6.55
X6.65Y-6.65
X6.65Y-6.85
X3.15Y-6.375
X3.15Y-6.575
X1.525Y-6.575
X1.525Y-6.775
X1.4Y-6.5
X1.4Y-6.7
X6.775Y-6.35
X6.775Y-6.55
X3.525Y-6.65
X3.525Y-6.85
X9.15Y-6.65
X9.15Y-6.85
X5.275Y-6.575
X5.275Y-6.775
X5.15Y-6.5
X5.15Y-6.7
X4.525Y-6.5
X4.525Y-6.7
X12.925Y-7.05
X12.925Y-7.25
X9.275Y-6.35
X9.275Y-6.55
X11.65Y-6.65
X11.65Y-6.85
X6.025Y-6.65
X6.025Y-6.85
X9.9Y-6.35
X9.9Y-6.55
X11.9Y-6.425
X11.9Y-6.625
X3.4Y-6.575
X3.4Y-6.775
X2.39Y-6.35
X2.39Y-6.55
X4.775Y-6.65
X4.775Y-6.85
T5
X12.4062Y-5.9937
X12.4062Y-6.0938
T6
X15.6062Y-6.4625
X15.6062Y-6.5625
X15.6062Y-6.6625
X15.7062Y-6.4625
X15.7062Y-6.5625
X15.7062Y-6.6625
T7
X15.1978Y-6.6666
X15.1978Y-6.9225
X15.375Y-6.6666
X15.375Y-6.9225
X15.1978Y-6.1875
X15.1978Y-6.4434
X15.375Y-6.1875
X15.375Y-6.4434
T8
X8.375Y-7.6
X8.625Y-7.5
X13.8125Y-11.0687
X14.0625Y-10.9688
X4.0625Y-8.8187
X4.3125Y-8.7188
X2.1875Y-9.5687
X2.4375Y-9.4688
X13.8125Y-7.6
X14.0625Y-7.5
X11.9375Y-12.1937
X12.1875Y-12.0938
X3.8813Y-10.3187
X4.1312Y-10.2188
X1.3438Y-10.3187
X1.5938Y-10.2188
X5.1875Y-9.5687
X5.4375Y-9.4688
X7.8125Y-8.8187
X8.0625Y-8.7188
X4.25Y-11.0687
X4.5Y-10.9688
X4.6312Y-10.3187
X4.8812Y-10.2188
X13.0625Y-10.3187
X13.3125Y-10.2188
X2.0Y-7.6
X2.25Y-7.5
X6.6875Y-7.6
X6.9375Y-7.5
X14.5625Y-11.8187
X14.8125Y-11.7188
X1.8125Y-8.8187
X2.0625Y-8.7188
X7.4375Y-9.5687
X7.6875Y-9.4688
X5.9375Y-7.6
X6.1875Y-7.5
X11.9375Y-11.4437
X12.1875Y-11.3438
X3.125Y-10.3187
X3.375Y-10.2188
X1.25Y-9.5687
X1.5Y-9.4688
X14.5625Y-9.5687
X14.8125Y-9.4688
X3.5Y-7.6
X3.75Y-7.5
X13.0625Y-8.8187
X13.3125Y-8.7188
X9.125Y-10.3187
X9.375Y-10.2188
X2.75Y-11.0687
X3.0Y-10.9688
X9.3139Y-11.8312
X9.5639Y-11.7312
X8.0Y-11.0687
X8.25Y-10.9688
X14.5625Y-7.6
X14.8125Y-7.5
X7.4375Y-7.6
X7.6875Y-7.5
X10.0641Y-11.8309
X10.3141Y-11.7309
X8.75Y-11.0687
X9.0Y-10.9688
X5.5625Y-8.8187
X5.8125Y-8.7188
X5.9375Y-9.5687
X6.1875Y-9.4688
X13.8125Y-11.8187
X14.0625Y-11.7188
X15.3125Y-8.8187
X15.5625Y-8.7188
X4.4375Y-9.5687
X4.6875Y-9.4688
X14.5625Y-8.8187
X14.8125Y-8.7188
X13.8125Y-10.3187
X14.0625Y-10.2188
X6.125Y-10.3187
X6.375Y-10.2188
X11.1875Y-8.8187
X11.4375Y-8.7188
X11.1875Y-12.1937
X11.4375Y-12.0938
X3.3125Y-8.8187
X3.5625Y-8.7188
X9.875Y-7.6
X10.125Y-7.5
X13.0625Y-11.0687
X13.3125Y-10.9688
X2.5625Y-8.8187
X2.8125Y-8.7188
X9.6875Y-9.5687
X9.9375Y-9.4688
X1.25Y-11.8309
X1.5Y-11.7309
X2.9375Y-9.5687
X3.1875Y-9.4688
X13.8125Y-9.5687
X14.0625Y-9.4688
X1.1562Y-10.3187
X1.4062Y-10.2188
X13.8125Y-8.8187
X14.0625Y-8.7188
X14.5625Y-10.3187
X14.8125Y-10.2188
X5.3812Y-10.3187
X5.6312Y-10.2188
X3.6875Y-9.5687
X3.9375Y-9.4688
X9.125Y-7.6
X9.375Y-7.5
X9.5Y-11.0687
X9.75Y-10.9688
X4.8125Y-8.8187
X5.0625Y-8.7188
X13.0625Y-7.6
X13.3125Y-7.5
X14.5625Y-11.0687
X14.8125Y-10.9688
X6.6875Y-9.5687
X6.9375Y-9.4688
X10.5312Y-11.0687
X10.7812Y-10.9688
X12.6875Y-12.1937
X12.9375Y-12.0938
X8.1875Y-9.5687
X8.4375Y-9.4688
X11.0938Y-10.3187
X11.3438Y-10.2188
X1.0625Y-7.6
X1.3125Y-7.5
X8.375Y-10.3187
X8.625Y-10.2188
X9.3125Y-8.8187
X9.5625Y-8.7188
X3.5Y-11.0687
X3.75Y-10.9688
X6.875Y-10.3187
X7.125Y-10.2188
X2.376Y-11.8311
X2.626Y-11.7311
X15.3125Y-7.6
X15.5625Y-7.5
X11.5625Y-7.6
X11.8125Y-7.5
X5.8438Y-11.8312
X6.0938Y-11.7312
X2.0938Y-11.8312
X2.3438Y-11.7312
X13.0625Y-9.5687
X13.3125Y-9.4688
X1.5312Y-11.0687
X1.7812Y-10.9688
X8.9375Y-9.5687
X9.1875Y-9.4688
X11.3812Y-9.5687
X11.6312Y-9.4688
X2.75Y-7.6
X3.0Y-7.5
X4.25Y-7.6
X4.5Y-7.5
X7.0625Y-8.8187
X7.3125Y-8.7188
X6.5Y-11.0687
X6.75Y-10.9688
X8.5625Y-8.8187
X8.8125Y-8.7188
X5.75Y-11.0687
X6.0Y-10.9688
X5.0Y-11.0687
X5.25Y-10.9688
X8.5637Y-11.8309
X8.8137Y-11.7309
X5.5635Y-11.8316
X5.8135Y-11.7316
X1.0625Y-8.8187
X1.3125Y-8.7188
X10.625Y-7.6
X10.875Y-7.5
X1.1562Y-11.8309
X1.4062Y-11.7309
X3.0312Y-11.8309
X3.2812Y-11.7309
X2.375Y-10.3187
X2.625Y-10.2188
X15.2625Y-9.9375
X15.3625Y-10.1875
X10.4375Y-9.5687
X10.6875Y-9.4688
X15.2625Y-11.4437
X15.3625Y-11.6937
X5.1875Y-7.6
X5.4375Y-7.5
X6.3125Y-8.8187
X6.5625Y-8.7188
X9.875Y-10.3187
X10.125Y-10.2188
X10.0625Y-8.8187
X10.3125Y-8.7188
X7.25Y-11.0687
X7.5Y-10.9688
X7.625Y-10.3187
X7.875Y-10.2188
T9
X15.2Y-8.15
X1.0Y-6.0687
X15.6813Y-7.1063
X11.2Y-11.15
X1.0Y-7.1063
X2.45Y-11.15
X10.025Y-6.0687
X11.55Y-8.15
X2.8Y-8.15
X13.45Y-11.9
X6.8374Y-11.7732
X5.025Y-6.0796
X8.3Y-8.15
X15.6813Y-6.0687
T10
X14.4914Y-8.271
X2.0414Y-8.271
T2
G00X11.7672Y-6.0628
M15
G01X11.7672Y-6.0313
M16
G05
G00X11.7672Y-6.2096
M15
G01X11.7672Y-6.1506
M16
G05
G00X12.1078Y-6.0628
M15
G01X12.1078Y-6.0313
M16
G05
G00X12.1078Y-6.2096
M15
G01X12.1078Y-6.1506
M16
G05
T0
M30
