M48
; DRILL file {KiCad (5.1.6)-1} date 06/23/20 22:53:23
; FORMAT={-:-/ absolute / inch / decimal}
; #@! TF.CreationDate,2020-06-23T22:53:23-07:00
; #@! TF.GenerationSoftware,Kicad,Pcbnew,(5.1.6)-1
; #@! TF.FileFunction,NonPlated,1,2,NPTH
FMAT,2
INCH
T1C0.0669
T2C0.1200
T3C0.1201
T4C0.1570
T5C0.1575
%
G90
G05
T1
X11.5125Y-7.7
X11.9125Y-7.7
X5.7938Y-11.9313
X6.1938Y-11.9313
X2.0438Y-11.9313
X2.4438Y-11.9313
X13.0125Y-9.6687
X13.4125Y-9.6687
X1.4812Y-11.1687
X1.8812Y-11.1687
X8.8875Y-9.6687
X9.2875Y-9.6687
X11.3312Y-9.6687
X11.7312Y-9.6687
X2.7Y-7.7
X3.1Y-7.7
X4.2Y-7.7
X4.6Y-7.7
X7.0125Y-8.9187
X7.4125Y-8.9187
X6.45Y-11.1687
X6.85Y-11.1687
X8.5125Y-8.9187
X8.9125Y-8.9187
X5.7Y-11.1687
X6.1Y-11.1687
X4.95Y-11.1687
X5.35Y-11.1687
X8.5137Y-11.9309
X8.9137Y-11.9309
X5.5135Y-11.9316
X5.9135Y-11.9316
X1.0125Y-8.9187
X1.4125Y-8.9187
X10.575Y-7.7
X10.975Y-7.7
X1.1062Y-11.9309
X1.5062Y-11.9309
X2.9812Y-11.9309
X3.3812Y-11.9309
X2.325Y-10.4187
X2.725Y-10.4187
X15.4625Y-9.8375
X15.4625Y-10.2375
X10.3875Y-9.6687
X10.7875Y-9.6687
X15.4625Y-11.3438
X15.4625Y-11.7438
X5.1375Y-7.7
X5.5375Y-7.7
X6.2625Y-8.9187
X6.6625Y-8.9187
X9.825Y-10.4187
X10.225Y-10.4187
X10.0125Y-8.9187
X10.4125Y-8.9187
X7.2Y-11.1687
X7.6Y-11.1687
X7.575Y-10.4187
X7.975Y-10.4187
X8.325Y-7.7
X8.725Y-7.7
X13.7625Y-11.1687
X14.1625Y-11.1687
X4.0125Y-8.9187
X4.4125Y-8.9187
X2.1375Y-9.6687
X2.5375Y-9.6687
X13.7625Y-7.7
X14.1625Y-7.7
X11.8875Y-12.2937
X12.2875Y-12.2937
X3.8312Y-10.4187
X4.2313Y-10.4187
X1.2937Y-10.4187
X1.6937Y-10.4187
X5.1375Y-9.6687
X5.5375Y-9.6687
X7.7625Y-8.9187
X8.1625Y-8.9187
X4.2Y-11.1687
X4.6Y-11.1687
X4.5812Y-10.4187
X4.9813Y-10.4187
X13.0125Y-10.4187
X13.4125Y-10.4187
X1.95Y-7.7
X2.35Y-7.7
X6.6375Y-7.7
X7.0375Y-7.7
X14.5125Y-11.9187
X14.9125Y-11.9187
X1.7625Y-8.9187
X2.1625Y-8.9187
X7.3875Y-9.6687
X7.7875Y-9.6687
X5.8875Y-7.7
X6.2875Y-7.7
X11.8875Y-11.5437
X12.2875Y-11.5437
X3.075Y-10.4187
X3.475Y-10.4187
X1.2Y-9.6687
X1.6Y-9.6687
X14.5125Y-9.6687
X14.9125Y-9.6687
X3.45Y-7.7
X3.85Y-7.7
X13.0125Y-8.9187
X13.4125Y-8.9187
X9.075Y-10.4187
X9.475Y-10.4187
X2.7Y-11.1687
X3.1Y-11.1687
X9.2639Y-11.9313
X9.6639Y-11.9313
X7.95Y-11.1687
X8.35Y-11.1687
X14.5125Y-7.7
X14.9125Y-7.7
X7.3875Y-7.7
X7.7875Y-7.7
X10.0141Y-11.9309
X10.4141Y-11.9309
X8.7Y-11.1687
X9.1Y-11.1687
X5.5125Y-8.9187
X5.9125Y-8.9187
X5.8875Y-9.6687
X6.2875Y-9.6687
X13.7625Y-11.9187
X14.1625Y-11.9187
X15.2625Y-8.9187
X15.6625Y-8.9187
X4.3875Y-9.6687
X4.7875Y-9.6687
X14.5125Y-8.9187
X14.9125Y-8.9187
X13.7625Y-10.4187
X14.1625Y-10.4187
X6.075Y-10.4187
X6.475Y-10.4187
X11.1375Y-8.9187
X11.5375Y-8.9187
X11.1375Y-12.2937
X11.5375Y-12.2937
X3.2625Y-8.9187
X3.6625Y-8.9187
X9.825Y-7.7
X10.225Y-7.7
X13.0125Y-11.1687
X13.4125Y-11.1687
X2.5125Y-8.9187
X2.9125Y-8.9187
X9.6375Y-9.6687
X10.0375Y-9.6687
X1.2Y-11.9309
X1.6Y-11.9309
X2.8875Y-9.6687
X3.2875Y-9.6687
X13.7625Y-9.6687
X14.1625Y-9.6687
X1.1062Y-10.4187
X1.5062Y-10.4187
X13.7625Y-8.9187
X14.1625Y-8.9187
X14.5125Y-10.4187
X14.9125Y-10.4187
X5.3312Y-10.4187
X5.7313Y-10.4187
X3.6375Y-9.6687
X4.0375Y-9.6687
X9.075Y-7.7
X9.475Y-7.7
X9.45Y-11.1687
X9.85Y-11.1687
X4.7625Y-8.9187
X5.1625Y-8.9187
X13.0125Y-7.7
X13.4125Y-7.7
X14.5125Y-11.1687
X14.9125Y-11.1687
X6.6375Y-9.6687
X7.0375Y-9.6687
X10.4812Y-11.1687
X10.8812Y-11.1687
X12.6375Y-12.2937
X13.0375Y-12.2937
X8.1375Y-9.6687
X8.5375Y-9.6687
X11.0437Y-10.4187
X11.4437Y-10.4187
X1.0125Y-7.7
X1.4125Y-7.7
X8.325Y-10.4187
X8.725Y-10.4187
X9.2625Y-8.9187
X9.6625Y-8.9187
X3.45Y-11.1687
X3.85Y-11.1687
X6.825Y-10.4187
X7.225Y-10.4187
X2.326Y-11.9311
X2.726Y-11.9311
X15.2625Y-7.7
X15.6625Y-7.7
T2
X4.0263Y-12.2066
X7.9633Y-12.2066
X3.4635Y-12.2066
X7.9635Y-12.2066
T3
X10.869Y-8.6432
X11.806Y-8.6432
X10.7752Y-10.1432
X11.7123Y-10.1432
X1.2127Y-10.8932
X2.1498Y-10.8932
X15.1869Y-9.569
X15.1869Y-10.506
X15.1869Y-11.0752
X15.1869Y-12.0123
T4
X4.0263Y-11.6066
X7.9633Y-11.6066
X3.4635Y-11.6066
X7.9635Y-11.6066
T5
X7.5875Y-7.7
X10.2141Y-11.9309
X8.9Y-11.1687
X5.7125Y-8.9187
X6.0875Y-9.6687
X13.9625Y-11.9187
X15.4625Y-8.9187
X4.5875Y-9.6687
X14.7125Y-8.9187
X13.9625Y-10.4187
X6.275Y-10.4187
X10.869Y-9.2432
X11.3375Y-8.9187
X11.806Y-9.2432
X11.3375Y-12.2937
X3.4625Y-8.9187
X10.025Y-7.7
X13.2125Y-11.1687
X2.7125Y-8.9187
X9.8375Y-9.6687
X1.4Y-11.9309
X3.0875Y-9.6687
X13.9625Y-9.6687
X1.3062Y-10.4187
X13.9625Y-8.9187
X14.7125Y-10.4187
X5.5312Y-10.4187
X3.8375Y-9.6687
X9.275Y-7.7
X9.65Y-11.1687
X4.9625Y-8.9187
X13.2125Y-7.7
X14.7125Y-11.1687
X6.8375Y-9.6687
X10.6813Y-11.1687
X12.8375Y-12.2937
X8.3375Y-9.6687
X10.7752Y-10.7432
X11.2438Y-10.4187
X11.7123Y-10.7432
X1.2125Y-7.7
X8.525Y-10.4187
X9.4625Y-8.9187
X3.65Y-11.1687
X7.025Y-10.4187
X2.526Y-11.9311
X15.4625Y-7.7
X11.7125Y-7.7
X5.9938Y-11.9313
X2.2438Y-11.9313
X13.2125Y-9.6687
X1.2127Y-11.4932
X1.6812Y-11.1687
X2.1498Y-11.4932
X9.0875Y-9.6687
X11.5312Y-9.6687
X2.9Y-7.7
X4.4Y-7.7
X7.2125Y-8.9187
X6.65Y-11.1687
X8.7125Y-8.9187
X5.9Y-11.1687
X5.15Y-11.1687
X8.7137Y-11.9309
X5.7135Y-11.9316
X1.2125Y-8.9187
X10.775Y-7.7
X1.3062Y-11.9309
X3.1812Y-11.9309
X2.525Y-10.4187
X15.4625Y-10.0375
X15.7869Y-9.569
X15.7869Y-10.506
X10.5875Y-9.6687
X15.4625Y-11.5437
X15.7869Y-11.0752
X15.7869Y-12.0123
X5.3375Y-7.7
X6.4625Y-8.9187
X10.025Y-10.4187
X10.2125Y-8.9187
X7.4Y-11.1687
X7.775Y-10.4187
X8.525Y-7.7
X13.9625Y-11.1687
X4.2125Y-8.9187
X2.3375Y-9.6687
X13.9625Y-7.7
X12.0875Y-12.2937
X4.0312Y-10.4187
X1.4937Y-10.4187
X5.3375Y-9.6687
X7.9625Y-8.9187
X4.4Y-11.1687
X4.7812Y-10.4187
X13.2125Y-10.4187
X2.15Y-7.7
X6.8375Y-7.7
X14.7125Y-11.9187
X1.9625Y-8.9187
X7.5875Y-9.6687
X6.0875Y-7.7
X12.0875Y-11.5437
X3.275Y-10.4187
X1.4Y-9.6687
X14.7125Y-9.6687
X3.65Y-7.7
X13.2125Y-8.9187
X9.275Y-10.4187
X2.9Y-11.1687
X9.4639Y-11.9313
X8.15Y-11.1687
X14.7125Y-7.7
T0
M30
