%TF.GenerationSoftware,KiCad,Pcbnew,(5.1.6)-1*%
%TF.CreationDate,2020-06-23T22:59:26-07:00*%
%TF.ProjectId,factorium-bottom,66616374-6f72-4697-956d-2d626f74746f,rev?*%
%TF.SameCoordinates,Original*%
%TF.FileFunction,Soldermask,Bot*%
%TF.FilePolarity,Negative*%
%FSLAX46Y46*%
G04 Gerber Fmt 4.6, Leading zero omitted, Abs format (unit mm)*
G04 Created by KiCad (PCBNEW (5.1.6)-1) date 2020-06-23 22:59:26*
%MOMM*%
%LPD*%
G01*
G04 APERTURE LIST*
%ADD10C,0.300000*%
%ADD11C,0.010000*%
%ADD12C,4.500000*%
%ADD13C,8.700000*%
G04 APERTURE END LIST*
D10*
X213188571Y-216348571D02*
X213188571Y-217420000D01*
X213260000Y-217634285D01*
X213402857Y-217777142D01*
X213617142Y-217848571D01*
X213760000Y-217848571D01*
X212545714Y-217420000D02*
X211831428Y-217420000D01*
X212688571Y-217848571D02*
X212188571Y-216348571D01*
X211688571Y-217848571D01*
X210902857Y-217134285D02*
X210902857Y-217848571D01*
X211402857Y-216348571D02*
X210902857Y-217134285D01*
X210402857Y-216348571D01*
X210045714Y-216348571D02*
X209688571Y-217848571D01*
X209402857Y-216777142D01*
X209117142Y-217848571D01*
X208760000Y-216348571D01*
X208188571Y-217848571D02*
X208188571Y-216348571D01*
X208188571Y-217062857D02*
X207331428Y-217062857D01*
X207331428Y-217848571D02*
X207331428Y-216348571D01*
X206331428Y-217134285D02*
X206331428Y-217848571D01*
X206831428Y-216348571D02*
X206331428Y-217134285D01*
X205831428Y-216348571D01*
X205045714Y-216348571D02*
X204760000Y-216348571D01*
X204617142Y-216420000D01*
X204474285Y-216562857D01*
X204402857Y-216848571D01*
X204402857Y-217348571D01*
X204474285Y-217634285D01*
X204617142Y-217777142D01*
X204760000Y-217848571D01*
X205045714Y-217848571D01*
X205188571Y-217777142D01*
X205331428Y-217634285D01*
X205402857Y-217348571D01*
X205402857Y-216848571D01*
X205331428Y-216562857D01*
X205188571Y-216420000D01*
X205045714Y-216348571D01*
X203760000Y-217848571D02*
X203760000Y-216348571D01*
X202902857Y-217848571D02*
X203545714Y-216991428D01*
X202902857Y-216348571D02*
X203760000Y-217205714D01*
X202331428Y-217420000D02*
X201617142Y-217420000D01*
X202474285Y-217848571D02*
X201974285Y-216348571D01*
X201474285Y-217848571D01*
X200688571Y-217134285D02*
X200688571Y-217848571D01*
X201188571Y-216348571D02*
X200688571Y-217134285D01*
X200188571Y-216348571D01*
D11*
%TO.C,G\u002A\u002A\u002A*%
G36*
X216120134Y-218490919D02*
G01*
X216689517Y-218488742D01*
X217258900Y-218486566D01*
X217258900Y-218080166D01*
X216120134Y-218075814D01*
X216120134Y-217415533D01*
X216839801Y-217415533D01*
X216839801Y-216983733D01*
X216120134Y-216983733D01*
X216120134Y-216306519D01*
X216689517Y-216304342D01*
X217258900Y-216302166D01*
X217261163Y-216088383D01*
X217263425Y-215874600D01*
X216120134Y-215874600D01*
X216120134Y-215256533D01*
X215679867Y-215256533D01*
X215679867Y-215874600D01*
X214545334Y-215874600D01*
X214545334Y-216306399D01*
X215679867Y-216306399D01*
X215679867Y-216983733D01*
X214968667Y-216983733D01*
X214968667Y-217415533D01*
X215679867Y-217415533D01*
X215679867Y-218075933D01*
X214545334Y-218075933D01*
X214545334Y-218490799D01*
X215679648Y-218490799D01*
X215684100Y-219079233D01*
X215902117Y-219081492D01*
X216120134Y-219083752D01*
X216120134Y-218490919D01*
G37*
X216120134Y-218490919D02*
X216689517Y-218488742D01*
X217258900Y-218486566D01*
X217258900Y-218080166D01*
X216120134Y-218075814D01*
X216120134Y-217415533D01*
X216839801Y-217415533D01*
X216839801Y-216983733D01*
X216120134Y-216983733D01*
X216120134Y-216306519D01*
X216689517Y-216304342D01*
X217258900Y-216302166D01*
X217261163Y-216088383D01*
X217263425Y-215874600D01*
X216120134Y-215874600D01*
X216120134Y-215256533D01*
X215679867Y-215256533D01*
X215679867Y-215874600D01*
X214545334Y-215874600D01*
X214545334Y-216306399D01*
X215679867Y-216306399D01*
X215679867Y-216983733D01*
X214968667Y-216983733D01*
X214968667Y-217415533D01*
X215679867Y-217415533D01*
X215679867Y-218075933D01*
X214545334Y-218075933D01*
X214545334Y-218490799D01*
X215679648Y-218490799D01*
X215684100Y-219079233D01*
X215902117Y-219081492D01*
X216120134Y-219083752D01*
X216120134Y-218490919D01*
%TD*%
D12*
%TO.C,REF\u002A\u002A*%
X154940000Y-152400000D03*
%TD*%
D13*
%TO.C,REF\u002A\u002A*%
X135670600Y-155473400D03*
%TD*%
%TO.C,REF\u002A\u002A*%
X451900600Y-155473400D03*
%TD*%
D12*
%TO.C,REF\u002A\u002A*%
X482123750Y-125888750D03*
%TD*%
%TO.C,REF\u002A\u002A*%
X338455000Y-99536250D03*
%TD*%
%TO.C,REF\u002A\u002A*%
X257489595Y-244428110D03*
%TD*%
%TO.C,REF\u002A\u002A*%
X482123750Y-99536250D03*
%TD*%
%TO.C,REF\u002A\u002A*%
X109220000Y-125888750D03*
%TD*%
%TO.C,REF\u002A\u002A*%
X109220000Y-99536250D03*
%TD*%
%TO.C,REF\u002A\u002A*%
X146050000Y-228600000D03*
%TD*%
%TO.C,REF\u002A\u002A*%
X425450000Y-247650000D03*
%TD*%
%TO.C,REF\u002A\u002A*%
X294640000Y-152400000D03*
%TD*%
%TO.C,REF\u002A\u002A*%
X368300000Y-228600000D03*
%TD*%
%TO.C,REF\u002A\u002A*%
X211455000Y-99811251D03*
%TD*%
%TO.C,REF\u002A\u002A*%
X469900000Y-152400000D03*
%TD*%
%TO.C,H1*%
X377190000Y-152400000D03*
%TD*%
M02*
