%TF.GenerationSoftware,KiCad,Pcbnew,(5.1.6)-1*%
%TF.CreationDate,2020-06-23T22:59:26-07:00*%
%TF.ProjectId,factorium-bottom,66616374-6f72-4697-956d-2d626f74746f,rev?*%
%TF.SameCoordinates,Original*%
%TF.FileFunction,Copper,L2,Bot*%
%TF.FilePolarity,Positive*%
%FSLAX46Y46*%
G04 Gerber Fmt 4.6, Leading zero omitted, Abs format (unit mm)*
G04 Created by KiCad (PCBNEW (5.1.6)-1) date 2020-06-23 22:59:26*
%MOMM*%
%LPD*%
G01*
G04 APERTURE LIST*
%TA.AperFunction,EtchedComponent*%
%ADD10C,0.100000*%
%TD*%
%TA.AperFunction,EtchedComponent*%
%ADD11C,0.010000*%
%TD*%
%TA.AperFunction,EtchedComponent*%
%ADD12C,4.700000*%
%TD*%
%TA.AperFunction,ComponentPad*%
%ADD13C,4.400000*%
%TD*%
%TA.AperFunction,ComponentPad*%
%ADD14C,8.600000*%
%TD*%
%TA.AperFunction,Conductor*%
%ADD15C,0.254000*%
%TD*%
G04 APERTURE END LIST*
D10*
%TO.C,G\u002A\u002A\u002A*%
G36*
X337734618Y-182930000D02*
G01*
X337204618Y-182970000D01*
X336354618Y-183120000D01*
X335554618Y-183290000D01*
X334974618Y-183540000D01*
X333974618Y-184040000D01*
X333194618Y-184900000D01*
X333284618Y-185900000D01*
X334084618Y-186850000D01*
X335459618Y-186795000D01*
X337124618Y-186000000D01*
X339644618Y-185730000D01*
X341584618Y-186250000D01*
X342174618Y-186940000D01*
X342744618Y-188100000D01*
X343104618Y-189230000D01*
X343364618Y-189990000D01*
X343514618Y-190640000D01*
X343614618Y-191230000D01*
X343714618Y-191730000D01*
X343754618Y-192530000D01*
X343744618Y-193050000D01*
X343704618Y-193640000D01*
X343694618Y-194620000D01*
X343554618Y-195810000D01*
X343304618Y-196960000D01*
X342824618Y-198310000D01*
X342314618Y-199180000D01*
X341714618Y-199830000D01*
X340764618Y-200240000D01*
X339044618Y-200390000D01*
X337484618Y-200200000D01*
X336564618Y-199810000D01*
X336034618Y-199540000D01*
X335774618Y-199360000D01*
X335374618Y-199040000D01*
X334934618Y-198880000D01*
X334524618Y-198910000D01*
X334234618Y-199070000D01*
X333924618Y-199440000D01*
X333764618Y-199830000D01*
X333674618Y-200210000D01*
X333784618Y-200880000D01*
X334714618Y-201820000D01*
X336474618Y-202880000D01*
X338164618Y-203190000D01*
X339964618Y-203260000D01*
X341514618Y-202890000D01*
X343804618Y-201670000D01*
X345104618Y-200380000D01*
X345694618Y-199280000D01*
X346104618Y-198270000D01*
X346504618Y-197170000D01*
X346834618Y-195840000D01*
X346964618Y-193870000D01*
X346824618Y-191000000D01*
X346344618Y-188870000D01*
X345204618Y-185980000D01*
X343984618Y-184570000D01*
X342714618Y-183730000D01*
X341574618Y-183300000D01*
X340804618Y-183060000D01*
X339904618Y-182950000D01*
X338724618Y-182890000D01*
X337734618Y-182930000D01*
G37*
X337734618Y-182930000D02*
X337204618Y-182970000D01*
X336354618Y-183120000D01*
X335554618Y-183290000D01*
X334974618Y-183540000D01*
X333974618Y-184040000D01*
X333194618Y-184900000D01*
X333284618Y-185900000D01*
X334084618Y-186850000D01*
X335459618Y-186795000D01*
X337124618Y-186000000D01*
X339644618Y-185730000D01*
X341584618Y-186250000D01*
X342174618Y-186940000D01*
X342744618Y-188100000D01*
X343104618Y-189230000D01*
X343364618Y-189990000D01*
X343514618Y-190640000D01*
X343614618Y-191230000D01*
X343714618Y-191730000D01*
X343754618Y-192530000D01*
X343744618Y-193050000D01*
X343704618Y-193640000D01*
X343694618Y-194620000D01*
X343554618Y-195810000D01*
X343304618Y-196960000D01*
X342824618Y-198310000D01*
X342314618Y-199180000D01*
X341714618Y-199830000D01*
X340764618Y-200240000D01*
X339044618Y-200390000D01*
X337484618Y-200200000D01*
X336564618Y-199810000D01*
X336034618Y-199540000D01*
X335774618Y-199360000D01*
X335374618Y-199040000D01*
X334934618Y-198880000D01*
X334524618Y-198910000D01*
X334234618Y-199070000D01*
X333924618Y-199440000D01*
X333764618Y-199830000D01*
X333674618Y-200210000D01*
X333784618Y-200880000D01*
X334714618Y-201820000D01*
X336474618Y-202880000D01*
X338164618Y-203190000D01*
X339964618Y-203260000D01*
X341514618Y-202890000D01*
X343804618Y-201670000D01*
X345104618Y-200380000D01*
X345694618Y-199280000D01*
X346104618Y-198270000D01*
X346504618Y-197170000D01*
X346834618Y-195840000D01*
X346964618Y-193870000D01*
X346824618Y-191000000D01*
X346344618Y-188870000D01*
X345204618Y-185980000D01*
X343984618Y-184570000D01*
X342714618Y-183730000D01*
X341574618Y-183300000D01*
X340804618Y-183060000D01*
X339904618Y-182950000D01*
X338724618Y-182890000D01*
X337734618Y-182930000D01*
G36*
X399650000Y-183530000D02*
G01*
X384460000Y-183540000D01*
X384180000Y-183640000D01*
X384000000Y-183850000D01*
X383870000Y-184010000D01*
X383810000Y-184140000D01*
X383760000Y-184310000D01*
X383730000Y-184470000D01*
X383740000Y-184780000D01*
X383780000Y-185010000D01*
X383870000Y-185170000D01*
X383970000Y-185340000D01*
X384160000Y-185460000D01*
X384420000Y-185580000D01*
X384670000Y-185600000D01*
X384970000Y-185600000D01*
X385320000Y-185600000D01*
X385940000Y-185590000D01*
X397810000Y-185620000D01*
X398010000Y-185670000D01*
X398150000Y-185750000D01*
X398230000Y-185830000D01*
X398290000Y-185930000D01*
X398360000Y-186120000D01*
X398390000Y-186580000D01*
X398410000Y-187260000D01*
X398390000Y-191480000D01*
X398390000Y-191820000D01*
X398310000Y-192000000D01*
X398180000Y-192170000D01*
X398030000Y-192250000D01*
X394160000Y-192250000D01*
X389580000Y-192230000D01*
X389360000Y-192230000D01*
X389130000Y-192380000D01*
X389000000Y-192540000D01*
X388970000Y-192780000D01*
X388970000Y-193110000D01*
X389005000Y-193330000D01*
X389175000Y-193640000D01*
X389380000Y-193770000D01*
X389580000Y-193790000D01*
X392690000Y-193780000D01*
X395497349Y-193815301D01*
X395690000Y-193820000D01*
X395890000Y-193820000D01*
X396510000Y-193860000D01*
X396980000Y-193920000D01*
X397360000Y-193940000D01*
X397830000Y-194120000D01*
X398040000Y-194270000D01*
X398220000Y-194410000D01*
X398350000Y-194620000D01*
X398360000Y-194940000D01*
X398380000Y-195260000D01*
X398390000Y-195800000D01*
X398390000Y-199010000D01*
X398390000Y-202430000D01*
X398390000Y-202890000D01*
X398390000Y-203110000D01*
X398390000Y-203220000D01*
X398400000Y-203350000D01*
X398460000Y-203460000D01*
X398570000Y-203480000D01*
X398680000Y-203490000D01*
X398810000Y-203490000D01*
X399040000Y-203490000D01*
X399370000Y-203490000D01*
X399620000Y-203490000D01*
X399860000Y-203490000D01*
X400080000Y-203490000D01*
X400360000Y-203490000D01*
X400540000Y-203460000D01*
X400680000Y-203390000D01*
X400710000Y-203320000D01*
X400740000Y-203110000D01*
X400740000Y-202910000D01*
X400740000Y-202530000D01*
X400740000Y-202270000D01*
X400750000Y-195510000D01*
X400890000Y-185820000D01*
X400870000Y-184660000D01*
X400710000Y-184120000D01*
X400480000Y-183810000D01*
X400040000Y-183725000D01*
X399900000Y-183690000D01*
X399650000Y-183530000D01*
G37*
X399650000Y-183530000D02*
X384460000Y-183540000D01*
X384180000Y-183640000D01*
X384000000Y-183850000D01*
X383870000Y-184010000D01*
X383810000Y-184140000D01*
X383760000Y-184310000D01*
X383730000Y-184470000D01*
X383740000Y-184780000D01*
X383780000Y-185010000D01*
X383870000Y-185170000D01*
X383970000Y-185340000D01*
X384160000Y-185460000D01*
X384420000Y-185580000D01*
X384670000Y-185600000D01*
X384970000Y-185600000D01*
X385320000Y-185600000D01*
X385940000Y-185590000D01*
X397810000Y-185620000D01*
X398010000Y-185670000D01*
X398150000Y-185750000D01*
X398230000Y-185830000D01*
X398290000Y-185930000D01*
X398360000Y-186120000D01*
X398390000Y-186580000D01*
X398410000Y-187260000D01*
X398390000Y-191480000D01*
X398390000Y-191820000D01*
X398310000Y-192000000D01*
X398180000Y-192170000D01*
X398030000Y-192250000D01*
X394160000Y-192250000D01*
X389580000Y-192230000D01*
X389360000Y-192230000D01*
X389130000Y-192380000D01*
X389000000Y-192540000D01*
X388970000Y-192780000D01*
X388970000Y-193110000D01*
X389005000Y-193330000D01*
X389175000Y-193640000D01*
X389380000Y-193770000D01*
X389580000Y-193790000D01*
X392690000Y-193780000D01*
X395497349Y-193815301D01*
X395690000Y-193820000D01*
X395890000Y-193820000D01*
X396510000Y-193860000D01*
X396980000Y-193920000D01*
X397360000Y-193940000D01*
X397830000Y-194120000D01*
X398040000Y-194270000D01*
X398220000Y-194410000D01*
X398350000Y-194620000D01*
X398360000Y-194940000D01*
X398380000Y-195260000D01*
X398390000Y-195800000D01*
X398390000Y-199010000D01*
X398390000Y-202430000D01*
X398390000Y-202890000D01*
X398390000Y-203110000D01*
X398390000Y-203220000D01*
X398400000Y-203350000D01*
X398460000Y-203460000D01*
X398570000Y-203480000D01*
X398680000Y-203490000D01*
X398810000Y-203490000D01*
X399040000Y-203490000D01*
X399370000Y-203490000D01*
X399620000Y-203490000D01*
X399860000Y-203490000D01*
X400080000Y-203490000D01*
X400360000Y-203490000D01*
X400540000Y-203460000D01*
X400680000Y-203390000D01*
X400710000Y-203320000D01*
X400740000Y-203110000D01*
X400740000Y-202910000D01*
X400740000Y-202530000D01*
X400740000Y-202270000D01*
X400750000Y-195510000D01*
X400890000Y-185820000D01*
X400870000Y-184660000D01*
X400710000Y-184120000D01*
X400480000Y-183810000D01*
X400040000Y-183725000D01*
X399900000Y-183690000D01*
X399650000Y-183530000D01*
G36*
X372382500Y-194940000D02*
G01*
X359267500Y-194890000D01*
X358147500Y-194890000D01*
X357567500Y-195980000D01*
X357457500Y-196170000D01*
X356907500Y-197430000D01*
X354727500Y-202110000D01*
X354617500Y-202470000D01*
X354657500Y-202760000D01*
X354867500Y-202930000D01*
X355827500Y-202950000D01*
X356732500Y-202915000D01*
X359322500Y-197325000D01*
X359637500Y-197040000D01*
X360057500Y-196930000D01*
X370887500Y-196900000D01*
X371097500Y-197070000D01*
X371137500Y-197230000D01*
X371260000Y-197502500D01*
X373995000Y-202837500D01*
X374917500Y-203000000D01*
X375357500Y-203010000D01*
X375877500Y-203020000D01*
X376227500Y-203000000D01*
X376417500Y-202930000D01*
X376537500Y-202700000D01*
X376527500Y-202540000D01*
X373082500Y-196145000D01*
X372817500Y-196300000D01*
X372787500Y-196220000D01*
X372697500Y-196050000D01*
X372567500Y-196000000D01*
X372382500Y-194940000D01*
G37*
X372382500Y-194940000D02*
X359267500Y-194890000D01*
X358147500Y-194890000D01*
X357567500Y-195980000D01*
X357457500Y-196170000D01*
X356907500Y-197430000D01*
X354727500Y-202110000D01*
X354617500Y-202470000D01*
X354657500Y-202760000D01*
X354867500Y-202930000D01*
X355827500Y-202950000D01*
X356732500Y-202915000D01*
X359322500Y-197325000D01*
X359637500Y-197040000D01*
X360057500Y-196930000D01*
X370887500Y-196900000D01*
X371097500Y-197070000D01*
X371137500Y-197230000D01*
X371260000Y-197502500D01*
X373995000Y-202837500D01*
X374917500Y-203000000D01*
X375357500Y-203010000D01*
X375877500Y-203020000D01*
X376227500Y-203000000D01*
X376417500Y-202930000D01*
X376537500Y-202700000D01*
X376527500Y-202540000D01*
X373082500Y-196145000D01*
X372817500Y-196300000D01*
X372787500Y-196220000D01*
X372697500Y-196050000D01*
X372567500Y-196000000D01*
X372382500Y-194940000D01*
G36*
X364572309Y-182680000D02*
G01*
X364082309Y-182950000D01*
X357602309Y-196055000D01*
X359882309Y-196180000D01*
X365262309Y-185430000D01*
X370262309Y-195700000D01*
X371452309Y-196120000D01*
X371602309Y-196340000D01*
X372037309Y-196340000D01*
X372502309Y-196340000D01*
X372782309Y-196350000D01*
X373092309Y-196250000D01*
X372804809Y-195667500D01*
X367192309Y-184160000D01*
X366852309Y-183320000D01*
X366312309Y-182740000D01*
X365512309Y-182530000D01*
X364572309Y-182680000D01*
G37*
X364572309Y-182680000D02*
X364082309Y-182950000D01*
X357602309Y-196055000D01*
X359882309Y-196180000D01*
X365262309Y-185430000D01*
X370262309Y-195700000D01*
X371452309Y-196120000D01*
X371602309Y-196340000D01*
X372037309Y-196340000D01*
X372502309Y-196340000D01*
X372782309Y-196350000D01*
X373092309Y-196250000D01*
X372804809Y-195667500D01*
X367192309Y-184160000D01*
X366852309Y-183320000D01*
X366312309Y-182740000D01*
X365512309Y-182530000D01*
X364572309Y-182680000D01*
D11*
G36*
X234038472Y-190296173D02*
G01*
X234030976Y-192618772D01*
X234009192Y-194406513D01*
X233966413Y-195751654D01*
X233895934Y-196746453D01*
X233791048Y-197483166D01*
X233645050Y-198054051D01*
X233451234Y-198551365D01*
X233435953Y-198585254D01*
X232539935Y-199869958D01*
X231238680Y-200678160D01*
X229540213Y-201005105D01*
X229341655Y-201011278D01*
X227544550Y-200802580D01*
X226137018Y-200104118D01*
X225189489Y-199039525D01*
X224962723Y-198645733D01*
X224788551Y-198228857D01*
X224658585Y-197701333D01*
X224564437Y-196975599D01*
X224497718Y-195964093D01*
X224450039Y-194579252D01*
X224413012Y-192733513D01*
X224381915Y-190609753D01*
X224282669Y-183319013D01*
X221775350Y-183319013D01*
X221873934Y-190948981D01*
X221972519Y-198578950D01*
X222916058Y-200104032D01*
X224128683Y-201496755D01*
X225748914Y-202528251D01*
X227645471Y-203158122D01*
X229687074Y-203345974D01*
X231742443Y-203051410D01*
X232124084Y-202937442D01*
X233847032Y-202056830D01*
X235234999Y-200684710D01*
X235959495Y-199468395D01*
X236146361Y-199003519D01*
X236289033Y-198461802D01*
X236393412Y-197755853D01*
X236465401Y-196798280D01*
X236510901Y-195501690D01*
X236535812Y-193778691D01*
X236546036Y-191541892D01*
X236547114Y-190766544D01*
X236554000Y-183319013D01*
X234045358Y-183319013D01*
X234038472Y-190296173D01*
G37*
X234038472Y-190296173D02*
X234030976Y-192618772D01*
X234009192Y-194406513D01*
X233966413Y-195751654D01*
X233895934Y-196746453D01*
X233791048Y-197483166D01*
X233645050Y-198054051D01*
X233451234Y-198551365D01*
X233435953Y-198585254D01*
X232539935Y-199869958D01*
X231238680Y-200678160D01*
X229540213Y-201005105D01*
X229341655Y-201011278D01*
X227544550Y-200802580D01*
X226137018Y-200104118D01*
X225189489Y-199039525D01*
X224962723Y-198645733D01*
X224788551Y-198228857D01*
X224658585Y-197701333D01*
X224564437Y-196975599D01*
X224497718Y-195964093D01*
X224450039Y-194579252D01*
X224413012Y-192733513D01*
X224381915Y-190609753D01*
X224282669Y-183319013D01*
X221775350Y-183319013D01*
X221873934Y-190948981D01*
X221972519Y-198578950D01*
X222916058Y-200104032D01*
X224128683Y-201496755D01*
X225748914Y-202528251D01*
X227645471Y-203158122D01*
X229687074Y-203345974D01*
X231742443Y-203051410D01*
X232124084Y-202937442D01*
X233847032Y-202056830D01*
X235234999Y-200684710D01*
X235959495Y-199468395D01*
X236146361Y-199003519D01*
X236289033Y-198461802D01*
X236393412Y-197755853D01*
X236465401Y-196798280D01*
X236510901Y-195501690D01*
X236535812Y-193778691D01*
X236546036Y-191541892D01*
X236547114Y-190766544D01*
X236554000Y-183319013D01*
X234045358Y-183319013D01*
X234038472Y-190296173D01*
G36*
X315311186Y-183391628D02*
G01*
X308020446Y-183475803D01*
X308020446Y-185357284D01*
X310871869Y-185446796D01*
X313723292Y-185536307D01*
X313928390Y-191404820D01*
X313996367Y-193512888D01*
X314054931Y-195640012D01*
X314100032Y-197613726D01*
X314127617Y-199261567D01*
X314134374Y-200173951D01*
X314135260Y-203074568D01*
X316643902Y-203074568D01*
X316643902Y-185514074D01*
X322601927Y-185514074D01*
X322601927Y-183307454D01*
X315311186Y-183391628D01*
G37*
X315311186Y-183391628D02*
X308020446Y-183475803D01*
X308020446Y-185357284D01*
X310871869Y-185446796D01*
X313723292Y-185536307D01*
X313928390Y-191404820D01*
X313996367Y-193512888D01*
X314054931Y-195640012D01*
X314100032Y-197613726D01*
X314127617Y-199261567D01*
X314134374Y-200173951D01*
X314135260Y-203074568D01*
X316643902Y-203074568D01*
X316643902Y-185514074D01*
X322601927Y-185514074D01*
X322601927Y-183307454D01*
X315311186Y-183391628D01*
G36*
X269248824Y-183359919D02*
G01*
X268892113Y-183369721D01*
X267137820Y-183440243D01*
X265865966Y-183550559D01*
X264932090Y-183722374D01*
X264191730Y-183977392D01*
X263890867Y-184121133D01*
X262772236Y-184996816D01*
X261870263Y-186254767D01*
X261327001Y-187662018D01*
X261232321Y-188481136D01*
X261505911Y-189969372D01*
X262219773Y-191380034D01*
X263245010Y-192484013D01*
X263629381Y-192741791D01*
X264831607Y-193433322D01*
X263853552Y-194469752D01*
X263425231Y-195072311D01*
X262874283Y-196056312D01*
X262257219Y-197293090D01*
X261630549Y-198653981D01*
X261050784Y-200010322D01*
X260574434Y-201233448D01*
X260258011Y-202194695D01*
X260158024Y-202765399D01*
X260177521Y-202839383D01*
X260554980Y-202990606D01*
X261310123Y-203070721D01*
X261530107Y-203074568D01*
X262738507Y-203074568D01*
X263596307Y-200801112D01*
X264473126Y-198596675D01*
X265257619Y-196932614D01*
X266007805Y-195740429D01*
X266781696Y-194951621D01*
X267637310Y-194497690D01*
X268632661Y-194310137D01*
X269107230Y-194294321D01*
X270632842Y-194294321D01*
X270632842Y-203074568D01*
X271834900Y-203074568D01*
X272663568Y-203024472D01*
X273194021Y-202900526D01*
X273246011Y-202865515D01*
X273299243Y-202510164D01*
X273347479Y-201607819D01*
X273388924Y-200238634D01*
X273421788Y-198482768D01*
X273444275Y-196420378D01*
X273454595Y-194131619D01*
X273455064Y-193518042D01*
X273451696Y-192099260D01*
X270632842Y-192099260D01*
X268640944Y-192099260D01*
X267317030Y-192034687D01*
X266362304Y-191802194D01*
X265587676Y-191384003D01*
X264566695Y-190411391D01*
X264117289Y-189219737D01*
X264177646Y-187898506D01*
X264616780Y-186802226D01*
X265484554Y-186056552D01*
X266826906Y-185636250D01*
X268516175Y-185515247D01*
X270632842Y-185514074D01*
X270632842Y-192099260D01*
X273451696Y-192099260D01*
X273448379Y-190702622D01*
X273426720Y-188457134D01*
X273387685Y-186724472D01*
X273328871Y-185447532D01*
X273247876Y-184569212D01*
X273142296Y-184032406D01*
X273047051Y-183821631D01*
X272805480Y-183584036D01*
X272419900Y-183431578D01*
X271775284Y-183351746D01*
X270756602Y-183332031D01*
X269248824Y-183359919D01*
G37*
X269248824Y-183359919D02*
X268892113Y-183369721D01*
X267137820Y-183440243D01*
X265865966Y-183550559D01*
X264932090Y-183722374D01*
X264191730Y-183977392D01*
X263890867Y-184121133D01*
X262772236Y-184996816D01*
X261870263Y-186254767D01*
X261327001Y-187662018D01*
X261232321Y-188481136D01*
X261505911Y-189969372D01*
X262219773Y-191380034D01*
X263245010Y-192484013D01*
X263629381Y-192741791D01*
X264831607Y-193433322D01*
X263853552Y-194469752D01*
X263425231Y-195072311D01*
X262874283Y-196056312D01*
X262257219Y-197293090D01*
X261630549Y-198653981D01*
X261050784Y-200010322D01*
X260574434Y-201233448D01*
X260258011Y-202194695D01*
X260158024Y-202765399D01*
X260177521Y-202839383D01*
X260554980Y-202990606D01*
X261310123Y-203070721D01*
X261530107Y-203074568D01*
X262738507Y-203074568D01*
X263596307Y-200801112D01*
X264473126Y-198596675D01*
X265257619Y-196932614D01*
X266007805Y-195740429D01*
X266781696Y-194951621D01*
X267637310Y-194497690D01*
X268632661Y-194310137D01*
X269107230Y-194294321D01*
X270632842Y-194294321D01*
X270632842Y-203074568D01*
X271834900Y-203074568D01*
X272663568Y-203024472D01*
X273194021Y-202900526D01*
X273246011Y-202865515D01*
X273299243Y-202510164D01*
X273347479Y-201607819D01*
X273388924Y-200238634D01*
X273421788Y-198482768D01*
X273444275Y-196420378D01*
X273454595Y-194131619D01*
X273455064Y-193518042D01*
X273451696Y-192099260D01*
X270632842Y-192099260D01*
X268640944Y-192099260D01*
X267317030Y-192034687D01*
X266362304Y-191802194D01*
X265587676Y-191384003D01*
X264566695Y-190411391D01*
X264117289Y-189219737D01*
X264177646Y-187898506D01*
X264616780Y-186802226D01*
X265484554Y-186056552D01*
X266826906Y-185636250D01*
X268516175Y-185515247D01*
X270632842Y-185514074D01*
X270632842Y-192099260D01*
X273451696Y-192099260D01*
X273448379Y-190702622D01*
X273426720Y-188457134D01*
X273387685Y-186724472D01*
X273328871Y-185447532D01*
X273247876Y-184569212D01*
X273142296Y-184032406D01*
X273047051Y-183821631D01*
X272805480Y-183584036D01*
X272419900Y-183431578D01*
X271775284Y-183351746D01*
X270756602Y-183332031D01*
X269248824Y-183359919D01*
G36*
X247101691Y-203074568D02*
G01*
X249610333Y-203074568D01*
X249610333Y-183319013D01*
X247101691Y-183319013D01*
X247101691Y-203074568D01*
G37*
X247101691Y-203074568D02*
X249610333Y-203074568D01*
X249610333Y-183319013D01*
X247101691Y-183319013D01*
X247101691Y-203074568D01*
G36*
X208143001Y-183399001D02*
G01*
X207240066Y-183663121D01*
X206887019Y-183896685D01*
X206612868Y-184343970D01*
X206154629Y-185288227D01*
X205551368Y-186640309D01*
X204842151Y-188311071D01*
X204066045Y-190211368D01*
X203554566Y-191501006D01*
X202775281Y-193475613D01*
X202062585Y-195256634D01*
X201450766Y-196760381D01*
X200974112Y-197903168D01*
X200666910Y-198601309D01*
X200572719Y-198778902D01*
X200398515Y-198570176D01*
X200025136Y-197852630D01*
X199486061Y-196699852D01*
X198814772Y-195185433D01*
X198044747Y-193382963D01*
X197291410Y-191566556D01*
X196442767Y-189524217D01*
X195645453Y-187664418D01*
X194936822Y-186069673D01*
X194354225Y-184822501D01*
X193935016Y-184005417D01*
X193735439Y-183710988D01*
X193065646Y-183445732D01*
X192096638Y-183331811D01*
X191076655Y-183366755D01*
X190253939Y-183548089D01*
X189937865Y-183748816D01*
X189826203Y-184114914D01*
X189742183Y-184933141D01*
X189684836Y-186238150D01*
X189653196Y-188064598D01*
X189646294Y-190447139D01*
X189663163Y-193420427D01*
X189664283Y-193548199D01*
X189747407Y-202917778D01*
X192256049Y-202917778D01*
X192569629Y-185990924D01*
X196006788Y-194532746D01*
X199443946Y-203074568D01*
X201764586Y-203074568D01*
X204188949Y-196881358D01*
X204974475Y-194874871D01*
X205740772Y-192917850D01*
X206437269Y-191139422D01*
X207013395Y-189668714D01*
X207418579Y-188634851D01*
X207458724Y-188532474D01*
X208304136Y-186376800D01*
X208511574Y-191169369D01*
X208589356Y-193227300D01*
X208653845Y-195430452D01*
X208698963Y-197534180D01*
X208718632Y-199293840D01*
X208719012Y-199518253D01*
X208719012Y-203074568D01*
X211227654Y-203074568D01*
X211227654Y-193573087D01*
X211220139Y-190634454D01*
X211196460Y-188278271D01*
X211154923Y-186459990D01*
X211093829Y-185135068D01*
X211011482Y-184258959D01*
X210906184Y-183787119D01*
X210851358Y-183695309D01*
X210201663Y-183402242D01*
X209214539Y-183307757D01*
X208143001Y-183399001D01*
G37*
X208143001Y-183399001D02*
X207240066Y-183663121D01*
X206887019Y-183896685D01*
X206612868Y-184343970D01*
X206154629Y-185288227D01*
X205551368Y-186640309D01*
X204842151Y-188311071D01*
X204066045Y-190211368D01*
X203554566Y-191501006D01*
X202775281Y-193475613D01*
X202062585Y-195256634D01*
X201450766Y-196760381D01*
X200974112Y-197903168D01*
X200666910Y-198601309D01*
X200572719Y-198778902D01*
X200398515Y-198570176D01*
X200025136Y-197852630D01*
X199486061Y-196699852D01*
X198814772Y-195185433D01*
X198044747Y-193382963D01*
X197291410Y-191566556D01*
X196442767Y-189524217D01*
X195645453Y-187664418D01*
X194936822Y-186069673D01*
X194354225Y-184822501D01*
X193935016Y-184005417D01*
X193735439Y-183710988D01*
X193065646Y-183445732D01*
X192096638Y-183331811D01*
X191076655Y-183366755D01*
X190253939Y-183548089D01*
X189937865Y-183748816D01*
X189826203Y-184114914D01*
X189742183Y-184933141D01*
X189684836Y-186238150D01*
X189653196Y-188064598D01*
X189646294Y-190447139D01*
X189663163Y-193420427D01*
X189664283Y-193548199D01*
X189747407Y-202917778D01*
X192256049Y-202917778D01*
X192569629Y-185990924D01*
X196006788Y-194532746D01*
X199443946Y-203074568D01*
X201764586Y-203074568D01*
X204188949Y-196881358D01*
X204974475Y-194874871D01*
X205740772Y-192917850D01*
X206437269Y-191139422D01*
X207013395Y-189668714D01*
X207418579Y-188634851D01*
X207458724Y-188532474D01*
X208304136Y-186376800D01*
X208511574Y-191169369D01*
X208589356Y-193227300D01*
X208653845Y-195430452D01*
X208698963Y-197534180D01*
X208718632Y-199293840D01*
X208719012Y-199518253D01*
X208719012Y-203074568D01*
X211227654Y-203074568D01*
X211227654Y-193573087D01*
X211220139Y-190634454D01*
X211196460Y-188278271D01*
X211154923Y-186459990D01*
X211093829Y-185135068D01*
X211011482Y-184258959D01*
X210906184Y-183787119D01*
X210851358Y-183695309D01*
X210201663Y-183402242D01*
X209214539Y-183307757D01*
X208143001Y-183399001D01*
D12*
X417570000Y-157340000D02*
X171710000Y-157340000D01*
X417570000Y-228740000D02*
X171710000Y-228740000D01*
D10*
G36*
X291617755Y-182740000D02*
G01*
X291007755Y-182730000D01*
X290367755Y-182730000D01*
X289767755Y-182720000D01*
X289367755Y-182720000D01*
X288857755Y-182800000D01*
X288457755Y-182910000D01*
X288047755Y-183120000D01*
X287607755Y-183390000D01*
X287107755Y-183680000D01*
X286777755Y-183900000D01*
X286177755Y-184330000D01*
X285687755Y-184850000D01*
X285287755Y-185330000D01*
X285037755Y-185700000D01*
X284687755Y-186830000D01*
X284297755Y-188250000D01*
X284167755Y-189110000D01*
X284097755Y-190210000D01*
X284067755Y-191860000D01*
X284047755Y-193330000D01*
X284057755Y-194390000D01*
X284177755Y-196230000D01*
X284617755Y-198050000D01*
X285057755Y-199760000D01*
X285917755Y-200680000D01*
X286817755Y-201570000D01*
X287417755Y-202020000D01*
X288197755Y-202440000D01*
X288847755Y-202720000D01*
X291237755Y-202700000D01*
X292717755Y-202720000D01*
X293157755Y-202470000D01*
X294407755Y-201800000D01*
X295157755Y-201360000D01*
X295827755Y-200790000D01*
X296467755Y-199900000D01*
X296717755Y-199000000D01*
X297017755Y-198150000D01*
X297207755Y-197300000D01*
X297327755Y-196740000D01*
X297387755Y-196210000D01*
X297377755Y-195840000D01*
X297377755Y-195420000D01*
X297377755Y-194920000D01*
X297377755Y-194640000D01*
X297387755Y-194290000D01*
X297397755Y-193970000D01*
X297397755Y-193820000D01*
X297157363Y-193814804D01*
X296577363Y-193804804D01*
X295437363Y-193814804D01*
X295137755Y-193810000D01*
X295137755Y-193960000D01*
X295137755Y-194180000D01*
X295147755Y-194650000D01*
X295147755Y-194940000D01*
X295127755Y-195380000D01*
X295087755Y-196260000D01*
X294897755Y-197140000D01*
X294717755Y-197940000D01*
X294447755Y-198630000D01*
X294102755Y-199020000D01*
X293692755Y-199480000D01*
X293297755Y-199760000D01*
X292587755Y-200180000D01*
X292157755Y-200360000D01*
X291447755Y-200470000D01*
X290627755Y-200470000D01*
X290037755Y-200465000D01*
X289357755Y-200455000D01*
X288887755Y-200240000D01*
X288287755Y-199850000D01*
X287827755Y-199410000D01*
X287547755Y-199130000D01*
X287237755Y-198870000D01*
X287027755Y-198530000D01*
X286897755Y-198120000D01*
X286817755Y-197750000D01*
X286737755Y-197420000D01*
X286637755Y-197065000D01*
X286537755Y-196695000D01*
X286457755Y-196250000D01*
X286407755Y-195710000D01*
X286377755Y-195050000D01*
X286387755Y-194470000D01*
X286377755Y-194040000D01*
X286387755Y-193540000D01*
X286377755Y-193020000D01*
X286397755Y-192460000D01*
X286397755Y-191640000D01*
X286407755Y-190910000D01*
X286407755Y-190240000D01*
X286427755Y-189590000D01*
X286467755Y-189050000D01*
X286557755Y-188590000D01*
X286697755Y-188160000D01*
X286737755Y-187900000D01*
X286867755Y-187500000D01*
X286967755Y-187110000D01*
X287157755Y-186790000D01*
X287517755Y-186420000D01*
X288037755Y-185920000D01*
X288585255Y-185550000D01*
X289070255Y-185290000D01*
X289542755Y-185085000D01*
X289892755Y-185075000D01*
X290407755Y-185030000D01*
X290897755Y-185050000D01*
X291322755Y-185085000D01*
X291677755Y-185130000D01*
X291907755Y-185165000D01*
X292187755Y-185235000D01*
X292437755Y-185360000D01*
X292637755Y-185460000D01*
X292907755Y-185610000D01*
X293087755Y-185710000D01*
X293377755Y-185970000D01*
X293617755Y-186140000D01*
X293817755Y-186340000D01*
X294057755Y-186610000D01*
X294297755Y-186870000D01*
X294467755Y-187180000D01*
X294557755Y-187460000D01*
X294647755Y-187800000D01*
X294707755Y-188170000D01*
X294817755Y-188570000D01*
X294897755Y-189050000D01*
X294977755Y-189380000D01*
X295037755Y-189790000D01*
X295107755Y-190280000D01*
X295127755Y-190810000D01*
X295157755Y-191340000D01*
X295137755Y-192120000D01*
X295147755Y-193754804D01*
X296167363Y-193744804D01*
X296957755Y-193740000D01*
X297277755Y-193730000D01*
X297417755Y-193720000D01*
X297417755Y-193420000D01*
X297407755Y-192780000D01*
X297417755Y-192190000D01*
X297417755Y-191480000D01*
X297417755Y-190700000D01*
X297427755Y-189790000D01*
X297387755Y-189160000D01*
X297197755Y-188500000D01*
X296987755Y-187810000D01*
X296847755Y-187240000D01*
X296707755Y-186700000D01*
X296587755Y-186220000D01*
X296487755Y-185740000D01*
X296307755Y-185450000D01*
X296007755Y-185120000D01*
X295667755Y-184760000D01*
X295257755Y-184410000D01*
X294917755Y-184070000D01*
X294637755Y-183830000D01*
X294237755Y-183540000D01*
X293757755Y-183250000D01*
X293197755Y-182980000D01*
X292747755Y-182790000D01*
X292262951Y-182752598D01*
X291617755Y-182740000D01*
G37*
X291617755Y-182740000D02*
X291007755Y-182730000D01*
X290367755Y-182730000D01*
X289767755Y-182720000D01*
X289367755Y-182720000D01*
X288857755Y-182800000D01*
X288457755Y-182910000D01*
X288047755Y-183120000D01*
X287607755Y-183390000D01*
X287107755Y-183680000D01*
X286777755Y-183900000D01*
X286177755Y-184330000D01*
X285687755Y-184850000D01*
X285287755Y-185330000D01*
X285037755Y-185700000D01*
X284687755Y-186830000D01*
X284297755Y-188250000D01*
X284167755Y-189110000D01*
X284097755Y-190210000D01*
X284067755Y-191860000D01*
X284047755Y-193330000D01*
X284057755Y-194390000D01*
X284177755Y-196230000D01*
X284617755Y-198050000D01*
X285057755Y-199760000D01*
X285917755Y-200680000D01*
X286817755Y-201570000D01*
X287417755Y-202020000D01*
X288197755Y-202440000D01*
X288847755Y-202720000D01*
X291237755Y-202700000D01*
X292717755Y-202720000D01*
X293157755Y-202470000D01*
X294407755Y-201800000D01*
X295157755Y-201360000D01*
X295827755Y-200790000D01*
X296467755Y-199900000D01*
X296717755Y-199000000D01*
X297017755Y-198150000D01*
X297207755Y-197300000D01*
X297327755Y-196740000D01*
X297387755Y-196210000D01*
X297377755Y-195840000D01*
X297377755Y-195420000D01*
X297377755Y-194920000D01*
X297377755Y-194640000D01*
X297387755Y-194290000D01*
X297397755Y-193970000D01*
X297397755Y-193820000D01*
X297157363Y-193814804D01*
X296577363Y-193804804D01*
X295437363Y-193814804D01*
X295137755Y-193810000D01*
X295137755Y-193960000D01*
X295137755Y-194180000D01*
X295147755Y-194650000D01*
X295147755Y-194940000D01*
X295127755Y-195380000D01*
X295087755Y-196260000D01*
X294897755Y-197140000D01*
X294717755Y-197940000D01*
X294447755Y-198630000D01*
X294102755Y-199020000D01*
X293692755Y-199480000D01*
X293297755Y-199760000D01*
X292587755Y-200180000D01*
X292157755Y-200360000D01*
X291447755Y-200470000D01*
X290627755Y-200470000D01*
X290037755Y-200465000D01*
X289357755Y-200455000D01*
X288887755Y-200240000D01*
X288287755Y-199850000D01*
X287827755Y-199410000D01*
X287547755Y-199130000D01*
X287237755Y-198870000D01*
X287027755Y-198530000D01*
X286897755Y-198120000D01*
X286817755Y-197750000D01*
X286737755Y-197420000D01*
X286637755Y-197065000D01*
X286537755Y-196695000D01*
X286457755Y-196250000D01*
X286407755Y-195710000D01*
X286377755Y-195050000D01*
X286387755Y-194470000D01*
X286377755Y-194040000D01*
X286387755Y-193540000D01*
X286377755Y-193020000D01*
X286397755Y-192460000D01*
X286397755Y-191640000D01*
X286407755Y-190910000D01*
X286407755Y-190240000D01*
X286427755Y-189590000D01*
X286467755Y-189050000D01*
X286557755Y-188590000D01*
X286697755Y-188160000D01*
X286737755Y-187900000D01*
X286867755Y-187500000D01*
X286967755Y-187110000D01*
X287157755Y-186790000D01*
X287517755Y-186420000D01*
X288037755Y-185920000D01*
X288585255Y-185550000D01*
X289070255Y-185290000D01*
X289542755Y-185085000D01*
X289892755Y-185075000D01*
X290407755Y-185030000D01*
X290897755Y-185050000D01*
X291322755Y-185085000D01*
X291677755Y-185130000D01*
X291907755Y-185165000D01*
X292187755Y-185235000D01*
X292437755Y-185360000D01*
X292637755Y-185460000D01*
X292907755Y-185610000D01*
X293087755Y-185710000D01*
X293377755Y-185970000D01*
X293617755Y-186140000D01*
X293817755Y-186340000D01*
X294057755Y-186610000D01*
X294297755Y-186870000D01*
X294467755Y-187180000D01*
X294557755Y-187460000D01*
X294647755Y-187800000D01*
X294707755Y-188170000D01*
X294817755Y-188570000D01*
X294897755Y-189050000D01*
X294977755Y-189380000D01*
X295037755Y-189790000D01*
X295107755Y-190280000D01*
X295127755Y-190810000D01*
X295157755Y-191340000D01*
X295137755Y-192120000D01*
X295147755Y-193754804D01*
X296167363Y-193744804D01*
X296957755Y-193740000D01*
X297277755Y-193730000D01*
X297417755Y-193720000D01*
X297417755Y-193420000D01*
X297407755Y-192780000D01*
X297417755Y-192190000D01*
X297417755Y-191480000D01*
X297417755Y-190700000D01*
X297427755Y-189790000D01*
X297387755Y-189160000D01*
X297197755Y-188500000D01*
X296987755Y-187810000D01*
X296847755Y-187240000D01*
X296707755Y-186700000D01*
X296587755Y-186220000D01*
X296487755Y-185740000D01*
X296307755Y-185450000D01*
X296007755Y-185120000D01*
X295667755Y-184760000D01*
X295257755Y-184410000D01*
X294917755Y-184070000D01*
X294637755Y-183830000D01*
X294237755Y-183540000D01*
X293757755Y-183250000D01*
X293197755Y-182980000D01*
X292747755Y-182790000D01*
X292262951Y-182752598D01*
X291617755Y-182740000D01*
D12*
X171710000Y-157340000D02*
G75*
G03*
X171710000Y-228740000I0J-35700000D01*
G01*
X417570000Y-228740000D02*
G75*
G03*
X417570000Y-157340000I0J35700000D01*
G01*
%TD*%
D13*
%TO.P,REF\u002A\u002A,1*%
%TO.N,N/C*%
X154940000Y-152400000D03*
%TD*%
D14*
%TO.P,REF\u002A\u002A,1*%
%TO.N,N/C*%
X135670600Y-155473400D03*
%TD*%
%TO.P,REF\u002A\u002A,1*%
%TO.N,N/C*%
X451900600Y-155473400D03*
%TD*%
D13*
%TO.P,REF\u002A\u002A,1*%
%TO.N,N/C*%
X482123750Y-125888750D03*
%TD*%
%TO.P,REF\u002A\u002A,1*%
%TO.N,N/C*%
X338455000Y-99536250D03*
%TD*%
%TO.P,REF\u002A\u002A,1*%
%TO.N,N/C*%
X257489595Y-244428110D03*
%TD*%
%TO.P,REF\u002A\u002A,1*%
%TO.N,N/C*%
X482123750Y-99536250D03*
%TD*%
%TO.P,REF\u002A\u002A,1*%
%TO.N,N/C*%
X109220000Y-125888750D03*
%TD*%
%TO.P,REF\u002A\u002A,1*%
%TO.N,N/C*%
X109220000Y-99536250D03*
%TD*%
%TO.P,REF\u002A\u002A,1*%
%TO.N,N/C*%
X146050000Y-228600000D03*
%TD*%
%TO.P,REF\u002A\u002A,1*%
%TO.N,N/C*%
X425450000Y-247650000D03*
%TD*%
%TO.P,REF\u002A\u002A,1*%
%TO.N,N/C*%
X294640000Y-152400000D03*
%TD*%
%TO.P,REF\u002A\u002A,1*%
%TO.N,N/C*%
X368300000Y-228600000D03*
%TD*%
%TO.P,REF\u002A\u002A,1*%
%TO.N,N/C*%
X211455000Y-99811251D03*
%TD*%
%TO.P,REF\u002A\u002A,1*%
%TO.N,N/C*%
X469900000Y-152400000D03*
%TD*%
%TO.P,H1,1*%
%TO.N,GND*%
X377190000Y-152400000D03*
%TD*%
D15*
%TO.N,GND*%
G36*
X486774545Y-95313909D02*
G01*
X487125208Y-95419780D01*
X487448625Y-95591744D01*
X487732484Y-95823254D01*
X487965965Y-96105486D01*
X488140183Y-96427695D01*
X488248502Y-96777614D01*
X488290001Y-97172452D01*
X488290000Y-255872721D01*
X488251091Y-256269545D01*
X488145220Y-256620206D01*
X487973257Y-256943623D01*
X487741748Y-257227482D01*
X487459514Y-257460965D01*
X487137304Y-257635184D01*
X486787385Y-257743502D01*
X486392557Y-257785000D01*
X428592581Y-257785000D01*
X428584543Y-257785792D01*
X428391737Y-257790504D01*
X428384563Y-257791366D01*
X428377349Y-257791013D01*
X428313159Y-257797137D01*
X427477549Y-257918294D01*
X427447868Y-257925529D01*
X427417621Y-257929834D01*
X427355752Y-257947985D01*
X427355746Y-257947986D01*
X427355743Y-257947987D01*
X426558124Y-258224967D01*
X426530342Y-258237686D01*
X426501458Y-258247632D01*
X426444150Y-258277148D01*
X426444133Y-258277156D01*
X426444126Y-258277161D01*
X425713276Y-258699969D01*
X425688402Y-258717711D01*
X425661920Y-258732939D01*
X425611221Y-258772763D01*
X425611210Y-258772771D01*
X425611205Y-258772776D01*
X424973492Y-259326155D01*
X424952418Y-259348284D01*
X424929296Y-259368243D01*
X424887044Y-259416934D01*
X424887034Y-259416944D01*
X424887030Y-259416949D01*
X424365463Y-260080936D01*
X424348957Y-260106647D01*
X424330024Y-260130620D01*
X424297743Y-260186419D01*
X424297733Y-260186435D01*
X424297733Y-260186436D01*
X423911129Y-260937073D01*
X423899783Y-260965440D01*
X423885723Y-260992564D01*
X423864575Y-261053463D01*
X423864570Y-261053476D01*
X423864570Y-261053478D01*
X423626884Y-261863679D01*
X423621107Y-261893677D01*
X423612430Y-261922971D01*
X423603180Y-261986769D01*
X423603177Y-261986787D01*
X423603177Y-261986796D01*
X423522984Y-262827315D01*
X423448771Y-263605156D01*
X423246536Y-264294516D01*
X422917596Y-264933190D01*
X422473820Y-265498143D01*
X421931220Y-265968988D01*
X421309377Y-266328733D01*
X420630721Y-266564402D01*
X419896523Y-266670855D01*
X419726934Y-266675000D01*
X361981409Y-266675000D01*
X361234844Y-266603771D01*
X360545484Y-266401536D01*
X359906810Y-266072596D01*
X359341857Y-265628820D01*
X358871012Y-265086220D01*
X358511267Y-264464377D01*
X358275598Y-263785721D01*
X358169145Y-263051523D01*
X358164803Y-262873874D01*
X358159496Y-262656737D01*
X358158634Y-262649563D01*
X358158987Y-262642349D01*
X358152863Y-262578159D01*
X358031706Y-261742549D01*
X358024471Y-261712868D01*
X358020166Y-261682621D01*
X358002014Y-261620747D01*
X358002014Y-261620745D01*
X358002013Y-261620743D01*
X357725033Y-260823124D01*
X357712314Y-260795342D01*
X357702368Y-260766458D01*
X357672852Y-260709150D01*
X357672844Y-260709133D01*
X357672839Y-260709126D01*
X357250031Y-259978276D01*
X357232289Y-259953402D01*
X357217061Y-259926920D01*
X357177237Y-259876221D01*
X357177229Y-259876210D01*
X357177224Y-259876205D01*
X356623845Y-259238492D01*
X356601716Y-259217418D01*
X356581757Y-259194296D01*
X356533066Y-259152044D01*
X356533056Y-259152034D01*
X356533051Y-259152030D01*
X355869064Y-258630463D01*
X355843353Y-258613957D01*
X355819380Y-258595024D01*
X355763581Y-258562743D01*
X355763565Y-258562733D01*
X355763556Y-258562730D01*
X355012927Y-258176129D01*
X354984560Y-258164783D01*
X354957436Y-258150723D01*
X354896537Y-258129575D01*
X354896524Y-258129570D01*
X354896518Y-258129569D01*
X354086321Y-257891884D01*
X354056323Y-257886107D01*
X354027029Y-257877430D01*
X353963231Y-257868180D01*
X353963213Y-257868177D01*
X353963204Y-257868177D01*
X353123690Y-257788080D01*
X353092419Y-257785000D01*
X107347279Y-257785000D01*
X106950455Y-257746091D01*
X106599794Y-257640220D01*
X106276377Y-257468257D01*
X105992518Y-257236748D01*
X105759035Y-256954514D01*
X105584816Y-256632304D01*
X105476498Y-256282385D01*
X105435000Y-255887557D01*
X105435000Y-247370777D01*
X422615000Y-247370777D01*
X422615000Y-247929223D01*
X422723948Y-248476939D01*
X422937656Y-248992876D01*
X423247912Y-249457207D01*
X423642793Y-249852088D01*
X424107124Y-250162344D01*
X424623061Y-250376052D01*
X425170777Y-250485000D01*
X425729223Y-250485000D01*
X426276939Y-250376052D01*
X426792876Y-250162344D01*
X427257207Y-249852088D01*
X427652088Y-249457207D01*
X427962344Y-248992876D01*
X428176052Y-248476939D01*
X428285000Y-247929223D01*
X428285000Y-247370777D01*
X428176052Y-246823061D01*
X427962344Y-246307124D01*
X427652088Y-245842793D01*
X427257207Y-245447912D01*
X426792876Y-245137656D01*
X426276939Y-244923948D01*
X425729223Y-244815000D01*
X425170777Y-244815000D01*
X424623061Y-244923948D01*
X424107124Y-245137656D01*
X423642793Y-245447912D01*
X423247912Y-245842793D01*
X422937656Y-246307124D01*
X422723948Y-246823061D01*
X422615000Y-247370777D01*
X105435000Y-247370777D01*
X105435000Y-244148887D01*
X254654595Y-244148887D01*
X254654595Y-244707333D01*
X254763543Y-245255049D01*
X254977251Y-245770986D01*
X255287507Y-246235317D01*
X255682388Y-246630198D01*
X256146719Y-246940454D01*
X256662656Y-247154162D01*
X257210372Y-247263110D01*
X257768818Y-247263110D01*
X258316534Y-247154162D01*
X258832471Y-246940454D01*
X259296802Y-246630198D01*
X259691683Y-246235317D01*
X260001939Y-245770986D01*
X260215647Y-245255049D01*
X260324595Y-244707333D01*
X260324595Y-244148887D01*
X260215647Y-243601171D01*
X260001939Y-243085234D01*
X259691683Y-242620903D01*
X259296802Y-242226022D01*
X258832471Y-241915766D01*
X258316534Y-241702058D01*
X257768818Y-241593110D01*
X257210372Y-241593110D01*
X256662656Y-241702058D01*
X256146719Y-241915766D01*
X255682388Y-242226022D01*
X255287507Y-242620903D01*
X254977251Y-243085234D01*
X254763543Y-243601171D01*
X254654595Y-244148887D01*
X105435000Y-244148887D01*
X105435000Y-228320777D01*
X143215000Y-228320777D01*
X143215000Y-228879223D01*
X143323948Y-229426939D01*
X143537656Y-229942876D01*
X143847912Y-230407207D01*
X144242793Y-230802088D01*
X144707124Y-231112344D01*
X145223061Y-231326052D01*
X145770777Y-231435000D01*
X146329223Y-231435000D01*
X146876939Y-231326052D01*
X147392876Y-231112344D01*
X147857207Y-230802088D01*
X148252088Y-230407207D01*
X148562344Y-229942876D01*
X148776052Y-229426939D01*
X148885000Y-228879223D01*
X148885000Y-228320777D01*
X148776052Y-227773061D01*
X148562344Y-227257124D01*
X148252088Y-226792793D01*
X147857207Y-226397912D01*
X147392876Y-226087656D01*
X146876939Y-225873948D01*
X146329223Y-225765000D01*
X145770777Y-225765000D01*
X145223061Y-225873948D01*
X144707124Y-226087656D01*
X144242793Y-226397912D01*
X143847912Y-226792793D01*
X143537656Y-227257124D01*
X143323948Y-227773061D01*
X143215000Y-228320777D01*
X105435000Y-228320777D01*
X105435000Y-192255888D01*
X133033053Y-192255888D01*
X133033053Y-192328824D01*
X133061974Y-194695927D01*
X133064810Y-194758373D01*
X133066119Y-194820884D01*
X133070953Y-194893659D01*
X133256687Y-197253640D01*
X133263653Y-197315739D01*
X133269104Y-197378050D01*
X133278751Y-197450345D01*
X133620483Y-199792828D01*
X133631549Y-199854332D01*
X133641118Y-199916140D01*
X133655534Y-199987637D01*
X134151760Y-202302323D01*
X134166881Y-202362968D01*
X134180522Y-202423996D01*
X134199645Y-202494380D01*
X134848183Y-204771090D01*
X134867298Y-204830627D01*
X134884946Y-204890588D01*
X134908691Y-204959550D01*
X135706689Y-207188275D01*
X135729695Y-207246381D01*
X135751291Y-207305077D01*
X135779555Y-207372314D01*
X136723506Y-209543251D01*
X136750324Y-209599729D01*
X136775750Y-209656837D01*
X136808399Y-209722035D01*
X136808408Y-209722054D01*
X136808415Y-209722066D01*
X137894159Y-211825659D01*
X137924665Y-211880242D01*
X137953817Y-211935534D01*
X137990725Y-211998442D01*
X139213504Y-214025466D01*
X139247549Y-214077891D01*
X139280312Y-214131146D01*
X139321308Y-214191470D01*
X140675737Y-216132998D01*
X140713179Y-216183048D01*
X140749401Y-216234017D01*
X140794305Y-216291491D01*
X142274428Y-218138988D01*
X142315111Y-218186454D01*
X142354628Y-218234906D01*
X142403242Y-218289277D01*
X144002552Y-220034618D01*
X144046293Y-220079285D01*
X144088931Y-220125008D01*
X144141041Y-220176038D01*
X145852507Y-221811550D01*
X145899114Y-221853221D01*
X145944686Y-221896016D01*
X146000063Y-221943481D01*
X147816158Y-223461972D01*
X147865418Y-223500458D01*
X147913732Y-223540144D01*
X147972133Y-223583834D01*
X149884872Y-224978627D01*
X149936562Y-225013756D01*
X149987413Y-225050161D01*
X150048582Y-225089884D01*
X152049554Y-226354845D01*
X152103468Y-226386476D01*
X152156609Y-226419425D01*
X152220276Y-226455007D01*
X154300683Y-227584575D01*
X154356563Y-227612558D01*
X154411782Y-227641918D01*
X154477667Y-227673203D01*
X156628360Y-228662412D01*
X156686002Y-228686642D01*
X156743018Y-228712266D01*
X156810832Y-228739116D01*
X159022354Y-229583613D01*
X159081446Y-229603960D01*
X159140062Y-229625759D01*
X159209506Y-229648055D01*
X161472135Y-230344131D01*
X161532470Y-230360523D01*
X161592379Y-230378383D01*
X161663148Y-230396028D01*
X163966935Y-230940620D01*
X164028206Y-230952974D01*
X164089183Y-230966828D01*
X164160966Y-230979743D01*
X166495780Y-231370458D01*
X166557758Y-231378728D01*
X166619497Y-231388506D01*
X166691978Y-231396636D01*
X169047554Y-231631753D01*
X169109939Y-231635897D01*
X169172193Y-231641562D01*
X169245053Y-231644871D01*
X171514020Y-231720141D01*
X171563357Y-231725000D01*
X417716643Y-231725000D01*
X417734831Y-231723209D01*
X418478697Y-231714120D01*
X418509924Y-231712702D01*
X418541197Y-231712702D01*
X418614057Y-231709393D01*
X420977411Y-231573123D01*
X421039647Y-231567459D01*
X421102052Y-231563314D01*
X421174533Y-231555184D01*
X423523660Y-231262585D01*
X423585387Y-231252808D01*
X423647377Y-231244537D01*
X423719160Y-231231621D01*
X426043731Y-230783979D01*
X426104696Y-230770128D01*
X426165979Y-230757771D01*
X426236738Y-230740129D01*
X426236749Y-230740126D01*
X426236756Y-230740124D01*
X428526542Y-230139410D01*
X428586439Y-230121554D01*
X428646786Y-230105158D01*
X428716230Y-230082862D01*
X430961176Y-229331713D01*
X431019776Y-229309920D01*
X431078885Y-229289567D01*
X431146699Y-229262718D01*
X433336929Y-228364439D01*
X433393959Y-228338809D01*
X433451585Y-228314585D01*
X433517452Y-228283308D01*
X433517471Y-228283300D01*
X433517483Y-228283294D01*
X435643353Y-227241842D01*
X435698562Y-227212487D01*
X435754454Y-227184498D01*
X435818121Y-227148916D01*
X437870308Y-225968856D01*
X437923428Y-225935920D01*
X437977364Y-225904276D01*
X438038533Y-225864552D01*
X440008001Y-224551080D01*
X440058825Y-224514693D01*
X440110541Y-224479547D01*
X440168943Y-224435857D01*
X442047031Y-222994749D01*
X442095332Y-222955074D01*
X442144606Y-222916577D01*
X442199984Y-222869113D01*
X443978437Y-221306704D01*
X444024021Y-221263897D01*
X444070617Y-221222236D01*
X444122727Y-221171206D01*
X445793722Y-219494367D01*
X445836348Y-219448656D01*
X445880100Y-219403978D01*
X445928714Y-219349606D01*
X447484904Y-217565712D01*
X447524412Y-217517270D01*
X447565103Y-217469795D01*
X447610006Y-217412321D01*
X449044550Y-215529214D01*
X449080767Y-215478252D01*
X449118215Y-215428194D01*
X449159211Y-215367871D01*
X450465801Y-213393830D01*
X450498548Y-213340600D01*
X450532610Y-213288149D01*
X450569517Y-213225241D01*
X451742406Y-211168947D01*
X451771552Y-211113665D01*
X451802064Y-211059072D01*
X451834721Y-210993856D01*
X452868753Y-208864351D01*
X452894179Y-208807242D01*
X452920997Y-208750764D01*
X452949261Y-208683528D01*
X453839889Y-206490176D01*
X453861472Y-206431514D01*
X453884491Y-206373375D01*
X453908236Y-206304413D01*
X454651544Y-204056857D01*
X454669189Y-203996904D01*
X454688307Y-203937358D01*
X454707430Y-203866974D01*
X455300149Y-201575098D01*
X455313787Y-201514085D01*
X455328911Y-201453425D01*
X455343327Y-201381929D01*
X455782852Y-199055809D01*
X455792415Y-198994033D01*
X455803487Y-198932498D01*
X455813134Y-198860203D01*
X456097532Y-196510070D01*
X456102983Y-196447768D01*
X456109949Y-196385659D01*
X456114783Y-196312884D01*
X456242802Y-193949068D01*
X456244111Y-193886559D01*
X456246947Y-193824112D01*
X456246947Y-193751177D01*
X456218026Y-191384073D01*
X456215190Y-191321627D01*
X456213881Y-191259116D01*
X456209047Y-191186341D01*
X456023313Y-188826359D01*
X456016347Y-188764260D01*
X456010896Y-188701949D01*
X456001249Y-188629655D01*
X455659517Y-186287171D01*
X455648450Y-186225663D01*
X455638882Y-186163860D01*
X455624466Y-186092363D01*
X455128240Y-183777676D01*
X455113119Y-183717028D01*
X455099478Y-183656003D01*
X455080355Y-183585620D01*
X454431817Y-181308910D01*
X454412705Y-181249384D01*
X454395054Y-181189411D01*
X454371309Y-181120450D01*
X453573311Y-178891725D01*
X453550305Y-178833619D01*
X453528709Y-178774923D01*
X453500445Y-178707686D01*
X452556494Y-176536749D01*
X452529681Y-176480281D01*
X452504250Y-176423162D01*
X452471592Y-176357947D01*
X452471592Y-176357946D01*
X452471585Y-176357934D01*
X451385840Y-174254341D01*
X451355347Y-174199780D01*
X451326183Y-174144466D01*
X451289275Y-174081558D01*
X450066496Y-172054534D01*
X450032447Y-172002103D01*
X449999688Y-171948854D01*
X449958692Y-171888530D01*
X448604263Y-169947002D01*
X448566819Y-169896950D01*
X448530599Y-169845983D01*
X448485695Y-169788509D01*
X447005571Y-167941011D01*
X446964891Y-167893549D01*
X446925372Y-167845094D01*
X446876758Y-167790723D01*
X445277447Y-166045382D01*
X445233720Y-166000730D01*
X445191069Y-165954992D01*
X445138959Y-165903962D01*
X443427493Y-164268450D01*
X443380901Y-164226792D01*
X443335315Y-164183984D01*
X443279937Y-164136520D01*
X441463843Y-162618028D01*
X441414559Y-162579524D01*
X441366268Y-162539857D01*
X441307867Y-162496167D01*
X439395129Y-161101373D01*
X439343425Y-161066235D01*
X439292587Y-161029839D01*
X439231418Y-160990116D01*
X437230446Y-159725155D01*
X437176537Y-159693527D01*
X437123391Y-159660575D01*
X437059724Y-159624993D01*
X434979318Y-158495425D01*
X434923426Y-158467436D01*
X434868218Y-158438082D01*
X434802333Y-158406797D01*
X432651640Y-157417588D01*
X432593994Y-157393356D01*
X432536982Y-157367734D01*
X432469168Y-157340884D01*
X430257645Y-156496386D01*
X430198528Y-156476031D01*
X430139937Y-156454241D01*
X430070493Y-156431945D01*
X427807865Y-155735869D01*
X427747521Y-155719474D01*
X427687621Y-155701617D01*
X427616852Y-155683972D01*
X425313065Y-155139380D01*
X425251797Y-155127026D01*
X425190817Y-155113172D01*
X425119034Y-155100257D01*
X424444299Y-154987345D01*
X446965600Y-154987345D01*
X446965600Y-155959455D01*
X447155250Y-156912886D01*
X447527260Y-157810999D01*
X448067335Y-158619279D01*
X448754721Y-159306665D01*
X449563001Y-159846740D01*
X450461114Y-160218750D01*
X451414545Y-160408400D01*
X452386655Y-160408400D01*
X453340086Y-160218750D01*
X454238199Y-159846740D01*
X455046479Y-159306665D01*
X455733865Y-158619279D01*
X456273940Y-157810999D01*
X456645950Y-156912886D01*
X456835600Y-155959455D01*
X456835600Y-154987345D01*
X456645950Y-154033914D01*
X456273940Y-153135801D01*
X455733865Y-152327521D01*
X455527121Y-152120777D01*
X467065000Y-152120777D01*
X467065000Y-152679223D01*
X467173948Y-153226939D01*
X467387656Y-153742876D01*
X467697912Y-154207207D01*
X468092793Y-154602088D01*
X468557124Y-154912344D01*
X469073061Y-155126052D01*
X469620777Y-155235000D01*
X470179223Y-155235000D01*
X470726939Y-155126052D01*
X471242876Y-154912344D01*
X471707207Y-154602088D01*
X472102088Y-154207207D01*
X472412344Y-153742876D01*
X472626052Y-153226939D01*
X472735000Y-152679223D01*
X472735000Y-152120777D01*
X472626052Y-151573061D01*
X472412344Y-151057124D01*
X472102088Y-150592793D01*
X471707207Y-150197912D01*
X471242876Y-149887656D01*
X470726939Y-149673948D01*
X470179223Y-149565000D01*
X469620777Y-149565000D01*
X469073061Y-149673948D01*
X468557124Y-149887656D01*
X468092793Y-150197912D01*
X467697912Y-150592793D01*
X467387656Y-151057124D01*
X467173948Y-151573061D01*
X467065000Y-152120777D01*
X455527121Y-152120777D01*
X455046479Y-151640135D01*
X454238199Y-151100060D01*
X453340086Y-150728050D01*
X452386655Y-150538400D01*
X451414545Y-150538400D01*
X450461114Y-150728050D01*
X449563001Y-151100060D01*
X448754721Y-151640135D01*
X448067335Y-152327521D01*
X447527260Y-153135801D01*
X447155250Y-154033914D01*
X446965600Y-154987345D01*
X424444299Y-154987345D01*
X422784220Y-154709543D01*
X422722269Y-154701277D01*
X422660503Y-154691494D01*
X422588022Y-154683364D01*
X420232447Y-154448247D01*
X420170062Y-154444103D01*
X420107808Y-154438438D01*
X420034947Y-154435129D01*
X417765980Y-154359859D01*
X417716643Y-154355000D01*
X379262826Y-154355000D01*
X379293717Y-154324109D01*
X379179777Y-154210169D01*
X379567018Y-153970024D01*
X379827641Y-153476123D01*
X379986901Y-152940867D01*
X380038678Y-152384826D01*
X379980981Y-151829368D01*
X379816028Y-151295839D01*
X379567018Y-150829976D01*
X379179775Y-150589830D01*
X377369605Y-152400000D01*
X377383748Y-152414143D01*
X377204143Y-152593748D01*
X377190000Y-152579605D01*
X377175858Y-152593748D01*
X376996253Y-152414143D01*
X377010395Y-152400000D01*
X375200225Y-150589830D01*
X374812982Y-150829976D01*
X374552359Y-151323877D01*
X374393099Y-151859133D01*
X374341322Y-152415174D01*
X374399019Y-152970632D01*
X374563972Y-153504161D01*
X374812982Y-153970024D01*
X375200223Y-154210169D01*
X375086283Y-154324109D01*
X375117174Y-154355000D01*
X296694295Y-154355000D01*
X296842088Y-154207207D01*
X297152344Y-153742876D01*
X297366052Y-153226939D01*
X297475000Y-152679223D01*
X297475000Y-152120777D01*
X297366052Y-151573061D01*
X297152344Y-151057124D01*
X296842088Y-150592793D01*
X296659520Y-150410225D01*
X375379830Y-150410225D01*
X377190000Y-152220395D01*
X379000170Y-150410225D01*
X378760024Y-150022982D01*
X378266123Y-149762359D01*
X377730867Y-149603099D01*
X377174826Y-149551322D01*
X376619368Y-149609019D01*
X376085839Y-149773972D01*
X375619976Y-150022982D01*
X375379830Y-150410225D01*
X296659520Y-150410225D01*
X296447207Y-150197912D01*
X295982876Y-149887656D01*
X295466939Y-149673948D01*
X294919223Y-149565000D01*
X294360777Y-149565000D01*
X293813061Y-149673948D01*
X293297124Y-149887656D01*
X292832793Y-150197912D01*
X292437912Y-150592793D01*
X292127656Y-151057124D01*
X291913948Y-151573061D01*
X291805000Y-152120777D01*
X291805000Y-152679223D01*
X291913948Y-153226939D01*
X292127656Y-153742876D01*
X292437912Y-154207207D01*
X292585705Y-154355000D01*
X171563357Y-154355000D01*
X171545169Y-154356791D01*
X170801303Y-154365880D01*
X170770076Y-154367298D01*
X170738803Y-154367298D01*
X170665942Y-154370607D01*
X168302589Y-154506877D01*
X168240355Y-154512541D01*
X168177947Y-154516686D01*
X168105466Y-154524816D01*
X165756340Y-154817415D01*
X165694613Y-154827192D01*
X165632623Y-154835463D01*
X165560840Y-154848379D01*
X163236269Y-155296021D01*
X163175297Y-155309874D01*
X163114020Y-155322229D01*
X163043251Y-155339874D01*
X160753458Y-155940590D01*
X160693561Y-155958446D01*
X160633214Y-155974842D01*
X160563770Y-155997138D01*
X158318823Y-156748287D01*
X158260223Y-156770081D01*
X158201115Y-156790433D01*
X158133302Y-156817282D01*
X155943071Y-157715561D01*
X155886041Y-157741191D01*
X155828415Y-157765415D01*
X155762548Y-157796692D01*
X155762529Y-157796700D01*
X155762517Y-157796706D01*
X153636647Y-158838159D01*
X153581465Y-158867500D01*
X153525546Y-158895502D01*
X153461879Y-158931084D01*
X151409692Y-160111144D01*
X151356572Y-160144080D01*
X151302636Y-160175724D01*
X151241468Y-160215448D01*
X149271999Y-161528920D01*
X149221175Y-161565307D01*
X149169459Y-161600453D01*
X149111057Y-161644143D01*
X147232968Y-163085251D01*
X147184653Y-163124938D01*
X147135394Y-163163423D01*
X147080016Y-163210888D01*
X145301563Y-164773296D01*
X145255994Y-164816088D01*
X145209384Y-164857763D01*
X145157273Y-164908794D01*
X143486278Y-166585633D01*
X143443652Y-166631344D01*
X143399900Y-166676022D01*
X143351286Y-166730394D01*
X141795095Y-168514289D01*
X141755580Y-168562740D01*
X141714897Y-168610205D01*
X141669993Y-168667679D01*
X140235450Y-170550787D01*
X140199253Y-170601721D01*
X140161785Y-170651806D01*
X140120789Y-170712130D01*
X138814199Y-172686170D01*
X138781434Y-172739429D01*
X138747391Y-172791851D01*
X138710483Y-172854759D01*
X137537594Y-174911053D01*
X137508436Y-174966356D01*
X137477937Y-175020928D01*
X137445279Y-175086144D01*
X136411247Y-177215649D01*
X136385821Y-177272758D01*
X136359003Y-177329236D01*
X136330739Y-177396473D01*
X135440111Y-179589824D01*
X135418528Y-179648486D01*
X135395509Y-179706625D01*
X135371764Y-179775587D01*
X134628456Y-182023143D01*
X134610808Y-182083108D01*
X134591693Y-182142643D01*
X134572570Y-182213027D01*
X133979851Y-184504902D01*
X133966213Y-184565915D01*
X133951089Y-184626575D01*
X133936673Y-184698071D01*
X133497148Y-187024191D01*
X133487584Y-187085974D01*
X133476513Y-187147503D01*
X133466866Y-187219797D01*
X133182468Y-189569931D01*
X133177018Y-189632228D01*
X133170051Y-189694341D01*
X133165217Y-189767116D01*
X133037198Y-192130932D01*
X133035889Y-192193441D01*
X133033053Y-192255888D01*
X105435000Y-192255888D01*
X105435000Y-154987345D01*
X130735600Y-154987345D01*
X130735600Y-155959455D01*
X130925250Y-156912886D01*
X131297260Y-157810999D01*
X131837335Y-158619279D01*
X132524721Y-159306665D01*
X133333001Y-159846740D01*
X134231114Y-160218750D01*
X135184545Y-160408400D01*
X136156655Y-160408400D01*
X137110086Y-160218750D01*
X138008199Y-159846740D01*
X138816479Y-159306665D01*
X139503865Y-158619279D01*
X140043940Y-157810999D01*
X140415950Y-156912886D01*
X140605600Y-155959455D01*
X140605600Y-154987345D01*
X140415950Y-154033914D01*
X140043940Y-153135801D01*
X139503865Y-152327521D01*
X139297121Y-152120777D01*
X152105000Y-152120777D01*
X152105000Y-152679223D01*
X152213948Y-153226939D01*
X152427656Y-153742876D01*
X152737912Y-154207207D01*
X153132793Y-154602088D01*
X153597124Y-154912344D01*
X154113061Y-155126052D01*
X154660777Y-155235000D01*
X155219223Y-155235000D01*
X155766939Y-155126052D01*
X156282876Y-154912344D01*
X156747207Y-154602088D01*
X157142088Y-154207207D01*
X157452344Y-153742876D01*
X157666052Y-153226939D01*
X157775000Y-152679223D01*
X157775000Y-152120777D01*
X157666052Y-151573061D01*
X157452344Y-151057124D01*
X157142088Y-150592793D01*
X156747207Y-150197912D01*
X156282876Y-149887656D01*
X155766939Y-149673948D01*
X155219223Y-149565000D01*
X154660777Y-149565000D01*
X154113061Y-149673948D01*
X153597124Y-149887656D01*
X153132793Y-150197912D01*
X152737912Y-150592793D01*
X152427656Y-151057124D01*
X152213948Y-151573061D01*
X152105000Y-152120777D01*
X139297121Y-152120777D01*
X138816479Y-151640135D01*
X138008199Y-151100060D01*
X137110086Y-150728050D01*
X136156655Y-150538400D01*
X135184545Y-150538400D01*
X134231114Y-150728050D01*
X133333001Y-151100060D01*
X132524721Y-151640135D01*
X131837335Y-152327521D01*
X131297260Y-153135801D01*
X130925250Y-154033914D01*
X130735600Y-154987345D01*
X105435000Y-154987345D01*
X105435000Y-125609527D01*
X106385000Y-125609527D01*
X106385000Y-126167973D01*
X106493948Y-126715689D01*
X106707656Y-127231626D01*
X107017912Y-127695957D01*
X107412793Y-128090838D01*
X107877124Y-128401094D01*
X108393061Y-128614802D01*
X108940777Y-128723750D01*
X109499223Y-128723750D01*
X110046939Y-128614802D01*
X110562876Y-128401094D01*
X111027207Y-128090838D01*
X111422088Y-127695957D01*
X111732344Y-127231626D01*
X111946052Y-126715689D01*
X112055000Y-126167973D01*
X112055000Y-125609527D01*
X479288750Y-125609527D01*
X479288750Y-126167973D01*
X479397698Y-126715689D01*
X479611406Y-127231626D01*
X479921662Y-127695957D01*
X480316543Y-128090838D01*
X480780874Y-128401094D01*
X481296811Y-128614802D01*
X481844527Y-128723750D01*
X482402973Y-128723750D01*
X482950689Y-128614802D01*
X483466626Y-128401094D01*
X483930957Y-128090838D01*
X484325838Y-127695957D01*
X484636094Y-127231626D01*
X484849802Y-126715689D01*
X484958750Y-126167973D01*
X484958750Y-125609527D01*
X484849802Y-125061811D01*
X484636094Y-124545874D01*
X484325838Y-124081543D01*
X483930957Y-123686662D01*
X483466626Y-123376406D01*
X482950689Y-123162698D01*
X482402973Y-123053750D01*
X481844527Y-123053750D01*
X481296811Y-123162698D01*
X480780874Y-123376406D01*
X480316543Y-123686662D01*
X479921662Y-124081543D01*
X479611406Y-124545874D01*
X479397698Y-125061811D01*
X479288750Y-125609527D01*
X112055000Y-125609527D01*
X111946052Y-125061811D01*
X111732344Y-124545874D01*
X111422088Y-124081543D01*
X111027207Y-123686662D01*
X110562876Y-123376406D01*
X110046939Y-123162698D01*
X109499223Y-123053750D01*
X108940777Y-123053750D01*
X108393061Y-123162698D01*
X107877124Y-123376406D01*
X107412793Y-123686662D01*
X107017912Y-124081543D01*
X106707656Y-124545874D01*
X106493948Y-125061811D01*
X106385000Y-125609527D01*
X105435000Y-125609527D01*
X105435000Y-99257027D01*
X106385000Y-99257027D01*
X106385000Y-99815473D01*
X106493948Y-100363189D01*
X106707656Y-100879126D01*
X107017912Y-101343457D01*
X107412793Y-101738338D01*
X107877124Y-102048594D01*
X108393061Y-102262302D01*
X108940777Y-102371250D01*
X109499223Y-102371250D01*
X110046939Y-102262302D01*
X110562876Y-102048594D01*
X111027207Y-101738338D01*
X111422088Y-101343457D01*
X111732344Y-100879126D01*
X111946052Y-100363189D01*
X112055000Y-99815473D01*
X112055000Y-99532028D01*
X208620000Y-99532028D01*
X208620000Y-100090474D01*
X208728948Y-100638190D01*
X208942656Y-101154127D01*
X209252912Y-101618458D01*
X209647793Y-102013339D01*
X210112124Y-102323595D01*
X210628061Y-102537303D01*
X211175777Y-102646251D01*
X211734223Y-102646251D01*
X212281939Y-102537303D01*
X212797876Y-102323595D01*
X213262207Y-102013339D01*
X213657088Y-101618458D01*
X213967344Y-101154127D01*
X214181052Y-100638190D01*
X214290000Y-100090474D01*
X214290000Y-99532028D01*
X214235299Y-99257027D01*
X335620000Y-99257027D01*
X335620000Y-99815473D01*
X335728948Y-100363189D01*
X335942656Y-100879126D01*
X336252912Y-101343457D01*
X336647793Y-101738338D01*
X337112124Y-102048594D01*
X337628061Y-102262302D01*
X338175777Y-102371250D01*
X338734223Y-102371250D01*
X339281939Y-102262302D01*
X339797876Y-102048594D01*
X340262207Y-101738338D01*
X340657088Y-101343457D01*
X340967344Y-100879126D01*
X341181052Y-100363189D01*
X341290000Y-99815473D01*
X341290000Y-99257027D01*
X479288750Y-99257027D01*
X479288750Y-99815473D01*
X479397698Y-100363189D01*
X479611406Y-100879126D01*
X479921662Y-101343457D01*
X480316543Y-101738338D01*
X480780874Y-102048594D01*
X481296811Y-102262302D01*
X481844527Y-102371250D01*
X482402973Y-102371250D01*
X482950689Y-102262302D01*
X483466626Y-102048594D01*
X483930957Y-101738338D01*
X484325838Y-101343457D01*
X484636094Y-100879126D01*
X484849802Y-100363189D01*
X484958750Y-99815473D01*
X484958750Y-99257027D01*
X484849802Y-98709311D01*
X484636094Y-98193374D01*
X484325838Y-97729043D01*
X483930957Y-97334162D01*
X483466626Y-97023906D01*
X482950689Y-96810198D01*
X482402973Y-96701250D01*
X481844527Y-96701250D01*
X481296811Y-96810198D01*
X480780874Y-97023906D01*
X480316543Y-97334162D01*
X479921662Y-97729043D01*
X479611406Y-98193374D01*
X479397698Y-98709311D01*
X479288750Y-99257027D01*
X341290000Y-99257027D01*
X341181052Y-98709311D01*
X340967344Y-98193374D01*
X340657088Y-97729043D01*
X340262207Y-97334162D01*
X339797876Y-97023906D01*
X339281939Y-96810198D01*
X338734223Y-96701250D01*
X338175777Y-96701250D01*
X337628061Y-96810198D01*
X337112124Y-97023906D01*
X336647793Y-97334162D01*
X336252912Y-97729043D01*
X335942656Y-98193374D01*
X335728948Y-98709311D01*
X335620000Y-99257027D01*
X214235299Y-99257027D01*
X214181052Y-98984312D01*
X213967344Y-98468375D01*
X213657088Y-98004044D01*
X213262207Y-97609163D01*
X212797876Y-97298907D01*
X212281939Y-97085199D01*
X211734223Y-96976251D01*
X211175777Y-96976251D01*
X210628061Y-97085199D01*
X210112124Y-97298907D01*
X209647793Y-97609163D01*
X209252912Y-98004044D01*
X208942656Y-98468375D01*
X208728948Y-98984312D01*
X208620000Y-99532028D01*
X112055000Y-99532028D01*
X112055000Y-99257027D01*
X111946052Y-98709311D01*
X111732344Y-98193374D01*
X111422088Y-97729043D01*
X111027207Y-97334162D01*
X110562876Y-97023906D01*
X110046939Y-96810198D01*
X109499223Y-96701250D01*
X108940777Y-96701250D01*
X108393061Y-96810198D01*
X107877124Y-97023906D01*
X107412793Y-97334162D01*
X107017912Y-97729043D01*
X106707656Y-98193374D01*
X106493948Y-98709311D01*
X106385000Y-99257027D01*
X105435000Y-99257027D01*
X105435000Y-97187279D01*
X105473909Y-96790455D01*
X105579780Y-96439792D01*
X105751744Y-96116375D01*
X105983254Y-95832516D01*
X106265486Y-95599035D01*
X106587695Y-95424817D01*
X106937614Y-95316498D01*
X107332443Y-95275000D01*
X486377721Y-95275000D01*
X486774545Y-95313909D01*
G37*
X486774545Y-95313909D02*
X487125208Y-95419780D01*
X487448625Y-95591744D01*
X487732484Y-95823254D01*
X487965965Y-96105486D01*
X488140183Y-96427695D01*
X488248502Y-96777614D01*
X488290001Y-97172452D01*
X488290000Y-255872721D01*
X488251091Y-256269545D01*
X488145220Y-256620206D01*
X487973257Y-256943623D01*
X487741748Y-257227482D01*
X487459514Y-257460965D01*
X487137304Y-257635184D01*
X486787385Y-257743502D01*
X486392557Y-257785000D01*
X428592581Y-257785000D01*
X428584543Y-257785792D01*
X428391737Y-257790504D01*
X428384563Y-257791366D01*
X428377349Y-257791013D01*
X428313159Y-257797137D01*
X427477549Y-257918294D01*
X427447868Y-257925529D01*
X427417621Y-257929834D01*
X427355752Y-257947985D01*
X427355746Y-257947986D01*
X427355743Y-257947987D01*
X426558124Y-258224967D01*
X426530342Y-258237686D01*
X426501458Y-258247632D01*
X426444150Y-258277148D01*
X426444133Y-258277156D01*
X426444126Y-258277161D01*
X425713276Y-258699969D01*
X425688402Y-258717711D01*
X425661920Y-258732939D01*
X425611221Y-258772763D01*
X425611210Y-258772771D01*
X425611205Y-258772776D01*
X424973492Y-259326155D01*
X424952418Y-259348284D01*
X424929296Y-259368243D01*
X424887044Y-259416934D01*
X424887034Y-259416944D01*
X424887030Y-259416949D01*
X424365463Y-260080936D01*
X424348957Y-260106647D01*
X424330024Y-260130620D01*
X424297743Y-260186419D01*
X424297733Y-260186435D01*
X424297733Y-260186436D01*
X423911129Y-260937073D01*
X423899783Y-260965440D01*
X423885723Y-260992564D01*
X423864575Y-261053463D01*
X423864570Y-261053476D01*
X423864570Y-261053478D01*
X423626884Y-261863679D01*
X423621107Y-261893677D01*
X423612430Y-261922971D01*
X423603180Y-261986769D01*
X423603177Y-261986787D01*
X423603177Y-261986796D01*
X423522984Y-262827315D01*
X423448771Y-263605156D01*
X423246536Y-264294516D01*
X422917596Y-264933190D01*
X422473820Y-265498143D01*
X421931220Y-265968988D01*
X421309377Y-266328733D01*
X420630721Y-266564402D01*
X419896523Y-266670855D01*
X419726934Y-266675000D01*
X361981409Y-266675000D01*
X361234844Y-266603771D01*
X360545484Y-266401536D01*
X359906810Y-266072596D01*
X359341857Y-265628820D01*
X358871012Y-265086220D01*
X358511267Y-264464377D01*
X358275598Y-263785721D01*
X358169145Y-263051523D01*
X358164803Y-262873874D01*
X358159496Y-262656737D01*
X358158634Y-262649563D01*
X358158987Y-262642349D01*
X358152863Y-262578159D01*
X358031706Y-261742549D01*
X358024471Y-261712868D01*
X358020166Y-261682621D01*
X358002014Y-261620747D01*
X358002014Y-261620745D01*
X358002013Y-261620743D01*
X357725033Y-260823124D01*
X357712314Y-260795342D01*
X357702368Y-260766458D01*
X357672852Y-260709150D01*
X357672844Y-260709133D01*
X357672839Y-260709126D01*
X357250031Y-259978276D01*
X357232289Y-259953402D01*
X357217061Y-259926920D01*
X357177237Y-259876221D01*
X357177229Y-259876210D01*
X357177224Y-259876205D01*
X356623845Y-259238492D01*
X356601716Y-259217418D01*
X356581757Y-259194296D01*
X356533066Y-259152044D01*
X356533056Y-259152034D01*
X356533051Y-259152030D01*
X355869064Y-258630463D01*
X355843353Y-258613957D01*
X355819380Y-258595024D01*
X355763581Y-258562743D01*
X355763565Y-258562733D01*
X355763556Y-258562730D01*
X355012927Y-258176129D01*
X354984560Y-258164783D01*
X354957436Y-258150723D01*
X354896537Y-258129575D01*
X354896524Y-258129570D01*
X354896518Y-258129569D01*
X354086321Y-257891884D01*
X354056323Y-257886107D01*
X354027029Y-257877430D01*
X353963231Y-257868180D01*
X353963213Y-257868177D01*
X353963204Y-257868177D01*
X353123690Y-257788080D01*
X353092419Y-257785000D01*
X107347279Y-257785000D01*
X106950455Y-257746091D01*
X106599794Y-257640220D01*
X106276377Y-257468257D01*
X105992518Y-257236748D01*
X105759035Y-256954514D01*
X105584816Y-256632304D01*
X105476498Y-256282385D01*
X105435000Y-255887557D01*
X105435000Y-247370777D01*
X422615000Y-247370777D01*
X422615000Y-247929223D01*
X422723948Y-248476939D01*
X422937656Y-248992876D01*
X423247912Y-249457207D01*
X423642793Y-249852088D01*
X424107124Y-250162344D01*
X424623061Y-250376052D01*
X425170777Y-250485000D01*
X425729223Y-250485000D01*
X426276939Y-250376052D01*
X426792876Y-250162344D01*
X427257207Y-249852088D01*
X427652088Y-249457207D01*
X427962344Y-248992876D01*
X428176052Y-248476939D01*
X428285000Y-247929223D01*
X428285000Y-247370777D01*
X428176052Y-246823061D01*
X427962344Y-246307124D01*
X427652088Y-245842793D01*
X427257207Y-245447912D01*
X426792876Y-245137656D01*
X426276939Y-244923948D01*
X425729223Y-244815000D01*
X425170777Y-244815000D01*
X424623061Y-244923948D01*
X424107124Y-245137656D01*
X423642793Y-245447912D01*
X423247912Y-245842793D01*
X422937656Y-246307124D01*
X422723948Y-246823061D01*
X422615000Y-247370777D01*
X105435000Y-247370777D01*
X105435000Y-244148887D01*
X254654595Y-244148887D01*
X254654595Y-244707333D01*
X254763543Y-245255049D01*
X254977251Y-245770986D01*
X255287507Y-246235317D01*
X255682388Y-246630198D01*
X256146719Y-246940454D01*
X256662656Y-247154162D01*
X257210372Y-247263110D01*
X257768818Y-247263110D01*
X258316534Y-247154162D01*
X258832471Y-246940454D01*
X259296802Y-246630198D01*
X259691683Y-246235317D01*
X260001939Y-245770986D01*
X260215647Y-245255049D01*
X260324595Y-244707333D01*
X260324595Y-244148887D01*
X260215647Y-243601171D01*
X260001939Y-243085234D01*
X259691683Y-242620903D01*
X259296802Y-242226022D01*
X258832471Y-241915766D01*
X258316534Y-241702058D01*
X257768818Y-241593110D01*
X257210372Y-241593110D01*
X256662656Y-241702058D01*
X256146719Y-241915766D01*
X255682388Y-242226022D01*
X255287507Y-242620903D01*
X254977251Y-243085234D01*
X254763543Y-243601171D01*
X254654595Y-244148887D01*
X105435000Y-244148887D01*
X105435000Y-228320777D01*
X143215000Y-228320777D01*
X143215000Y-228879223D01*
X143323948Y-229426939D01*
X143537656Y-229942876D01*
X143847912Y-230407207D01*
X144242793Y-230802088D01*
X144707124Y-231112344D01*
X145223061Y-231326052D01*
X145770777Y-231435000D01*
X146329223Y-231435000D01*
X146876939Y-231326052D01*
X147392876Y-231112344D01*
X147857207Y-230802088D01*
X148252088Y-230407207D01*
X148562344Y-229942876D01*
X148776052Y-229426939D01*
X148885000Y-228879223D01*
X148885000Y-228320777D01*
X148776052Y-227773061D01*
X148562344Y-227257124D01*
X148252088Y-226792793D01*
X147857207Y-226397912D01*
X147392876Y-226087656D01*
X146876939Y-225873948D01*
X146329223Y-225765000D01*
X145770777Y-225765000D01*
X145223061Y-225873948D01*
X144707124Y-226087656D01*
X144242793Y-226397912D01*
X143847912Y-226792793D01*
X143537656Y-227257124D01*
X143323948Y-227773061D01*
X143215000Y-228320777D01*
X105435000Y-228320777D01*
X105435000Y-192255888D01*
X133033053Y-192255888D01*
X133033053Y-192328824D01*
X133061974Y-194695927D01*
X133064810Y-194758373D01*
X133066119Y-194820884D01*
X133070953Y-194893659D01*
X133256687Y-197253640D01*
X133263653Y-197315739D01*
X133269104Y-197378050D01*
X133278751Y-197450345D01*
X133620483Y-199792828D01*
X133631549Y-199854332D01*
X133641118Y-199916140D01*
X133655534Y-199987637D01*
X134151760Y-202302323D01*
X134166881Y-202362968D01*
X134180522Y-202423996D01*
X134199645Y-202494380D01*
X134848183Y-204771090D01*
X134867298Y-204830627D01*
X134884946Y-204890588D01*
X134908691Y-204959550D01*
X135706689Y-207188275D01*
X135729695Y-207246381D01*
X135751291Y-207305077D01*
X135779555Y-207372314D01*
X136723506Y-209543251D01*
X136750324Y-209599729D01*
X136775750Y-209656837D01*
X136808399Y-209722035D01*
X136808408Y-209722054D01*
X136808415Y-209722066D01*
X137894159Y-211825659D01*
X137924665Y-211880242D01*
X137953817Y-211935534D01*
X137990725Y-211998442D01*
X139213504Y-214025466D01*
X139247549Y-214077891D01*
X139280312Y-214131146D01*
X139321308Y-214191470D01*
X140675737Y-216132998D01*
X140713179Y-216183048D01*
X140749401Y-216234017D01*
X140794305Y-216291491D01*
X142274428Y-218138988D01*
X142315111Y-218186454D01*
X142354628Y-218234906D01*
X142403242Y-218289277D01*
X144002552Y-220034618D01*
X144046293Y-220079285D01*
X144088931Y-220125008D01*
X144141041Y-220176038D01*
X145852507Y-221811550D01*
X145899114Y-221853221D01*
X145944686Y-221896016D01*
X146000063Y-221943481D01*
X147816158Y-223461972D01*
X147865418Y-223500458D01*
X147913732Y-223540144D01*
X147972133Y-223583834D01*
X149884872Y-224978627D01*
X149936562Y-225013756D01*
X149987413Y-225050161D01*
X150048582Y-225089884D01*
X152049554Y-226354845D01*
X152103468Y-226386476D01*
X152156609Y-226419425D01*
X152220276Y-226455007D01*
X154300683Y-227584575D01*
X154356563Y-227612558D01*
X154411782Y-227641918D01*
X154477667Y-227673203D01*
X156628360Y-228662412D01*
X156686002Y-228686642D01*
X156743018Y-228712266D01*
X156810832Y-228739116D01*
X159022354Y-229583613D01*
X159081446Y-229603960D01*
X159140062Y-229625759D01*
X159209506Y-229648055D01*
X161472135Y-230344131D01*
X161532470Y-230360523D01*
X161592379Y-230378383D01*
X161663148Y-230396028D01*
X163966935Y-230940620D01*
X164028206Y-230952974D01*
X164089183Y-230966828D01*
X164160966Y-230979743D01*
X166495780Y-231370458D01*
X166557758Y-231378728D01*
X166619497Y-231388506D01*
X166691978Y-231396636D01*
X169047554Y-231631753D01*
X169109939Y-231635897D01*
X169172193Y-231641562D01*
X169245053Y-231644871D01*
X171514020Y-231720141D01*
X171563357Y-231725000D01*
X417716643Y-231725000D01*
X417734831Y-231723209D01*
X418478697Y-231714120D01*
X418509924Y-231712702D01*
X418541197Y-231712702D01*
X418614057Y-231709393D01*
X420977411Y-231573123D01*
X421039647Y-231567459D01*
X421102052Y-231563314D01*
X421174533Y-231555184D01*
X423523660Y-231262585D01*
X423585387Y-231252808D01*
X423647377Y-231244537D01*
X423719160Y-231231621D01*
X426043731Y-230783979D01*
X426104696Y-230770128D01*
X426165979Y-230757771D01*
X426236738Y-230740129D01*
X426236749Y-230740126D01*
X426236756Y-230740124D01*
X428526542Y-230139410D01*
X428586439Y-230121554D01*
X428646786Y-230105158D01*
X428716230Y-230082862D01*
X430961176Y-229331713D01*
X431019776Y-229309920D01*
X431078885Y-229289567D01*
X431146699Y-229262718D01*
X433336929Y-228364439D01*
X433393959Y-228338809D01*
X433451585Y-228314585D01*
X433517452Y-228283308D01*
X433517471Y-228283300D01*
X433517483Y-228283294D01*
X435643353Y-227241842D01*
X435698562Y-227212487D01*
X435754454Y-227184498D01*
X435818121Y-227148916D01*
X437870308Y-225968856D01*
X437923428Y-225935920D01*
X437977364Y-225904276D01*
X438038533Y-225864552D01*
X440008001Y-224551080D01*
X440058825Y-224514693D01*
X440110541Y-224479547D01*
X440168943Y-224435857D01*
X442047031Y-222994749D01*
X442095332Y-222955074D01*
X442144606Y-222916577D01*
X442199984Y-222869113D01*
X443978437Y-221306704D01*
X444024021Y-221263897D01*
X444070617Y-221222236D01*
X444122727Y-221171206D01*
X445793722Y-219494367D01*
X445836348Y-219448656D01*
X445880100Y-219403978D01*
X445928714Y-219349606D01*
X447484904Y-217565712D01*
X447524412Y-217517270D01*
X447565103Y-217469795D01*
X447610006Y-217412321D01*
X449044550Y-215529214D01*
X449080767Y-215478252D01*
X449118215Y-215428194D01*
X449159211Y-215367871D01*
X450465801Y-213393830D01*
X450498548Y-213340600D01*
X450532610Y-213288149D01*
X450569517Y-213225241D01*
X451742406Y-211168947D01*
X451771552Y-211113665D01*
X451802064Y-211059072D01*
X451834721Y-210993856D01*
X452868753Y-208864351D01*
X452894179Y-208807242D01*
X452920997Y-208750764D01*
X452949261Y-208683528D01*
X453839889Y-206490176D01*
X453861472Y-206431514D01*
X453884491Y-206373375D01*
X453908236Y-206304413D01*
X454651544Y-204056857D01*
X454669189Y-203996904D01*
X454688307Y-203937358D01*
X454707430Y-203866974D01*
X455300149Y-201575098D01*
X455313787Y-201514085D01*
X455328911Y-201453425D01*
X455343327Y-201381929D01*
X455782852Y-199055809D01*
X455792415Y-198994033D01*
X455803487Y-198932498D01*
X455813134Y-198860203D01*
X456097532Y-196510070D01*
X456102983Y-196447768D01*
X456109949Y-196385659D01*
X456114783Y-196312884D01*
X456242802Y-193949068D01*
X456244111Y-193886559D01*
X456246947Y-193824112D01*
X456246947Y-193751177D01*
X456218026Y-191384073D01*
X456215190Y-191321627D01*
X456213881Y-191259116D01*
X456209047Y-191186341D01*
X456023313Y-188826359D01*
X456016347Y-188764260D01*
X456010896Y-188701949D01*
X456001249Y-188629655D01*
X455659517Y-186287171D01*
X455648450Y-186225663D01*
X455638882Y-186163860D01*
X455624466Y-186092363D01*
X455128240Y-183777676D01*
X455113119Y-183717028D01*
X455099478Y-183656003D01*
X455080355Y-183585620D01*
X454431817Y-181308910D01*
X454412705Y-181249384D01*
X454395054Y-181189411D01*
X454371309Y-181120450D01*
X453573311Y-178891725D01*
X453550305Y-178833619D01*
X453528709Y-178774923D01*
X453500445Y-178707686D01*
X452556494Y-176536749D01*
X452529681Y-176480281D01*
X452504250Y-176423162D01*
X452471592Y-176357947D01*
X452471592Y-176357946D01*
X452471585Y-176357934D01*
X451385840Y-174254341D01*
X451355347Y-174199780D01*
X451326183Y-174144466D01*
X451289275Y-174081558D01*
X450066496Y-172054534D01*
X450032447Y-172002103D01*
X449999688Y-171948854D01*
X449958692Y-171888530D01*
X448604263Y-169947002D01*
X448566819Y-169896950D01*
X448530599Y-169845983D01*
X448485695Y-169788509D01*
X447005571Y-167941011D01*
X446964891Y-167893549D01*
X446925372Y-167845094D01*
X446876758Y-167790723D01*
X445277447Y-166045382D01*
X445233720Y-166000730D01*
X445191069Y-165954992D01*
X445138959Y-165903962D01*
X443427493Y-164268450D01*
X443380901Y-164226792D01*
X443335315Y-164183984D01*
X443279937Y-164136520D01*
X441463843Y-162618028D01*
X441414559Y-162579524D01*
X441366268Y-162539857D01*
X441307867Y-162496167D01*
X439395129Y-161101373D01*
X439343425Y-161066235D01*
X439292587Y-161029839D01*
X439231418Y-160990116D01*
X437230446Y-159725155D01*
X437176537Y-159693527D01*
X437123391Y-159660575D01*
X437059724Y-159624993D01*
X434979318Y-158495425D01*
X434923426Y-158467436D01*
X434868218Y-158438082D01*
X434802333Y-158406797D01*
X432651640Y-157417588D01*
X432593994Y-157393356D01*
X432536982Y-157367734D01*
X432469168Y-157340884D01*
X430257645Y-156496386D01*
X430198528Y-156476031D01*
X430139937Y-156454241D01*
X430070493Y-156431945D01*
X427807865Y-155735869D01*
X427747521Y-155719474D01*
X427687621Y-155701617D01*
X427616852Y-155683972D01*
X425313065Y-155139380D01*
X425251797Y-155127026D01*
X425190817Y-155113172D01*
X425119034Y-155100257D01*
X424444299Y-154987345D01*
X446965600Y-154987345D01*
X446965600Y-155959455D01*
X447155250Y-156912886D01*
X447527260Y-157810999D01*
X448067335Y-158619279D01*
X448754721Y-159306665D01*
X449563001Y-159846740D01*
X450461114Y-160218750D01*
X451414545Y-160408400D01*
X452386655Y-160408400D01*
X453340086Y-160218750D01*
X454238199Y-159846740D01*
X455046479Y-159306665D01*
X455733865Y-158619279D01*
X456273940Y-157810999D01*
X456645950Y-156912886D01*
X456835600Y-155959455D01*
X456835600Y-154987345D01*
X456645950Y-154033914D01*
X456273940Y-153135801D01*
X455733865Y-152327521D01*
X455527121Y-152120777D01*
X467065000Y-152120777D01*
X467065000Y-152679223D01*
X467173948Y-153226939D01*
X467387656Y-153742876D01*
X467697912Y-154207207D01*
X468092793Y-154602088D01*
X468557124Y-154912344D01*
X469073061Y-155126052D01*
X469620777Y-155235000D01*
X470179223Y-155235000D01*
X470726939Y-155126052D01*
X471242876Y-154912344D01*
X471707207Y-154602088D01*
X472102088Y-154207207D01*
X472412344Y-153742876D01*
X472626052Y-153226939D01*
X472735000Y-152679223D01*
X472735000Y-152120777D01*
X472626052Y-151573061D01*
X472412344Y-151057124D01*
X472102088Y-150592793D01*
X471707207Y-150197912D01*
X471242876Y-149887656D01*
X470726939Y-149673948D01*
X470179223Y-149565000D01*
X469620777Y-149565000D01*
X469073061Y-149673948D01*
X468557124Y-149887656D01*
X468092793Y-150197912D01*
X467697912Y-150592793D01*
X467387656Y-151057124D01*
X467173948Y-151573061D01*
X467065000Y-152120777D01*
X455527121Y-152120777D01*
X455046479Y-151640135D01*
X454238199Y-151100060D01*
X453340086Y-150728050D01*
X452386655Y-150538400D01*
X451414545Y-150538400D01*
X450461114Y-150728050D01*
X449563001Y-151100060D01*
X448754721Y-151640135D01*
X448067335Y-152327521D01*
X447527260Y-153135801D01*
X447155250Y-154033914D01*
X446965600Y-154987345D01*
X424444299Y-154987345D01*
X422784220Y-154709543D01*
X422722269Y-154701277D01*
X422660503Y-154691494D01*
X422588022Y-154683364D01*
X420232447Y-154448247D01*
X420170062Y-154444103D01*
X420107808Y-154438438D01*
X420034947Y-154435129D01*
X417765980Y-154359859D01*
X417716643Y-154355000D01*
X379262826Y-154355000D01*
X379293717Y-154324109D01*
X379179777Y-154210169D01*
X379567018Y-153970024D01*
X379827641Y-153476123D01*
X379986901Y-152940867D01*
X380038678Y-152384826D01*
X379980981Y-151829368D01*
X379816028Y-151295839D01*
X379567018Y-150829976D01*
X379179775Y-150589830D01*
X377369605Y-152400000D01*
X377383748Y-152414143D01*
X377204143Y-152593748D01*
X377190000Y-152579605D01*
X377175858Y-152593748D01*
X376996253Y-152414143D01*
X377010395Y-152400000D01*
X375200225Y-150589830D01*
X374812982Y-150829976D01*
X374552359Y-151323877D01*
X374393099Y-151859133D01*
X374341322Y-152415174D01*
X374399019Y-152970632D01*
X374563972Y-153504161D01*
X374812982Y-153970024D01*
X375200223Y-154210169D01*
X375086283Y-154324109D01*
X375117174Y-154355000D01*
X296694295Y-154355000D01*
X296842088Y-154207207D01*
X297152344Y-153742876D01*
X297366052Y-153226939D01*
X297475000Y-152679223D01*
X297475000Y-152120777D01*
X297366052Y-151573061D01*
X297152344Y-151057124D01*
X296842088Y-150592793D01*
X296659520Y-150410225D01*
X375379830Y-150410225D01*
X377190000Y-152220395D01*
X379000170Y-150410225D01*
X378760024Y-150022982D01*
X378266123Y-149762359D01*
X377730867Y-149603099D01*
X377174826Y-149551322D01*
X376619368Y-149609019D01*
X376085839Y-149773972D01*
X375619976Y-150022982D01*
X375379830Y-150410225D01*
X296659520Y-150410225D01*
X296447207Y-150197912D01*
X295982876Y-149887656D01*
X295466939Y-149673948D01*
X294919223Y-149565000D01*
X294360777Y-149565000D01*
X293813061Y-149673948D01*
X293297124Y-149887656D01*
X292832793Y-150197912D01*
X292437912Y-150592793D01*
X292127656Y-151057124D01*
X291913948Y-151573061D01*
X291805000Y-152120777D01*
X291805000Y-152679223D01*
X291913948Y-153226939D01*
X292127656Y-153742876D01*
X292437912Y-154207207D01*
X292585705Y-154355000D01*
X171563357Y-154355000D01*
X171545169Y-154356791D01*
X170801303Y-154365880D01*
X170770076Y-154367298D01*
X170738803Y-154367298D01*
X170665942Y-154370607D01*
X168302589Y-154506877D01*
X168240355Y-154512541D01*
X168177947Y-154516686D01*
X168105466Y-154524816D01*
X165756340Y-154817415D01*
X165694613Y-154827192D01*
X165632623Y-154835463D01*
X165560840Y-154848379D01*
X163236269Y-155296021D01*
X163175297Y-155309874D01*
X163114020Y-155322229D01*
X163043251Y-155339874D01*
X160753458Y-155940590D01*
X160693561Y-155958446D01*
X160633214Y-155974842D01*
X160563770Y-155997138D01*
X158318823Y-156748287D01*
X158260223Y-156770081D01*
X158201115Y-156790433D01*
X158133302Y-156817282D01*
X155943071Y-157715561D01*
X155886041Y-157741191D01*
X155828415Y-157765415D01*
X155762548Y-157796692D01*
X155762529Y-157796700D01*
X155762517Y-157796706D01*
X153636647Y-158838159D01*
X153581465Y-158867500D01*
X153525546Y-158895502D01*
X153461879Y-158931084D01*
X151409692Y-160111144D01*
X151356572Y-160144080D01*
X151302636Y-160175724D01*
X151241468Y-160215448D01*
X149271999Y-161528920D01*
X149221175Y-161565307D01*
X149169459Y-161600453D01*
X149111057Y-161644143D01*
X147232968Y-163085251D01*
X147184653Y-163124938D01*
X147135394Y-163163423D01*
X147080016Y-163210888D01*
X145301563Y-164773296D01*
X145255994Y-164816088D01*
X145209384Y-164857763D01*
X145157273Y-164908794D01*
X143486278Y-166585633D01*
X143443652Y-166631344D01*
X143399900Y-166676022D01*
X143351286Y-166730394D01*
X141795095Y-168514289D01*
X141755580Y-168562740D01*
X141714897Y-168610205D01*
X141669993Y-168667679D01*
X140235450Y-170550787D01*
X140199253Y-170601721D01*
X140161785Y-170651806D01*
X140120789Y-170712130D01*
X138814199Y-172686170D01*
X138781434Y-172739429D01*
X138747391Y-172791851D01*
X138710483Y-172854759D01*
X137537594Y-174911053D01*
X137508436Y-174966356D01*
X137477937Y-175020928D01*
X137445279Y-175086144D01*
X136411247Y-177215649D01*
X136385821Y-177272758D01*
X136359003Y-177329236D01*
X136330739Y-177396473D01*
X135440111Y-179589824D01*
X135418528Y-179648486D01*
X135395509Y-179706625D01*
X135371764Y-179775587D01*
X134628456Y-182023143D01*
X134610808Y-182083108D01*
X134591693Y-182142643D01*
X134572570Y-182213027D01*
X133979851Y-184504902D01*
X133966213Y-184565915D01*
X133951089Y-184626575D01*
X133936673Y-184698071D01*
X133497148Y-187024191D01*
X133487584Y-187085974D01*
X133476513Y-187147503D01*
X133466866Y-187219797D01*
X133182468Y-189569931D01*
X133177018Y-189632228D01*
X133170051Y-189694341D01*
X133165217Y-189767116D01*
X133037198Y-192130932D01*
X133035889Y-192193441D01*
X133033053Y-192255888D01*
X105435000Y-192255888D01*
X105435000Y-154987345D01*
X130735600Y-154987345D01*
X130735600Y-155959455D01*
X130925250Y-156912886D01*
X131297260Y-157810999D01*
X131837335Y-158619279D01*
X132524721Y-159306665D01*
X133333001Y-159846740D01*
X134231114Y-160218750D01*
X135184545Y-160408400D01*
X136156655Y-160408400D01*
X137110086Y-160218750D01*
X138008199Y-159846740D01*
X138816479Y-159306665D01*
X139503865Y-158619279D01*
X140043940Y-157810999D01*
X140415950Y-156912886D01*
X140605600Y-155959455D01*
X140605600Y-154987345D01*
X140415950Y-154033914D01*
X140043940Y-153135801D01*
X139503865Y-152327521D01*
X139297121Y-152120777D01*
X152105000Y-152120777D01*
X152105000Y-152679223D01*
X152213948Y-153226939D01*
X152427656Y-153742876D01*
X152737912Y-154207207D01*
X153132793Y-154602088D01*
X153597124Y-154912344D01*
X154113061Y-155126052D01*
X154660777Y-155235000D01*
X155219223Y-155235000D01*
X155766939Y-155126052D01*
X156282876Y-154912344D01*
X156747207Y-154602088D01*
X157142088Y-154207207D01*
X157452344Y-153742876D01*
X157666052Y-153226939D01*
X157775000Y-152679223D01*
X157775000Y-152120777D01*
X157666052Y-151573061D01*
X157452344Y-151057124D01*
X157142088Y-150592793D01*
X156747207Y-150197912D01*
X156282876Y-149887656D01*
X155766939Y-149673948D01*
X155219223Y-149565000D01*
X154660777Y-149565000D01*
X154113061Y-149673948D01*
X153597124Y-149887656D01*
X153132793Y-150197912D01*
X152737912Y-150592793D01*
X152427656Y-151057124D01*
X152213948Y-151573061D01*
X152105000Y-152120777D01*
X139297121Y-152120777D01*
X138816479Y-151640135D01*
X138008199Y-151100060D01*
X137110086Y-150728050D01*
X136156655Y-150538400D01*
X135184545Y-150538400D01*
X134231114Y-150728050D01*
X133333001Y-151100060D01*
X132524721Y-151640135D01*
X131837335Y-152327521D01*
X131297260Y-153135801D01*
X130925250Y-154033914D01*
X130735600Y-154987345D01*
X105435000Y-154987345D01*
X105435000Y-125609527D01*
X106385000Y-125609527D01*
X106385000Y-126167973D01*
X106493948Y-126715689D01*
X106707656Y-127231626D01*
X107017912Y-127695957D01*
X107412793Y-128090838D01*
X107877124Y-128401094D01*
X108393061Y-128614802D01*
X108940777Y-128723750D01*
X109499223Y-128723750D01*
X110046939Y-128614802D01*
X110562876Y-128401094D01*
X111027207Y-128090838D01*
X111422088Y-127695957D01*
X111732344Y-127231626D01*
X111946052Y-126715689D01*
X112055000Y-126167973D01*
X112055000Y-125609527D01*
X479288750Y-125609527D01*
X479288750Y-126167973D01*
X479397698Y-126715689D01*
X479611406Y-127231626D01*
X479921662Y-127695957D01*
X480316543Y-128090838D01*
X480780874Y-128401094D01*
X481296811Y-128614802D01*
X481844527Y-128723750D01*
X482402973Y-128723750D01*
X482950689Y-128614802D01*
X483466626Y-128401094D01*
X483930957Y-128090838D01*
X484325838Y-127695957D01*
X484636094Y-127231626D01*
X484849802Y-126715689D01*
X484958750Y-126167973D01*
X484958750Y-125609527D01*
X484849802Y-125061811D01*
X484636094Y-124545874D01*
X484325838Y-124081543D01*
X483930957Y-123686662D01*
X483466626Y-123376406D01*
X482950689Y-123162698D01*
X482402973Y-123053750D01*
X481844527Y-123053750D01*
X481296811Y-123162698D01*
X480780874Y-123376406D01*
X480316543Y-123686662D01*
X479921662Y-124081543D01*
X479611406Y-124545874D01*
X479397698Y-125061811D01*
X479288750Y-125609527D01*
X112055000Y-125609527D01*
X111946052Y-125061811D01*
X111732344Y-124545874D01*
X111422088Y-124081543D01*
X111027207Y-123686662D01*
X110562876Y-123376406D01*
X110046939Y-123162698D01*
X109499223Y-123053750D01*
X108940777Y-123053750D01*
X108393061Y-123162698D01*
X107877124Y-123376406D01*
X107412793Y-123686662D01*
X107017912Y-124081543D01*
X106707656Y-124545874D01*
X106493948Y-125061811D01*
X106385000Y-125609527D01*
X105435000Y-125609527D01*
X105435000Y-99257027D01*
X106385000Y-99257027D01*
X106385000Y-99815473D01*
X106493948Y-100363189D01*
X106707656Y-100879126D01*
X107017912Y-101343457D01*
X107412793Y-101738338D01*
X107877124Y-102048594D01*
X108393061Y-102262302D01*
X108940777Y-102371250D01*
X109499223Y-102371250D01*
X110046939Y-102262302D01*
X110562876Y-102048594D01*
X111027207Y-101738338D01*
X111422088Y-101343457D01*
X111732344Y-100879126D01*
X111946052Y-100363189D01*
X112055000Y-99815473D01*
X112055000Y-99532028D01*
X208620000Y-99532028D01*
X208620000Y-100090474D01*
X208728948Y-100638190D01*
X208942656Y-101154127D01*
X209252912Y-101618458D01*
X209647793Y-102013339D01*
X210112124Y-102323595D01*
X210628061Y-102537303D01*
X211175777Y-102646251D01*
X211734223Y-102646251D01*
X212281939Y-102537303D01*
X212797876Y-102323595D01*
X213262207Y-102013339D01*
X213657088Y-101618458D01*
X213967344Y-101154127D01*
X214181052Y-100638190D01*
X214290000Y-100090474D01*
X214290000Y-99532028D01*
X214235299Y-99257027D01*
X335620000Y-99257027D01*
X335620000Y-99815473D01*
X335728948Y-100363189D01*
X335942656Y-100879126D01*
X336252912Y-101343457D01*
X336647793Y-101738338D01*
X337112124Y-102048594D01*
X337628061Y-102262302D01*
X338175777Y-102371250D01*
X338734223Y-102371250D01*
X339281939Y-102262302D01*
X339797876Y-102048594D01*
X340262207Y-101738338D01*
X340657088Y-101343457D01*
X340967344Y-100879126D01*
X341181052Y-100363189D01*
X341290000Y-99815473D01*
X341290000Y-99257027D01*
X479288750Y-99257027D01*
X479288750Y-99815473D01*
X479397698Y-100363189D01*
X479611406Y-100879126D01*
X479921662Y-101343457D01*
X480316543Y-101738338D01*
X480780874Y-102048594D01*
X481296811Y-102262302D01*
X481844527Y-102371250D01*
X482402973Y-102371250D01*
X482950689Y-102262302D01*
X483466626Y-102048594D01*
X483930957Y-101738338D01*
X484325838Y-101343457D01*
X484636094Y-100879126D01*
X484849802Y-100363189D01*
X484958750Y-99815473D01*
X484958750Y-99257027D01*
X484849802Y-98709311D01*
X484636094Y-98193374D01*
X484325838Y-97729043D01*
X483930957Y-97334162D01*
X483466626Y-97023906D01*
X482950689Y-96810198D01*
X482402973Y-96701250D01*
X481844527Y-96701250D01*
X481296811Y-96810198D01*
X480780874Y-97023906D01*
X480316543Y-97334162D01*
X479921662Y-97729043D01*
X479611406Y-98193374D01*
X479397698Y-98709311D01*
X479288750Y-99257027D01*
X341290000Y-99257027D01*
X341181052Y-98709311D01*
X340967344Y-98193374D01*
X340657088Y-97729043D01*
X340262207Y-97334162D01*
X339797876Y-97023906D01*
X339281939Y-96810198D01*
X338734223Y-96701250D01*
X338175777Y-96701250D01*
X337628061Y-96810198D01*
X337112124Y-97023906D01*
X336647793Y-97334162D01*
X336252912Y-97729043D01*
X335942656Y-98193374D01*
X335728948Y-98709311D01*
X335620000Y-99257027D01*
X214235299Y-99257027D01*
X214181052Y-98984312D01*
X213967344Y-98468375D01*
X213657088Y-98004044D01*
X213262207Y-97609163D01*
X212797876Y-97298907D01*
X212281939Y-97085199D01*
X211734223Y-96976251D01*
X211175777Y-96976251D01*
X210628061Y-97085199D01*
X210112124Y-97298907D01*
X209647793Y-97609163D01*
X209252912Y-98004044D01*
X208942656Y-98468375D01*
X208728948Y-98984312D01*
X208620000Y-99532028D01*
X112055000Y-99532028D01*
X112055000Y-99257027D01*
X111946052Y-98709311D01*
X111732344Y-98193374D01*
X111422088Y-97729043D01*
X111027207Y-97334162D01*
X110562876Y-97023906D01*
X110046939Y-96810198D01*
X109499223Y-96701250D01*
X108940777Y-96701250D01*
X108393061Y-96810198D01*
X107877124Y-97023906D01*
X107412793Y-97334162D01*
X107017912Y-97729043D01*
X106707656Y-98193374D01*
X106493948Y-98709311D01*
X106385000Y-99257027D01*
X105435000Y-99257027D01*
X105435000Y-97187279D01*
X105473909Y-96790455D01*
X105579780Y-96439792D01*
X105751744Y-96116375D01*
X105983254Y-95832516D01*
X106265486Y-95599035D01*
X106587695Y-95424817D01*
X106937614Y-95316498D01*
X107332443Y-95275000D01*
X486377721Y-95275000D01*
X486774545Y-95313909D01*
%TD*%
M02*
