%TF.GenerationSoftware,KiCad,Pcbnew,(5.1.6)-1*%
%TF.CreationDate,2020-06-23T22:59:26-07:00*%
%TF.ProjectId,factorium-bottom,66616374-6f72-4697-956d-2d626f74746f,rev?*%
%TF.SameCoordinates,Original*%
%TF.FileFunction,Copper,L1,Top*%
%TF.FilePolarity,Positive*%
%FSLAX46Y46*%
G04 Gerber Fmt 4.6, Leading zero omitted, Abs format (unit mm)*
G04 Created by KiCad (PCBNEW (5.1.6)-1) date 2020-06-23 22:59:26*
%MOMM*%
%LPD*%
G01*
G04 APERTURE LIST*
%TA.AperFunction,ComponentPad*%
%ADD10C,4.400000*%
%TD*%
%TA.AperFunction,ComponentPad*%
%ADD11C,8.600000*%
%TD*%
%TA.AperFunction,Conductor*%
%ADD12C,0.254000*%
%TD*%
G04 APERTURE END LIST*
D10*
%TO.P,REF\u002A\u002A,1*%
%TO.N,N/C*%
X154940000Y-152400000D03*
%TD*%
D11*
%TO.P,REF\u002A\u002A,1*%
%TO.N,N/C*%
X135670600Y-155473400D03*
%TD*%
%TO.P,REF\u002A\u002A,1*%
%TO.N,N/C*%
X451900600Y-155473400D03*
%TD*%
D10*
%TO.P,REF\u002A\u002A,1*%
%TO.N,N/C*%
X482123750Y-125888750D03*
%TD*%
%TO.P,REF\u002A\u002A,1*%
%TO.N,N/C*%
X338455000Y-99536250D03*
%TD*%
%TO.P,REF\u002A\u002A,1*%
%TO.N,N/C*%
X257489595Y-244428110D03*
%TD*%
%TO.P,REF\u002A\u002A,1*%
%TO.N,N/C*%
X482123750Y-99536250D03*
%TD*%
%TO.P,REF\u002A\u002A,1*%
%TO.N,N/C*%
X109220000Y-125888750D03*
%TD*%
%TO.P,REF\u002A\u002A,1*%
%TO.N,N/C*%
X109220000Y-99536250D03*
%TD*%
%TO.P,REF\u002A\u002A,1*%
%TO.N,N/C*%
X146050000Y-228600000D03*
%TD*%
%TO.P,REF\u002A\u002A,1*%
%TO.N,N/C*%
X425450000Y-247650000D03*
%TD*%
%TO.P,REF\u002A\u002A,1*%
%TO.N,N/C*%
X294640000Y-152400000D03*
%TD*%
%TO.P,REF\u002A\u002A,1*%
%TO.N,N/C*%
X368300000Y-228600000D03*
%TD*%
%TO.P,REF\u002A\u002A,1*%
%TO.N,N/C*%
X211455000Y-99811251D03*
%TD*%
%TO.P,REF\u002A\u002A,1*%
%TO.N,N/C*%
X469900000Y-152400000D03*
%TD*%
%TO.P,H1,1*%
%TO.N,GND*%
X377190000Y-152400000D03*
%TD*%
D12*
%TO.N,GND*%
G36*
X486774545Y-95313909D02*
G01*
X487125208Y-95419780D01*
X487448625Y-95591744D01*
X487732484Y-95823254D01*
X487965965Y-96105486D01*
X488140183Y-96427695D01*
X488248502Y-96777614D01*
X488290001Y-97172452D01*
X488290000Y-255872721D01*
X488251091Y-256269545D01*
X488145220Y-256620206D01*
X487973257Y-256943623D01*
X487741748Y-257227482D01*
X487459514Y-257460965D01*
X487137304Y-257635184D01*
X486787385Y-257743502D01*
X486392557Y-257785000D01*
X428592581Y-257785000D01*
X428584543Y-257785792D01*
X428391737Y-257790504D01*
X428384563Y-257791366D01*
X428377349Y-257791013D01*
X428313159Y-257797137D01*
X427477549Y-257918294D01*
X427447868Y-257925529D01*
X427417621Y-257929834D01*
X427355752Y-257947985D01*
X427355746Y-257947986D01*
X427355743Y-257947987D01*
X426558124Y-258224967D01*
X426530342Y-258237686D01*
X426501458Y-258247632D01*
X426444150Y-258277148D01*
X426444133Y-258277156D01*
X426444126Y-258277161D01*
X425713276Y-258699969D01*
X425688402Y-258717711D01*
X425661920Y-258732939D01*
X425611221Y-258772763D01*
X425611210Y-258772771D01*
X425611205Y-258772776D01*
X424973492Y-259326155D01*
X424952418Y-259348284D01*
X424929296Y-259368243D01*
X424887044Y-259416934D01*
X424887034Y-259416944D01*
X424887030Y-259416949D01*
X424365463Y-260080936D01*
X424348957Y-260106647D01*
X424330024Y-260130620D01*
X424297743Y-260186419D01*
X424297733Y-260186435D01*
X424297733Y-260186436D01*
X423911129Y-260937073D01*
X423899783Y-260965440D01*
X423885723Y-260992564D01*
X423864575Y-261053463D01*
X423864570Y-261053476D01*
X423864570Y-261053478D01*
X423626884Y-261863679D01*
X423621107Y-261893677D01*
X423612430Y-261922971D01*
X423603180Y-261986769D01*
X423603177Y-261986787D01*
X423603177Y-261986796D01*
X423522984Y-262827315D01*
X423448771Y-263605156D01*
X423246536Y-264294516D01*
X422917596Y-264933190D01*
X422473820Y-265498143D01*
X421931220Y-265968988D01*
X421309377Y-266328733D01*
X420630721Y-266564402D01*
X419896523Y-266670855D01*
X419726934Y-266675000D01*
X361981409Y-266675000D01*
X361234844Y-266603771D01*
X360545484Y-266401536D01*
X359906810Y-266072596D01*
X359341857Y-265628820D01*
X358871012Y-265086220D01*
X358511267Y-264464377D01*
X358275598Y-263785721D01*
X358169145Y-263051523D01*
X358164803Y-262873874D01*
X358159496Y-262656737D01*
X358158634Y-262649563D01*
X358158987Y-262642349D01*
X358152863Y-262578159D01*
X358031706Y-261742549D01*
X358024471Y-261712868D01*
X358020166Y-261682621D01*
X358002014Y-261620747D01*
X358002014Y-261620745D01*
X358002013Y-261620743D01*
X357725033Y-260823124D01*
X357712314Y-260795342D01*
X357702368Y-260766458D01*
X357672852Y-260709150D01*
X357672844Y-260709133D01*
X357672839Y-260709126D01*
X357250031Y-259978276D01*
X357232289Y-259953402D01*
X357217061Y-259926920D01*
X357177237Y-259876221D01*
X357177229Y-259876210D01*
X357177224Y-259876205D01*
X356623845Y-259238492D01*
X356601716Y-259217418D01*
X356581757Y-259194296D01*
X356533066Y-259152044D01*
X356533056Y-259152034D01*
X356533051Y-259152030D01*
X355869064Y-258630463D01*
X355843353Y-258613957D01*
X355819380Y-258595024D01*
X355763581Y-258562743D01*
X355763565Y-258562733D01*
X355763556Y-258562730D01*
X355012927Y-258176129D01*
X354984560Y-258164783D01*
X354957436Y-258150723D01*
X354896537Y-258129575D01*
X354896524Y-258129570D01*
X354896518Y-258129569D01*
X354086321Y-257891884D01*
X354056323Y-257886107D01*
X354027029Y-257877430D01*
X353963231Y-257868180D01*
X353963213Y-257868177D01*
X353963204Y-257868177D01*
X353123690Y-257788080D01*
X353092419Y-257785000D01*
X107347279Y-257785000D01*
X106950455Y-257746091D01*
X106599794Y-257640220D01*
X106276377Y-257468257D01*
X105992518Y-257236748D01*
X105759035Y-256954514D01*
X105584816Y-256632304D01*
X105476498Y-256282385D01*
X105435000Y-255887557D01*
X105435000Y-247370777D01*
X422615000Y-247370777D01*
X422615000Y-247929223D01*
X422723948Y-248476939D01*
X422937656Y-248992876D01*
X423247912Y-249457207D01*
X423642793Y-249852088D01*
X424107124Y-250162344D01*
X424623061Y-250376052D01*
X425170777Y-250485000D01*
X425729223Y-250485000D01*
X426276939Y-250376052D01*
X426792876Y-250162344D01*
X427257207Y-249852088D01*
X427652088Y-249457207D01*
X427962344Y-248992876D01*
X428176052Y-248476939D01*
X428285000Y-247929223D01*
X428285000Y-247370777D01*
X428176052Y-246823061D01*
X427962344Y-246307124D01*
X427652088Y-245842793D01*
X427257207Y-245447912D01*
X426792876Y-245137656D01*
X426276939Y-244923948D01*
X425729223Y-244815000D01*
X425170777Y-244815000D01*
X424623061Y-244923948D01*
X424107124Y-245137656D01*
X423642793Y-245447912D01*
X423247912Y-245842793D01*
X422937656Y-246307124D01*
X422723948Y-246823061D01*
X422615000Y-247370777D01*
X105435000Y-247370777D01*
X105435000Y-244148887D01*
X254654595Y-244148887D01*
X254654595Y-244707333D01*
X254763543Y-245255049D01*
X254977251Y-245770986D01*
X255287507Y-246235317D01*
X255682388Y-246630198D01*
X256146719Y-246940454D01*
X256662656Y-247154162D01*
X257210372Y-247263110D01*
X257768818Y-247263110D01*
X258316534Y-247154162D01*
X258832471Y-246940454D01*
X259296802Y-246630198D01*
X259691683Y-246235317D01*
X260001939Y-245770986D01*
X260215647Y-245255049D01*
X260324595Y-244707333D01*
X260324595Y-244148887D01*
X260215647Y-243601171D01*
X260001939Y-243085234D01*
X259691683Y-242620903D01*
X259296802Y-242226022D01*
X258832471Y-241915766D01*
X258316534Y-241702058D01*
X257768818Y-241593110D01*
X257210372Y-241593110D01*
X256662656Y-241702058D01*
X256146719Y-241915766D01*
X255682388Y-242226022D01*
X255287507Y-242620903D01*
X254977251Y-243085234D01*
X254763543Y-243601171D01*
X254654595Y-244148887D01*
X105435000Y-244148887D01*
X105435000Y-228320777D01*
X143215000Y-228320777D01*
X143215000Y-228879223D01*
X143323948Y-229426939D01*
X143537656Y-229942876D01*
X143847912Y-230407207D01*
X144242793Y-230802088D01*
X144707124Y-231112344D01*
X145223061Y-231326052D01*
X145770777Y-231435000D01*
X146329223Y-231435000D01*
X146876939Y-231326052D01*
X147392876Y-231112344D01*
X147857207Y-230802088D01*
X148252088Y-230407207D01*
X148562344Y-229942876D01*
X148776052Y-229426939D01*
X148885000Y-228879223D01*
X148885000Y-228320777D01*
X365465000Y-228320777D01*
X365465000Y-228879223D01*
X365573948Y-229426939D01*
X365787656Y-229942876D01*
X366097912Y-230407207D01*
X366492793Y-230802088D01*
X366957124Y-231112344D01*
X367473061Y-231326052D01*
X368020777Y-231435000D01*
X368579223Y-231435000D01*
X369126939Y-231326052D01*
X369642876Y-231112344D01*
X370107207Y-230802088D01*
X370502088Y-230407207D01*
X370812344Y-229942876D01*
X371026052Y-229426939D01*
X371135000Y-228879223D01*
X371135000Y-228320777D01*
X371026052Y-227773061D01*
X370812344Y-227257124D01*
X370502088Y-226792793D01*
X370107207Y-226397912D01*
X369642876Y-226087656D01*
X369126939Y-225873948D01*
X368579223Y-225765000D01*
X368020777Y-225765000D01*
X367473061Y-225873948D01*
X366957124Y-226087656D01*
X366492793Y-226397912D01*
X366097912Y-226792793D01*
X365787656Y-227257124D01*
X365573948Y-227773061D01*
X365465000Y-228320777D01*
X148885000Y-228320777D01*
X148776052Y-227773061D01*
X148562344Y-227257124D01*
X148252088Y-226792793D01*
X147857207Y-226397912D01*
X147392876Y-226087656D01*
X146876939Y-225873948D01*
X146329223Y-225765000D01*
X145770777Y-225765000D01*
X145223061Y-225873948D01*
X144707124Y-226087656D01*
X144242793Y-226397912D01*
X143847912Y-226792793D01*
X143537656Y-227257124D01*
X143323948Y-227773061D01*
X143215000Y-228320777D01*
X105435000Y-228320777D01*
X105435000Y-154987345D01*
X130735600Y-154987345D01*
X130735600Y-155959455D01*
X130925250Y-156912886D01*
X131297260Y-157810999D01*
X131837335Y-158619279D01*
X132524721Y-159306665D01*
X133333001Y-159846740D01*
X134231114Y-160218750D01*
X135184545Y-160408400D01*
X136156655Y-160408400D01*
X137110086Y-160218750D01*
X138008199Y-159846740D01*
X138816479Y-159306665D01*
X139503865Y-158619279D01*
X140043940Y-157810999D01*
X140415950Y-156912886D01*
X140605600Y-155959455D01*
X140605600Y-154987345D01*
X140415950Y-154033914D01*
X140043940Y-153135801D01*
X139503865Y-152327521D01*
X139297121Y-152120777D01*
X152105000Y-152120777D01*
X152105000Y-152679223D01*
X152213948Y-153226939D01*
X152427656Y-153742876D01*
X152737912Y-154207207D01*
X153132793Y-154602088D01*
X153597124Y-154912344D01*
X154113061Y-155126052D01*
X154660777Y-155235000D01*
X155219223Y-155235000D01*
X155766939Y-155126052D01*
X156282876Y-154912344D01*
X156747207Y-154602088D01*
X157142088Y-154207207D01*
X157452344Y-153742876D01*
X157666052Y-153226939D01*
X157775000Y-152679223D01*
X157775000Y-152120777D01*
X291805000Y-152120777D01*
X291805000Y-152679223D01*
X291913948Y-153226939D01*
X292127656Y-153742876D01*
X292437912Y-154207207D01*
X292832793Y-154602088D01*
X293297124Y-154912344D01*
X293813061Y-155126052D01*
X294360777Y-155235000D01*
X294919223Y-155235000D01*
X295466939Y-155126052D01*
X295982876Y-154912344D01*
X296447207Y-154602088D01*
X296659520Y-154389775D01*
X375379830Y-154389775D01*
X375619976Y-154777018D01*
X376113877Y-155037641D01*
X376649133Y-155196901D01*
X377205174Y-155248678D01*
X377760632Y-155190981D01*
X378294161Y-155026028D01*
X378366531Y-154987345D01*
X446965600Y-154987345D01*
X446965600Y-155959455D01*
X447155250Y-156912886D01*
X447527260Y-157810999D01*
X448067335Y-158619279D01*
X448754721Y-159306665D01*
X449563001Y-159846740D01*
X450461114Y-160218750D01*
X451414545Y-160408400D01*
X452386655Y-160408400D01*
X453340086Y-160218750D01*
X454238199Y-159846740D01*
X455046479Y-159306665D01*
X455733865Y-158619279D01*
X456273940Y-157810999D01*
X456645950Y-156912886D01*
X456835600Y-155959455D01*
X456835600Y-154987345D01*
X456645950Y-154033914D01*
X456273940Y-153135801D01*
X455733865Y-152327521D01*
X455527121Y-152120777D01*
X467065000Y-152120777D01*
X467065000Y-152679223D01*
X467173948Y-153226939D01*
X467387656Y-153742876D01*
X467697912Y-154207207D01*
X468092793Y-154602088D01*
X468557124Y-154912344D01*
X469073061Y-155126052D01*
X469620777Y-155235000D01*
X470179223Y-155235000D01*
X470726939Y-155126052D01*
X471242876Y-154912344D01*
X471707207Y-154602088D01*
X472102088Y-154207207D01*
X472412344Y-153742876D01*
X472626052Y-153226939D01*
X472735000Y-152679223D01*
X472735000Y-152120777D01*
X472626052Y-151573061D01*
X472412344Y-151057124D01*
X472102088Y-150592793D01*
X471707207Y-150197912D01*
X471242876Y-149887656D01*
X470726939Y-149673948D01*
X470179223Y-149565000D01*
X469620777Y-149565000D01*
X469073061Y-149673948D01*
X468557124Y-149887656D01*
X468092793Y-150197912D01*
X467697912Y-150592793D01*
X467387656Y-151057124D01*
X467173948Y-151573061D01*
X467065000Y-152120777D01*
X455527121Y-152120777D01*
X455046479Y-151640135D01*
X454238199Y-151100060D01*
X453340086Y-150728050D01*
X452386655Y-150538400D01*
X451414545Y-150538400D01*
X450461114Y-150728050D01*
X449563001Y-151100060D01*
X448754721Y-151640135D01*
X448067335Y-152327521D01*
X447527260Y-153135801D01*
X447155250Y-154033914D01*
X446965600Y-154987345D01*
X378366531Y-154987345D01*
X378760024Y-154777018D01*
X379000170Y-154389775D01*
X377190000Y-152579605D01*
X375379830Y-154389775D01*
X296659520Y-154389775D01*
X296842088Y-154207207D01*
X297152344Y-153742876D01*
X297366052Y-153226939D01*
X297475000Y-152679223D01*
X297475000Y-152415174D01*
X374341322Y-152415174D01*
X374399019Y-152970632D01*
X374563972Y-153504161D01*
X374812982Y-153970024D01*
X375200225Y-154210170D01*
X377010395Y-152400000D01*
X377369605Y-152400000D01*
X379179775Y-154210170D01*
X379567018Y-153970024D01*
X379827641Y-153476123D01*
X379986901Y-152940867D01*
X380038678Y-152384826D01*
X379980981Y-151829368D01*
X379816028Y-151295839D01*
X379567018Y-150829976D01*
X379179775Y-150589830D01*
X377369605Y-152400000D01*
X377010395Y-152400000D01*
X375200225Y-150589830D01*
X374812982Y-150829976D01*
X374552359Y-151323877D01*
X374393099Y-151859133D01*
X374341322Y-152415174D01*
X297475000Y-152415174D01*
X297475000Y-152120777D01*
X297366052Y-151573061D01*
X297152344Y-151057124D01*
X296842088Y-150592793D01*
X296659520Y-150410225D01*
X375379830Y-150410225D01*
X377190000Y-152220395D01*
X379000170Y-150410225D01*
X378760024Y-150022982D01*
X378266123Y-149762359D01*
X377730867Y-149603099D01*
X377174826Y-149551322D01*
X376619368Y-149609019D01*
X376085839Y-149773972D01*
X375619976Y-150022982D01*
X375379830Y-150410225D01*
X296659520Y-150410225D01*
X296447207Y-150197912D01*
X295982876Y-149887656D01*
X295466939Y-149673948D01*
X294919223Y-149565000D01*
X294360777Y-149565000D01*
X293813061Y-149673948D01*
X293297124Y-149887656D01*
X292832793Y-150197912D01*
X292437912Y-150592793D01*
X292127656Y-151057124D01*
X291913948Y-151573061D01*
X291805000Y-152120777D01*
X157775000Y-152120777D01*
X157666052Y-151573061D01*
X157452344Y-151057124D01*
X157142088Y-150592793D01*
X156747207Y-150197912D01*
X156282876Y-149887656D01*
X155766939Y-149673948D01*
X155219223Y-149565000D01*
X154660777Y-149565000D01*
X154113061Y-149673948D01*
X153597124Y-149887656D01*
X153132793Y-150197912D01*
X152737912Y-150592793D01*
X152427656Y-151057124D01*
X152213948Y-151573061D01*
X152105000Y-152120777D01*
X139297121Y-152120777D01*
X138816479Y-151640135D01*
X138008199Y-151100060D01*
X137110086Y-150728050D01*
X136156655Y-150538400D01*
X135184545Y-150538400D01*
X134231114Y-150728050D01*
X133333001Y-151100060D01*
X132524721Y-151640135D01*
X131837335Y-152327521D01*
X131297260Y-153135801D01*
X130925250Y-154033914D01*
X130735600Y-154987345D01*
X105435000Y-154987345D01*
X105435000Y-125609527D01*
X106385000Y-125609527D01*
X106385000Y-126167973D01*
X106493948Y-126715689D01*
X106707656Y-127231626D01*
X107017912Y-127695957D01*
X107412793Y-128090838D01*
X107877124Y-128401094D01*
X108393061Y-128614802D01*
X108940777Y-128723750D01*
X109499223Y-128723750D01*
X110046939Y-128614802D01*
X110562876Y-128401094D01*
X111027207Y-128090838D01*
X111422088Y-127695957D01*
X111732344Y-127231626D01*
X111946052Y-126715689D01*
X112055000Y-126167973D01*
X112055000Y-125609527D01*
X479288750Y-125609527D01*
X479288750Y-126167973D01*
X479397698Y-126715689D01*
X479611406Y-127231626D01*
X479921662Y-127695957D01*
X480316543Y-128090838D01*
X480780874Y-128401094D01*
X481296811Y-128614802D01*
X481844527Y-128723750D01*
X482402973Y-128723750D01*
X482950689Y-128614802D01*
X483466626Y-128401094D01*
X483930957Y-128090838D01*
X484325838Y-127695957D01*
X484636094Y-127231626D01*
X484849802Y-126715689D01*
X484958750Y-126167973D01*
X484958750Y-125609527D01*
X484849802Y-125061811D01*
X484636094Y-124545874D01*
X484325838Y-124081543D01*
X483930957Y-123686662D01*
X483466626Y-123376406D01*
X482950689Y-123162698D01*
X482402973Y-123053750D01*
X481844527Y-123053750D01*
X481296811Y-123162698D01*
X480780874Y-123376406D01*
X480316543Y-123686662D01*
X479921662Y-124081543D01*
X479611406Y-124545874D01*
X479397698Y-125061811D01*
X479288750Y-125609527D01*
X112055000Y-125609527D01*
X111946052Y-125061811D01*
X111732344Y-124545874D01*
X111422088Y-124081543D01*
X111027207Y-123686662D01*
X110562876Y-123376406D01*
X110046939Y-123162698D01*
X109499223Y-123053750D01*
X108940777Y-123053750D01*
X108393061Y-123162698D01*
X107877124Y-123376406D01*
X107412793Y-123686662D01*
X107017912Y-124081543D01*
X106707656Y-124545874D01*
X106493948Y-125061811D01*
X106385000Y-125609527D01*
X105435000Y-125609527D01*
X105435000Y-99257027D01*
X106385000Y-99257027D01*
X106385000Y-99815473D01*
X106493948Y-100363189D01*
X106707656Y-100879126D01*
X107017912Y-101343457D01*
X107412793Y-101738338D01*
X107877124Y-102048594D01*
X108393061Y-102262302D01*
X108940777Y-102371250D01*
X109499223Y-102371250D01*
X110046939Y-102262302D01*
X110562876Y-102048594D01*
X111027207Y-101738338D01*
X111422088Y-101343457D01*
X111732344Y-100879126D01*
X111946052Y-100363189D01*
X112055000Y-99815473D01*
X112055000Y-99532028D01*
X208620000Y-99532028D01*
X208620000Y-100090474D01*
X208728948Y-100638190D01*
X208942656Y-101154127D01*
X209252912Y-101618458D01*
X209647793Y-102013339D01*
X210112124Y-102323595D01*
X210628061Y-102537303D01*
X211175777Y-102646251D01*
X211734223Y-102646251D01*
X212281939Y-102537303D01*
X212797876Y-102323595D01*
X213262207Y-102013339D01*
X213657088Y-101618458D01*
X213967344Y-101154127D01*
X214181052Y-100638190D01*
X214290000Y-100090474D01*
X214290000Y-99532028D01*
X214235299Y-99257027D01*
X335620000Y-99257027D01*
X335620000Y-99815473D01*
X335728948Y-100363189D01*
X335942656Y-100879126D01*
X336252912Y-101343457D01*
X336647793Y-101738338D01*
X337112124Y-102048594D01*
X337628061Y-102262302D01*
X338175777Y-102371250D01*
X338734223Y-102371250D01*
X339281939Y-102262302D01*
X339797876Y-102048594D01*
X340262207Y-101738338D01*
X340657088Y-101343457D01*
X340967344Y-100879126D01*
X341181052Y-100363189D01*
X341290000Y-99815473D01*
X341290000Y-99257027D01*
X479288750Y-99257027D01*
X479288750Y-99815473D01*
X479397698Y-100363189D01*
X479611406Y-100879126D01*
X479921662Y-101343457D01*
X480316543Y-101738338D01*
X480780874Y-102048594D01*
X481296811Y-102262302D01*
X481844527Y-102371250D01*
X482402973Y-102371250D01*
X482950689Y-102262302D01*
X483466626Y-102048594D01*
X483930957Y-101738338D01*
X484325838Y-101343457D01*
X484636094Y-100879126D01*
X484849802Y-100363189D01*
X484958750Y-99815473D01*
X484958750Y-99257027D01*
X484849802Y-98709311D01*
X484636094Y-98193374D01*
X484325838Y-97729043D01*
X483930957Y-97334162D01*
X483466626Y-97023906D01*
X482950689Y-96810198D01*
X482402973Y-96701250D01*
X481844527Y-96701250D01*
X481296811Y-96810198D01*
X480780874Y-97023906D01*
X480316543Y-97334162D01*
X479921662Y-97729043D01*
X479611406Y-98193374D01*
X479397698Y-98709311D01*
X479288750Y-99257027D01*
X341290000Y-99257027D01*
X341181052Y-98709311D01*
X340967344Y-98193374D01*
X340657088Y-97729043D01*
X340262207Y-97334162D01*
X339797876Y-97023906D01*
X339281939Y-96810198D01*
X338734223Y-96701250D01*
X338175777Y-96701250D01*
X337628061Y-96810198D01*
X337112124Y-97023906D01*
X336647793Y-97334162D01*
X336252912Y-97729043D01*
X335942656Y-98193374D01*
X335728948Y-98709311D01*
X335620000Y-99257027D01*
X214235299Y-99257027D01*
X214181052Y-98984312D01*
X213967344Y-98468375D01*
X213657088Y-98004044D01*
X213262207Y-97609163D01*
X212797876Y-97298907D01*
X212281939Y-97085199D01*
X211734223Y-96976251D01*
X211175777Y-96976251D01*
X210628061Y-97085199D01*
X210112124Y-97298907D01*
X209647793Y-97609163D01*
X209252912Y-98004044D01*
X208942656Y-98468375D01*
X208728948Y-98984312D01*
X208620000Y-99532028D01*
X112055000Y-99532028D01*
X112055000Y-99257027D01*
X111946052Y-98709311D01*
X111732344Y-98193374D01*
X111422088Y-97729043D01*
X111027207Y-97334162D01*
X110562876Y-97023906D01*
X110046939Y-96810198D01*
X109499223Y-96701250D01*
X108940777Y-96701250D01*
X108393061Y-96810198D01*
X107877124Y-97023906D01*
X107412793Y-97334162D01*
X107017912Y-97729043D01*
X106707656Y-98193374D01*
X106493948Y-98709311D01*
X106385000Y-99257027D01*
X105435000Y-99257027D01*
X105435000Y-97187279D01*
X105473909Y-96790455D01*
X105579780Y-96439792D01*
X105751744Y-96116375D01*
X105983254Y-95832516D01*
X106265486Y-95599035D01*
X106587695Y-95424817D01*
X106937614Y-95316498D01*
X107332443Y-95275000D01*
X486377721Y-95275000D01*
X486774545Y-95313909D01*
G37*
X486774545Y-95313909D02*
X487125208Y-95419780D01*
X487448625Y-95591744D01*
X487732484Y-95823254D01*
X487965965Y-96105486D01*
X488140183Y-96427695D01*
X488248502Y-96777614D01*
X488290001Y-97172452D01*
X488290000Y-255872721D01*
X488251091Y-256269545D01*
X488145220Y-256620206D01*
X487973257Y-256943623D01*
X487741748Y-257227482D01*
X487459514Y-257460965D01*
X487137304Y-257635184D01*
X486787385Y-257743502D01*
X486392557Y-257785000D01*
X428592581Y-257785000D01*
X428584543Y-257785792D01*
X428391737Y-257790504D01*
X428384563Y-257791366D01*
X428377349Y-257791013D01*
X428313159Y-257797137D01*
X427477549Y-257918294D01*
X427447868Y-257925529D01*
X427417621Y-257929834D01*
X427355752Y-257947985D01*
X427355746Y-257947986D01*
X427355743Y-257947987D01*
X426558124Y-258224967D01*
X426530342Y-258237686D01*
X426501458Y-258247632D01*
X426444150Y-258277148D01*
X426444133Y-258277156D01*
X426444126Y-258277161D01*
X425713276Y-258699969D01*
X425688402Y-258717711D01*
X425661920Y-258732939D01*
X425611221Y-258772763D01*
X425611210Y-258772771D01*
X425611205Y-258772776D01*
X424973492Y-259326155D01*
X424952418Y-259348284D01*
X424929296Y-259368243D01*
X424887044Y-259416934D01*
X424887034Y-259416944D01*
X424887030Y-259416949D01*
X424365463Y-260080936D01*
X424348957Y-260106647D01*
X424330024Y-260130620D01*
X424297743Y-260186419D01*
X424297733Y-260186435D01*
X424297733Y-260186436D01*
X423911129Y-260937073D01*
X423899783Y-260965440D01*
X423885723Y-260992564D01*
X423864575Y-261053463D01*
X423864570Y-261053476D01*
X423864570Y-261053478D01*
X423626884Y-261863679D01*
X423621107Y-261893677D01*
X423612430Y-261922971D01*
X423603180Y-261986769D01*
X423603177Y-261986787D01*
X423603177Y-261986796D01*
X423522984Y-262827315D01*
X423448771Y-263605156D01*
X423246536Y-264294516D01*
X422917596Y-264933190D01*
X422473820Y-265498143D01*
X421931220Y-265968988D01*
X421309377Y-266328733D01*
X420630721Y-266564402D01*
X419896523Y-266670855D01*
X419726934Y-266675000D01*
X361981409Y-266675000D01*
X361234844Y-266603771D01*
X360545484Y-266401536D01*
X359906810Y-266072596D01*
X359341857Y-265628820D01*
X358871012Y-265086220D01*
X358511267Y-264464377D01*
X358275598Y-263785721D01*
X358169145Y-263051523D01*
X358164803Y-262873874D01*
X358159496Y-262656737D01*
X358158634Y-262649563D01*
X358158987Y-262642349D01*
X358152863Y-262578159D01*
X358031706Y-261742549D01*
X358024471Y-261712868D01*
X358020166Y-261682621D01*
X358002014Y-261620747D01*
X358002014Y-261620745D01*
X358002013Y-261620743D01*
X357725033Y-260823124D01*
X357712314Y-260795342D01*
X357702368Y-260766458D01*
X357672852Y-260709150D01*
X357672844Y-260709133D01*
X357672839Y-260709126D01*
X357250031Y-259978276D01*
X357232289Y-259953402D01*
X357217061Y-259926920D01*
X357177237Y-259876221D01*
X357177229Y-259876210D01*
X357177224Y-259876205D01*
X356623845Y-259238492D01*
X356601716Y-259217418D01*
X356581757Y-259194296D01*
X356533066Y-259152044D01*
X356533056Y-259152034D01*
X356533051Y-259152030D01*
X355869064Y-258630463D01*
X355843353Y-258613957D01*
X355819380Y-258595024D01*
X355763581Y-258562743D01*
X355763565Y-258562733D01*
X355763556Y-258562730D01*
X355012927Y-258176129D01*
X354984560Y-258164783D01*
X354957436Y-258150723D01*
X354896537Y-258129575D01*
X354896524Y-258129570D01*
X354896518Y-258129569D01*
X354086321Y-257891884D01*
X354056323Y-257886107D01*
X354027029Y-257877430D01*
X353963231Y-257868180D01*
X353963213Y-257868177D01*
X353963204Y-257868177D01*
X353123690Y-257788080D01*
X353092419Y-257785000D01*
X107347279Y-257785000D01*
X106950455Y-257746091D01*
X106599794Y-257640220D01*
X106276377Y-257468257D01*
X105992518Y-257236748D01*
X105759035Y-256954514D01*
X105584816Y-256632304D01*
X105476498Y-256282385D01*
X105435000Y-255887557D01*
X105435000Y-247370777D01*
X422615000Y-247370777D01*
X422615000Y-247929223D01*
X422723948Y-248476939D01*
X422937656Y-248992876D01*
X423247912Y-249457207D01*
X423642793Y-249852088D01*
X424107124Y-250162344D01*
X424623061Y-250376052D01*
X425170777Y-250485000D01*
X425729223Y-250485000D01*
X426276939Y-250376052D01*
X426792876Y-250162344D01*
X427257207Y-249852088D01*
X427652088Y-249457207D01*
X427962344Y-248992876D01*
X428176052Y-248476939D01*
X428285000Y-247929223D01*
X428285000Y-247370777D01*
X428176052Y-246823061D01*
X427962344Y-246307124D01*
X427652088Y-245842793D01*
X427257207Y-245447912D01*
X426792876Y-245137656D01*
X426276939Y-244923948D01*
X425729223Y-244815000D01*
X425170777Y-244815000D01*
X424623061Y-244923948D01*
X424107124Y-245137656D01*
X423642793Y-245447912D01*
X423247912Y-245842793D01*
X422937656Y-246307124D01*
X422723948Y-246823061D01*
X422615000Y-247370777D01*
X105435000Y-247370777D01*
X105435000Y-244148887D01*
X254654595Y-244148887D01*
X254654595Y-244707333D01*
X254763543Y-245255049D01*
X254977251Y-245770986D01*
X255287507Y-246235317D01*
X255682388Y-246630198D01*
X256146719Y-246940454D01*
X256662656Y-247154162D01*
X257210372Y-247263110D01*
X257768818Y-247263110D01*
X258316534Y-247154162D01*
X258832471Y-246940454D01*
X259296802Y-246630198D01*
X259691683Y-246235317D01*
X260001939Y-245770986D01*
X260215647Y-245255049D01*
X260324595Y-244707333D01*
X260324595Y-244148887D01*
X260215647Y-243601171D01*
X260001939Y-243085234D01*
X259691683Y-242620903D01*
X259296802Y-242226022D01*
X258832471Y-241915766D01*
X258316534Y-241702058D01*
X257768818Y-241593110D01*
X257210372Y-241593110D01*
X256662656Y-241702058D01*
X256146719Y-241915766D01*
X255682388Y-242226022D01*
X255287507Y-242620903D01*
X254977251Y-243085234D01*
X254763543Y-243601171D01*
X254654595Y-244148887D01*
X105435000Y-244148887D01*
X105435000Y-228320777D01*
X143215000Y-228320777D01*
X143215000Y-228879223D01*
X143323948Y-229426939D01*
X143537656Y-229942876D01*
X143847912Y-230407207D01*
X144242793Y-230802088D01*
X144707124Y-231112344D01*
X145223061Y-231326052D01*
X145770777Y-231435000D01*
X146329223Y-231435000D01*
X146876939Y-231326052D01*
X147392876Y-231112344D01*
X147857207Y-230802088D01*
X148252088Y-230407207D01*
X148562344Y-229942876D01*
X148776052Y-229426939D01*
X148885000Y-228879223D01*
X148885000Y-228320777D01*
X365465000Y-228320777D01*
X365465000Y-228879223D01*
X365573948Y-229426939D01*
X365787656Y-229942876D01*
X366097912Y-230407207D01*
X366492793Y-230802088D01*
X366957124Y-231112344D01*
X367473061Y-231326052D01*
X368020777Y-231435000D01*
X368579223Y-231435000D01*
X369126939Y-231326052D01*
X369642876Y-231112344D01*
X370107207Y-230802088D01*
X370502088Y-230407207D01*
X370812344Y-229942876D01*
X371026052Y-229426939D01*
X371135000Y-228879223D01*
X371135000Y-228320777D01*
X371026052Y-227773061D01*
X370812344Y-227257124D01*
X370502088Y-226792793D01*
X370107207Y-226397912D01*
X369642876Y-226087656D01*
X369126939Y-225873948D01*
X368579223Y-225765000D01*
X368020777Y-225765000D01*
X367473061Y-225873948D01*
X366957124Y-226087656D01*
X366492793Y-226397912D01*
X366097912Y-226792793D01*
X365787656Y-227257124D01*
X365573948Y-227773061D01*
X365465000Y-228320777D01*
X148885000Y-228320777D01*
X148776052Y-227773061D01*
X148562344Y-227257124D01*
X148252088Y-226792793D01*
X147857207Y-226397912D01*
X147392876Y-226087656D01*
X146876939Y-225873948D01*
X146329223Y-225765000D01*
X145770777Y-225765000D01*
X145223061Y-225873948D01*
X144707124Y-226087656D01*
X144242793Y-226397912D01*
X143847912Y-226792793D01*
X143537656Y-227257124D01*
X143323948Y-227773061D01*
X143215000Y-228320777D01*
X105435000Y-228320777D01*
X105435000Y-154987345D01*
X130735600Y-154987345D01*
X130735600Y-155959455D01*
X130925250Y-156912886D01*
X131297260Y-157810999D01*
X131837335Y-158619279D01*
X132524721Y-159306665D01*
X133333001Y-159846740D01*
X134231114Y-160218750D01*
X135184545Y-160408400D01*
X136156655Y-160408400D01*
X137110086Y-160218750D01*
X138008199Y-159846740D01*
X138816479Y-159306665D01*
X139503865Y-158619279D01*
X140043940Y-157810999D01*
X140415950Y-156912886D01*
X140605600Y-155959455D01*
X140605600Y-154987345D01*
X140415950Y-154033914D01*
X140043940Y-153135801D01*
X139503865Y-152327521D01*
X139297121Y-152120777D01*
X152105000Y-152120777D01*
X152105000Y-152679223D01*
X152213948Y-153226939D01*
X152427656Y-153742876D01*
X152737912Y-154207207D01*
X153132793Y-154602088D01*
X153597124Y-154912344D01*
X154113061Y-155126052D01*
X154660777Y-155235000D01*
X155219223Y-155235000D01*
X155766939Y-155126052D01*
X156282876Y-154912344D01*
X156747207Y-154602088D01*
X157142088Y-154207207D01*
X157452344Y-153742876D01*
X157666052Y-153226939D01*
X157775000Y-152679223D01*
X157775000Y-152120777D01*
X291805000Y-152120777D01*
X291805000Y-152679223D01*
X291913948Y-153226939D01*
X292127656Y-153742876D01*
X292437912Y-154207207D01*
X292832793Y-154602088D01*
X293297124Y-154912344D01*
X293813061Y-155126052D01*
X294360777Y-155235000D01*
X294919223Y-155235000D01*
X295466939Y-155126052D01*
X295982876Y-154912344D01*
X296447207Y-154602088D01*
X296659520Y-154389775D01*
X375379830Y-154389775D01*
X375619976Y-154777018D01*
X376113877Y-155037641D01*
X376649133Y-155196901D01*
X377205174Y-155248678D01*
X377760632Y-155190981D01*
X378294161Y-155026028D01*
X378366531Y-154987345D01*
X446965600Y-154987345D01*
X446965600Y-155959455D01*
X447155250Y-156912886D01*
X447527260Y-157810999D01*
X448067335Y-158619279D01*
X448754721Y-159306665D01*
X449563001Y-159846740D01*
X450461114Y-160218750D01*
X451414545Y-160408400D01*
X452386655Y-160408400D01*
X453340086Y-160218750D01*
X454238199Y-159846740D01*
X455046479Y-159306665D01*
X455733865Y-158619279D01*
X456273940Y-157810999D01*
X456645950Y-156912886D01*
X456835600Y-155959455D01*
X456835600Y-154987345D01*
X456645950Y-154033914D01*
X456273940Y-153135801D01*
X455733865Y-152327521D01*
X455527121Y-152120777D01*
X467065000Y-152120777D01*
X467065000Y-152679223D01*
X467173948Y-153226939D01*
X467387656Y-153742876D01*
X467697912Y-154207207D01*
X468092793Y-154602088D01*
X468557124Y-154912344D01*
X469073061Y-155126052D01*
X469620777Y-155235000D01*
X470179223Y-155235000D01*
X470726939Y-155126052D01*
X471242876Y-154912344D01*
X471707207Y-154602088D01*
X472102088Y-154207207D01*
X472412344Y-153742876D01*
X472626052Y-153226939D01*
X472735000Y-152679223D01*
X472735000Y-152120777D01*
X472626052Y-151573061D01*
X472412344Y-151057124D01*
X472102088Y-150592793D01*
X471707207Y-150197912D01*
X471242876Y-149887656D01*
X470726939Y-149673948D01*
X470179223Y-149565000D01*
X469620777Y-149565000D01*
X469073061Y-149673948D01*
X468557124Y-149887656D01*
X468092793Y-150197912D01*
X467697912Y-150592793D01*
X467387656Y-151057124D01*
X467173948Y-151573061D01*
X467065000Y-152120777D01*
X455527121Y-152120777D01*
X455046479Y-151640135D01*
X454238199Y-151100060D01*
X453340086Y-150728050D01*
X452386655Y-150538400D01*
X451414545Y-150538400D01*
X450461114Y-150728050D01*
X449563001Y-151100060D01*
X448754721Y-151640135D01*
X448067335Y-152327521D01*
X447527260Y-153135801D01*
X447155250Y-154033914D01*
X446965600Y-154987345D01*
X378366531Y-154987345D01*
X378760024Y-154777018D01*
X379000170Y-154389775D01*
X377190000Y-152579605D01*
X375379830Y-154389775D01*
X296659520Y-154389775D01*
X296842088Y-154207207D01*
X297152344Y-153742876D01*
X297366052Y-153226939D01*
X297475000Y-152679223D01*
X297475000Y-152415174D01*
X374341322Y-152415174D01*
X374399019Y-152970632D01*
X374563972Y-153504161D01*
X374812982Y-153970024D01*
X375200225Y-154210170D01*
X377010395Y-152400000D01*
X377369605Y-152400000D01*
X379179775Y-154210170D01*
X379567018Y-153970024D01*
X379827641Y-153476123D01*
X379986901Y-152940867D01*
X380038678Y-152384826D01*
X379980981Y-151829368D01*
X379816028Y-151295839D01*
X379567018Y-150829976D01*
X379179775Y-150589830D01*
X377369605Y-152400000D01*
X377010395Y-152400000D01*
X375200225Y-150589830D01*
X374812982Y-150829976D01*
X374552359Y-151323877D01*
X374393099Y-151859133D01*
X374341322Y-152415174D01*
X297475000Y-152415174D01*
X297475000Y-152120777D01*
X297366052Y-151573061D01*
X297152344Y-151057124D01*
X296842088Y-150592793D01*
X296659520Y-150410225D01*
X375379830Y-150410225D01*
X377190000Y-152220395D01*
X379000170Y-150410225D01*
X378760024Y-150022982D01*
X378266123Y-149762359D01*
X377730867Y-149603099D01*
X377174826Y-149551322D01*
X376619368Y-149609019D01*
X376085839Y-149773972D01*
X375619976Y-150022982D01*
X375379830Y-150410225D01*
X296659520Y-150410225D01*
X296447207Y-150197912D01*
X295982876Y-149887656D01*
X295466939Y-149673948D01*
X294919223Y-149565000D01*
X294360777Y-149565000D01*
X293813061Y-149673948D01*
X293297124Y-149887656D01*
X292832793Y-150197912D01*
X292437912Y-150592793D01*
X292127656Y-151057124D01*
X291913948Y-151573061D01*
X291805000Y-152120777D01*
X157775000Y-152120777D01*
X157666052Y-151573061D01*
X157452344Y-151057124D01*
X157142088Y-150592793D01*
X156747207Y-150197912D01*
X156282876Y-149887656D01*
X155766939Y-149673948D01*
X155219223Y-149565000D01*
X154660777Y-149565000D01*
X154113061Y-149673948D01*
X153597124Y-149887656D01*
X153132793Y-150197912D01*
X152737912Y-150592793D01*
X152427656Y-151057124D01*
X152213948Y-151573061D01*
X152105000Y-152120777D01*
X139297121Y-152120777D01*
X138816479Y-151640135D01*
X138008199Y-151100060D01*
X137110086Y-150728050D01*
X136156655Y-150538400D01*
X135184545Y-150538400D01*
X134231114Y-150728050D01*
X133333001Y-151100060D01*
X132524721Y-151640135D01*
X131837335Y-152327521D01*
X131297260Y-153135801D01*
X130925250Y-154033914D01*
X130735600Y-154987345D01*
X105435000Y-154987345D01*
X105435000Y-125609527D01*
X106385000Y-125609527D01*
X106385000Y-126167973D01*
X106493948Y-126715689D01*
X106707656Y-127231626D01*
X107017912Y-127695957D01*
X107412793Y-128090838D01*
X107877124Y-128401094D01*
X108393061Y-128614802D01*
X108940777Y-128723750D01*
X109499223Y-128723750D01*
X110046939Y-128614802D01*
X110562876Y-128401094D01*
X111027207Y-128090838D01*
X111422088Y-127695957D01*
X111732344Y-127231626D01*
X111946052Y-126715689D01*
X112055000Y-126167973D01*
X112055000Y-125609527D01*
X479288750Y-125609527D01*
X479288750Y-126167973D01*
X479397698Y-126715689D01*
X479611406Y-127231626D01*
X479921662Y-127695957D01*
X480316543Y-128090838D01*
X480780874Y-128401094D01*
X481296811Y-128614802D01*
X481844527Y-128723750D01*
X482402973Y-128723750D01*
X482950689Y-128614802D01*
X483466626Y-128401094D01*
X483930957Y-128090838D01*
X484325838Y-127695957D01*
X484636094Y-127231626D01*
X484849802Y-126715689D01*
X484958750Y-126167973D01*
X484958750Y-125609527D01*
X484849802Y-125061811D01*
X484636094Y-124545874D01*
X484325838Y-124081543D01*
X483930957Y-123686662D01*
X483466626Y-123376406D01*
X482950689Y-123162698D01*
X482402973Y-123053750D01*
X481844527Y-123053750D01*
X481296811Y-123162698D01*
X480780874Y-123376406D01*
X480316543Y-123686662D01*
X479921662Y-124081543D01*
X479611406Y-124545874D01*
X479397698Y-125061811D01*
X479288750Y-125609527D01*
X112055000Y-125609527D01*
X111946052Y-125061811D01*
X111732344Y-124545874D01*
X111422088Y-124081543D01*
X111027207Y-123686662D01*
X110562876Y-123376406D01*
X110046939Y-123162698D01*
X109499223Y-123053750D01*
X108940777Y-123053750D01*
X108393061Y-123162698D01*
X107877124Y-123376406D01*
X107412793Y-123686662D01*
X107017912Y-124081543D01*
X106707656Y-124545874D01*
X106493948Y-125061811D01*
X106385000Y-125609527D01*
X105435000Y-125609527D01*
X105435000Y-99257027D01*
X106385000Y-99257027D01*
X106385000Y-99815473D01*
X106493948Y-100363189D01*
X106707656Y-100879126D01*
X107017912Y-101343457D01*
X107412793Y-101738338D01*
X107877124Y-102048594D01*
X108393061Y-102262302D01*
X108940777Y-102371250D01*
X109499223Y-102371250D01*
X110046939Y-102262302D01*
X110562876Y-102048594D01*
X111027207Y-101738338D01*
X111422088Y-101343457D01*
X111732344Y-100879126D01*
X111946052Y-100363189D01*
X112055000Y-99815473D01*
X112055000Y-99532028D01*
X208620000Y-99532028D01*
X208620000Y-100090474D01*
X208728948Y-100638190D01*
X208942656Y-101154127D01*
X209252912Y-101618458D01*
X209647793Y-102013339D01*
X210112124Y-102323595D01*
X210628061Y-102537303D01*
X211175777Y-102646251D01*
X211734223Y-102646251D01*
X212281939Y-102537303D01*
X212797876Y-102323595D01*
X213262207Y-102013339D01*
X213657088Y-101618458D01*
X213967344Y-101154127D01*
X214181052Y-100638190D01*
X214290000Y-100090474D01*
X214290000Y-99532028D01*
X214235299Y-99257027D01*
X335620000Y-99257027D01*
X335620000Y-99815473D01*
X335728948Y-100363189D01*
X335942656Y-100879126D01*
X336252912Y-101343457D01*
X336647793Y-101738338D01*
X337112124Y-102048594D01*
X337628061Y-102262302D01*
X338175777Y-102371250D01*
X338734223Y-102371250D01*
X339281939Y-102262302D01*
X339797876Y-102048594D01*
X340262207Y-101738338D01*
X340657088Y-101343457D01*
X340967344Y-100879126D01*
X341181052Y-100363189D01*
X341290000Y-99815473D01*
X341290000Y-99257027D01*
X479288750Y-99257027D01*
X479288750Y-99815473D01*
X479397698Y-100363189D01*
X479611406Y-100879126D01*
X479921662Y-101343457D01*
X480316543Y-101738338D01*
X480780874Y-102048594D01*
X481296811Y-102262302D01*
X481844527Y-102371250D01*
X482402973Y-102371250D01*
X482950689Y-102262302D01*
X483466626Y-102048594D01*
X483930957Y-101738338D01*
X484325838Y-101343457D01*
X484636094Y-100879126D01*
X484849802Y-100363189D01*
X484958750Y-99815473D01*
X484958750Y-99257027D01*
X484849802Y-98709311D01*
X484636094Y-98193374D01*
X484325838Y-97729043D01*
X483930957Y-97334162D01*
X483466626Y-97023906D01*
X482950689Y-96810198D01*
X482402973Y-96701250D01*
X481844527Y-96701250D01*
X481296811Y-96810198D01*
X480780874Y-97023906D01*
X480316543Y-97334162D01*
X479921662Y-97729043D01*
X479611406Y-98193374D01*
X479397698Y-98709311D01*
X479288750Y-99257027D01*
X341290000Y-99257027D01*
X341181052Y-98709311D01*
X340967344Y-98193374D01*
X340657088Y-97729043D01*
X340262207Y-97334162D01*
X339797876Y-97023906D01*
X339281939Y-96810198D01*
X338734223Y-96701250D01*
X338175777Y-96701250D01*
X337628061Y-96810198D01*
X337112124Y-97023906D01*
X336647793Y-97334162D01*
X336252912Y-97729043D01*
X335942656Y-98193374D01*
X335728948Y-98709311D01*
X335620000Y-99257027D01*
X214235299Y-99257027D01*
X214181052Y-98984312D01*
X213967344Y-98468375D01*
X213657088Y-98004044D01*
X213262207Y-97609163D01*
X212797876Y-97298907D01*
X212281939Y-97085199D01*
X211734223Y-96976251D01*
X211175777Y-96976251D01*
X210628061Y-97085199D01*
X210112124Y-97298907D01*
X209647793Y-97609163D01*
X209252912Y-98004044D01*
X208942656Y-98468375D01*
X208728948Y-98984312D01*
X208620000Y-99532028D01*
X112055000Y-99532028D01*
X112055000Y-99257027D01*
X111946052Y-98709311D01*
X111732344Y-98193374D01*
X111422088Y-97729043D01*
X111027207Y-97334162D01*
X110562876Y-97023906D01*
X110046939Y-96810198D01*
X109499223Y-96701250D01*
X108940777Y-96701250D01*
X108393061Y-96810198D01*
X107877124Y-97023906D01*
X107412793Y-97334162D01*
X107017912Y-97729043D01*
X106707656Y-98193374D01*
X106493948Y-98709311D01*
X106385000Y-99257027D01*
X105435000Y-99257027D01*
X105435000Y-97187279D01*
X105473909Y-96790455D01*
X105579780Y-96439792D01*
X105751744Y-96116375D01*
X105983254Y-95832516D01*
X106265486Y-95599035D01*
X106587695Y-95424817D01*
X106937614Y-95316498D01*
X107332443Y-95275000D01*
X486377721Y-95275000D01*
X486774545Y-95313909D01*
%TD*%
M02*
