%TF.GenerationSoftware,KiCad,Pcbnew,(5.1.6)-1*%
%TF.CreationDate,2020-07-02T17:11:33-07:00*%
%TF.ProjectId,plate,706c6174-652e-46b6-9963-61645f706362,rev?*%
%TF.SameCoordinates,Original*%
%TF.FileFunction,Profile,NP*%
%FSLAX46Y46*%
G04 Gerber Fmt 4.6, Leading zero omitted, Abs format (unit mm)*
G04 Created by KiCad (PCBNEW (5.1.6)-1) date 2020-07-02 17:11:33*
%MOMM*%
%LPD*%
G01*
G04 APERTURE LIST*
%TA.AperFunction,Profile*%
%ADD10C,0.050000*%
%TD*%
G04 APERTURE END LIST*
D10*
X164281500Y-282756000D02*
X145233000Y-282756000D01*
X115145000Y-283265000D02*
X115145000Y-161091000D01*
X115145000Y-161091000D02*
G75*
G02*
X117685000Y-158551000I2540000J0D01*
G01*
X117685000Y-158551000D02*
X496780000Y-158551000D01*
X496780000Y-158551000D02*
G75*
G02*
X499320000Y-161091000I0J-2540000D01*
G01*
X496780000Y-158551000D02*
X496780000Y-158551000D01*
X130044025Y-249907500D02*
G75*
G02*
X129178000Y-250407500I-866025J500000D01*
G01*
X480476000Y-272863525D02*
G75*
G02*
X479976000Y-271997500I500000J866025D01*
G01*
X493976000Y-258559500D02*
G75*
G02*
X494976000Y-257559500I1000000J0D01*
G01*
X494976000Y-250559500D02*
G75*
G02*
X495976000Y-251559500I0J-1000000D01*
G01*
X479976022Y-259997513D02*
G75*
G02*
X480476000Y-259131500I999978J13D01*
G01*
X480976000Y-251559500D02*
G75*
G02*
X481976000Y-250559500I1000000J0D01*
G01*
X480975978Y-258265487D02*
G75*
G02*
X480476000Y-259131500I-999978J-13D01*
G01*
X494976000Y-274435500D02*
G75*
G02*
X495976000Y-275435500I0J-1000000D01*
G01*
X495976000Y-280435500D02*
G75*
G02*
X494976000Y-281435500I-1000000J0D01*
G01*
X480476000Y-272863475D02*
G75*
G02*
X480976000Y-273729500I-500000J-866025D01*
G01*
X481976000Y-281435500D02*
G75*
G02*
X480976000Y-280435500I0J1000000D01*
G01*
X495976000Y-256559500D02*
G75*
G02*
X494976000Y-257559500I-1000000J0D01*
G01*
X494976000Y-274435500D02*
G75*
G02*
X493976000Y-273435500I0J1000000D01*
G01*
X494976000Y-281435500D02*
X481976000Y-281435500D01*
X493976000Y-258559500D02*
X493976000Y-273435500D01*
X480976000Y-258265500D02*
X480976000Y-251559500D01*
X495976000Y-275435500D02*
X495976000Y-280435500D01*
X481976000Y-250559500D02*
X494976000Y-250559500D01*
X495976000Y-251559500D02*
X495976000Y-256559500D01*
X479976000Y-271997500D02*
X479976000Y-259997500D01*
X480976000Y-280435500D02*
X480976000Y-273729500D01*
X480476000Y-234509525D02*
G75*
G02*
X479976000Y-233643500I500000J866025D01*
G01*
X493976000Y-220205500D02*
G75*
G02*
X494976000Y-219205500I1000000J0D01*
G01*
X494976000Y-212205500D02*
G75*
G02*
X495976000Y-213205500I0J-1000000D01*
G01*
X479976022Y-221643513D02*
G75*
G02*
X480476000Y-220777500I999978J13D01*
G01*
X480976000Y-213205500D02*
G75*
G02*
X481976000Y-212205500I1000000J0D01*
G01*
X480975978Y-219911487D02*
G75*
G02*
X480476000Y-220777500I-999978J-13D01*
G01*
X494976000Y-236081500D02*
G75*
G02*
X495976000Y-237081500I0J-1000000D01*
G01*
X495976000Y-242081500D02*
G75*
G02*
X494976000Y-243081500I-1000000J0D01*
G01*
X480476000Y-234509475D02*
G75*
G02*
X480976000Y-235375500I-500000J-866025D01*
G01*
X481976000Y-243081500D02*
G75*
G02*
X480976000Y-242081500I0J1000000D01*
G01*
X495976000Y-218205500D02*
G75*
G02*
X494976000Y-219205500I-1000000J0D01*
G01*
X494976000Y-236081500D02*
G75*
G02*
X493976000Y-235081500I0J1000000D01*
G01*
X494976000Y-243081500D02*
X481976000Y-243081500D01*
X493976000Y-220205500D02*
X493976000Y-235081500D01*
X480976000Y-219911500D02*
X480976000Y-213205500D01*
X495976000Y-237081500D02*
X495976000Y-242081500D01*
X481976000Y-212205500D02*
X494976000Y-212205500D01*
X495976000Y-213205500D02*
X495976000Y-218205500D01*
X479976000Y-233643500D02*
X479976000Y-221643500D01*
X480976000Y-242081500D02*
X480976000Y-235375500D01*
X375280975Y-192757500D02*
G75*
G02*
X376147000Y-192257500I866025J-500000D01*
G01*
X389585000Y-206257500D02*
G75*
G02*
X390585000Y-207257500I0J-1000000D01*
G01*
X397585000Y-207257500D02*
G75*
G02*
X396585000Y-208257500I-1000000J0D01*
G01*
X388146987Y-192257522D02*
G75*
G02*
X389013000Y-192757500I13J-999978D01*
G01*
X396585000Y-193257500D02*
G75*
G02*
X397585000Y-194257500I0J-1000000D01*
G01*
X389879013Y-193257478D02*
G75*
G02*
X389013000Y-192757500I-13J999978D01*
G01*
X373709000Y-207257500D02*
G75*
G02*
X372709000Y-208257500I-1000000J0D01*
G01*
X367709000Y-208257500D02*
G75*
G02*
X366709000Y-207257500I0J1000000D01*
G01*
X375281025Y-192757500D02*
G75*
G02*
X374415000Y-193257500I-866025J500000D01*
G01*
X366709000Y-194257500D02*
G75*
G02*
X367709000Y-193257500I1000000J0D01*
G01*
X391585000Y-208257500D02*
G75*
G02*
X390585000Y-207257500I0J1000000D01*
G01*
X373709000Y-207257500D02*
G75*
G02*
X374709000Y-206257500I1000000J0D01*
G01*
X366709000Y-207257500D02*
X366709000Y-194257500D01*
X389585000Y-206257500D02*
X374709000Y-206257500D01*
X389879000Y-193257500D02*
X396585000Y-193257500D01*
X372709000Y-208257500D02*
X367709000Y-208257500D01*
X397585000Y-194257500D02*
X397585000Y-207257500D01*
X396585000Y-208257500D02*
X391585000Y-208257500D01*
X376147000Y-192257500D02*
X388147000Y-192257500D01*
X367709000Y-193257500D02*
X374415000Y-193257500D01*
X372931475Y-230857500D02*
G75*
G02*
X373797500Y-230357500I866025J-500000D01*
G01*
X387235500Y-244357500D02*
G75*
G02*
X388235500Y-245357500I0J-1000000D01*
G01*
X395235500Y-245357500D02*
G75*
G02*
X394235500Y-246357500I-1000000J0D01*
G01*
X385797487Y-230357522D02*
G75*
G02*
X386663500Y-230857500I13J-999978D01*
G01*
X394235500Y-231357500D02*
G75*
G02*
X395235500Y-232357500I0J-1000000D01*
G01*
X387529513Y-231357478D02*
G75*
G02*
X386663500Y-230857500I-13J999978D01*
G01*
X371359500Y-245357500D02*
G75*
G02*
X370359500Y-246357500I-1000000J0D01*
G01*
X365359500Y-246357500D02*
G75*
G02*
X364359500Y-245357500I0J1000000D01*
G01*
X372931525Y-230857500D02*
G75*
G02*
X372065500Y-231357500I-866025J500000D01*
G01*
X364359500Y-232357500D02*
G75*
G02*
X365359500Y-231357500I1000000J0D01*
G01*
X389235500Y-246357500D02*
G75*
G02*
X388235500Y-245357500I0J1000000D01*
G01*
X371359500Y-245357500D02*
G75*
G02*
X372359500Y-244357500I1000000J0D01*
G01*
X364359500Y-245357500D02*
X364359500Y-232357500D01*
X387235500Y-244357500D02*
X372359500Y-244357500D01*
X387529500Y-231357500D02*
X394235500Y-231357500D01*
X370359500Y-246357500D02*
X365359500Y-246357500D01*
X395235500Y-232357500D02*
X395235500Y-245357500D01*
X394235500Y-246357500D02*
X389235500Y-246357500D01*
X373797500Y-230357500D02*
X385797500Y-230357500D01*
X365359500Y-231357500D02*
X372065500Y-231357500D01*
X144348000Y-263407500D02*
G75*
G02*
X145348000Y-264407500I0J-1000000D01*
G01*
X151348000Y-250407500D02*
G75*
G02*
X152348000Y-251407500I0J-1000000D01*
G01*
X128472000Y-264407500D02*
G75*
G02*
X129472000Y-263407500I1000000J0D01*
G01*
X152348000Y-264407500D02*
G75*
G02*
X151348000Y-265407500I-1000000J0D01*
G01*
X142909987Y-249407522D02*
G75*
G02*
X143776000Y-249907500I13J-999978D01*
G01*
X144642013Y-250407478D02*
G75*
G02*
X143776000Y-249907500I-13J999978D01*
G01*
X128472000Y-264407500D02*
G75*
G02*
X127472000Y-265407500I-1000000J0D01*
G01*
X122472000Y-265407500D02*
G75*
G02*
X121472000Y-264407500I0J1000000D01*
G01*
X121472000Y-251407500D02*
G75*
G02*
X122472000Y-250407500I1000000J0D01*
G01*
X146348000Y-265407500D02*
G75*
G02*
X145348000Y-264407500I0J1000000D01*
G01*
X130043975Y-249907500D02*
G75*
G02*
X130910000Y-249407500I866025J-500000D01*
G01*
X130910000Y-249407500D02*
X142910000Y-249407500D01*
X122472000Y-250407500D02*
X129178000Y-250407500D01*
X144642000Y-250407500D02*
X151348000Y-250407500D01*
X127472000Y-265407500D02*
X122472000Y-265407500D01*
X152348000Y-251407500D02*
X152348000Y-264407500D01*
X151348000Y-265407500D02*
X146348000Y-265407500D01*
X121472000Y-264407500D02*
X121472000Y-251407500D01*
X144348000Y-263407500D02*
X129472000Y-263407500D01*
X292990500Y-267825000D02*
G75*
G02*
X293991500Y-266826000I1000000J-1000D01*
G01*
X298991500Y-266826000D02*
G75*
G02*
X299991500Y-267826000I0J-1000000D01*
G01*
X293990500Y-281825000D02*
G75*
G02*
X292991500Y-280826000I0J999000D01*
G01*
X299991500Y-280826000D02*
G75*
G02*
X298991500Y-281826000I-1000000J0D01*
G01*
X359640500Y-268826000D02*
G75*
G02*
X360640500Y-269826000I0J-1000000D01*
G01*
X299991500Y-267826000D02*
X299991500Y-280826000D01*
X298991500Y-281826000D02*
X293991500Y-281826000D01*
X292991500Y-280826000D02*
X292991500Y-267826000D01*
X293991500Y-266826000D02*
X298991500Y-266826000D01*
X359640500Y-282826000D02*
X309540500Y-282826000D01*
X309540500Y-268826000D02*
X359640500Y-268826000D01*
X308540500Y-281826000D02*
X308540500Y-269826000D01*
X360640500Y-281826000D02*
G75*
G02*
X359640500Y-282826000I-1000000J0D01*
G01*
X308540500Y-269826000D02*
G75*
G02*
X309540500Y-268826000I1000000J0D01*
G01*
X309540500Y-282826000D02*
G75*
G02*
X308540500Y-281826000I0J1000000D01*
G01*
X360640500Y-269826000D02*
X360640500Y-281826000D01*
X181844025Y-282299500D02*
G75*
G02*
X180978000Y-282799500I-866025J500000D01*
G01*
X181843975Y-282299500D02*
G75*
G02*
X182710000Y-281799500I866025J-500000D01*
G01*
X167978000Y-269799500D02*
G75*
G02*
X168978000Y-268799500I1000000J0D01*
G01*
X184622000Y-266799500D02*
G75*
G02*
X185622000Y-267799500I0J-1000000D01*
G01*
X178622000Y-267800500D02*
G75*
G02*
X177621000Y-268799500I-1000000J1000D01*
G01*
X178621000Y-267799500D02*
G75*
G02*
X179621000Y-266799500I1000000J0D01*
G01*
X185622000Y-280800500D02*
G75*
G02*
X184621000Y-281799500I-1000000J1000D01*
G01*
X168978000Y-282799500D02*
G75*
G02*
X167978000Y-281799500I0J1000000D01*
G01*
X193915000Y-281799500D02*
G75*
G02*
X192915000Y-280799500I0J1000000D01*
G01*
X198915000Y-266799500D02*
G75*
G02*
X199915000Y-267799500I0J-1000000D01*
G01*
X192915000Y-267799500D02*
G75*
G02*
X193915000Y-266799500I1000000J0D01*
G01*
X199915000Y-280799500D02*
G75*
G02*
X198915000Y-281799500I-1000000J0D01*
G01*
X167978000Y-281799500D02*
X167978000Y-269799500D01*
X180978000Y-282799500D02*
X168978000Y-282799500D01*
X185622000Y-267799500D02*
X185622000Y-280799500D01*
X179621000Y-266799500D02*
X184621000Y-266799500D01*
X184621000Y-281799500D02*
X182710000Y-281799500D01*
X168978000Y-268799500D02*
X177621000Y-268799500D01*
X198915000Y-281799500D02*
X193915000Y-281799500D01*
X192915000Y-280799500D02*
X192915000Y-267799500D01*
X199915000Y-267799500D02*
X199915000Y-280799500D01*
X193915000Y-266799500D02*
X198915000Y-266799500D01*
X461906500Y-282501000D02*
G75*
G02*
X460907500Y-281502000I0J999000D01*
G01*
X473907500Y-268502000D02*
G75*
G02*
X474907500Y-269502000I0J-1000000D01*
G01*
X474907500Y-281502000D02*
G75*
G02*
X473907500Y-282502000I-1000000J0D01*
G01*
X460907500Y-269502000D02*
G75*
G02*
X461907500Y-268502000I1000000J0D01*
G01*
X460907500Y-281502000D02*
X460907500Y-269502000D01*
X473907500Y-282502000D02*
X461907500Y-282502000D01*
X474907500Y-269502000D02*
X474907500Y-281502000D01*
X461907500Y-268502000D02*
X473907500Y-268502000D01*
X442856500Y-282501000D02*
G75*
G02*
X441857500Y-281502000I0J999000D01*
G01*
X454857500Y-268502000D02*
G75*
G02*
X455857500Y-269502000I0J-1000000D01*
G01*
X455857500Y-281502000D02*
G75*
G02*
X454857500Y-282502000I-1000000J0D01*
G01*
X441857500Y-269502000D02*
G75*
G02*
X442857500Y-268502000I1000000J0D01*
G01*
X441857500Y-281502000D02*
X441857500Y-269502000D01*
X454857500Y-282502000D02*
X442857500Y-282502000D01*
X455857500Y-269502000D02*
X455857500Y-281502000D01*
X442857500Y-268502000D02*
X454857500Y-268502000D01*
X414281500Y-291962500D02*
G75*
G02*
X413282500Y-290963500I0J999000D01*
G01*
X426282500Y-277963500D02*
G75*
G02*
X427282500Y-278963500I0J-1000000D01*
G01*
X427282500Y-290963500D02*
G75*
G02*
X426282500Y-291963500I-1000000J0D01*
G01*
X413282500Y-278963500D02*
G75*
G02*
X414282500Y-277963500I1000000J0D01*
G01*
X413282500Y-290963500D02*
X413282500Y-278963500D01*
X426282500Y-291963500D02*
X414282500Y-291963500D01*
X427282500Y-278963500D02*
X427282500Y-290963500D01*
X414282500Y-277963500D02*
X426282500Y-277963500D01*
X395295000Y-292089500D02*
G75*
G02*
X394296000Y-291090500I0J999000D01*
G01*
X407296000Y-278090500D02*
G75*
G02*
X408296000Y-279090500I0J-1000000D01*
G01*
X408296000Y-291090500D02*
G75*
G02*
X407296000Y-292090500I-1000000J0D01*
G01*
X394296000Y-279090500D02*
G75*
G02*
X395296000Y-278090500I1000000J0D01*
G01*
X394296000Y-291090500D02*
X394296000Y-279090500D01*
X407296000Y-292090500D02*
X395296000Y-292090500D01*
X408296000Y-279090500D02*
X408296000Y-291090500D01*
X395296000Y-278090500D02*
X407296000Y-278090500D01*
X376181500Y-292026000D02*
G75*
G02*
X375182500Y-291027000I0J999000D01*
G01*
X388182500Y-278027000D02*
G75*
G02*
X389182500Y-279027000I0J-1000000D01*
G01*
X389182500Y-291027000D02*
G75*
G02*
X388182500Y-292027000I-1000000J0D01*
G01*
X375182500Y-279027000D02*
G75*
G02*
X376182500Y-278027000I1000000J0D01*
G01*
X375182500Y-291027000D02*
X375182500Y-279027000D01*
X388182500Y-292027000D02*
X376182500Y-292027000D01*
X389182500Y-279027000D02*
X389182500Y-291027000D01*
X376182500Y-278027000D02*
X388182500Y-278027000D01*
X252419500Y-268819500D02*
G75*
G02*
X253419500Y-269819500I0J-1000000D01*
G01*
X253419500Y-281819500D02*
G75*
G02*
X252419500Y-282819500I-1000000J0D01*
G01*
X253419500Y-269819500D02*
X253419500Y-281819500D01*
X233370000Y-282818500D02*
G75*
G02*
X232371000Y-281819500I0J999000D01*
G01*
X232371000Y-269819500D02*
G75*
G02*
X233371000Y-268819500I1000000J0D01*
G01*
X232371000Y-281819500D02*
X232371000Y-269819500D01*
X252419500Y-282819500D02*
X233371000Y-282819500D01*
X233371000Y-268819500D02*
X252419500Y-268819500D01*
X164281500Y-268756000D02*
G75*
G02*
X165281500Y-269756000I0J-1000000D01*
G01*
X165281500Y-281756000D02*
G75*
G02*
X164281500Y-282756000I-1000000J0D01*
G01*
X165281500Y-269756000D02*
X165281500Y-281756000D01*
X145233000Y-268756000D02*
X164281500Y-268756000D01*
X145233000Y-282756000D02*
G75*
G02*
X144234000Y-281757000I0J999000D01*
G01*
X144233000Y-269756000D02*
G75*
G02*
X145233000Y-268756000I1000000J0D01*
G01*
X144233000Y-281756000D02*
X144233000Y-269756000D01*
X135770000Y-268756000D02*
G75*
G02*
X136770000Y-269756000I0J-1000000D01*
G01*
X136770000Y-281756000D02*
G75*
G02*
X135770000Y-282756000I-1000000J0D01*
G01*
X136770000Y-269756000D02*
X136770000Y-281756000D01*
X121357000Y-282756000D02*
G75*
G02*
X120358000Y-281757000I0J999000D01*
G01*
X120357000Y-269756000D02*
G75*
G02*
X121357000Y-268756000I1000000J0D01*
G01*
X120357000Y-281756000D02*
X120357000Y-269756000D01*
X135770000Y-282756000D02*
X121357000Y-282756000D01*
X121357000Y-268756000D02*
X135770000Y-268756000D01*
X461906500Y-263451000D02*
G75*
G02*
X460907500Y-262452000I0J999000D01*
G01*
X473907500Y-249452000D02*
G75*
G02*
X474907500Y-250452000I0J-1000000D01*
G01*
X474907500Y-262452000D02*
G75*
G02*
X473907500Y-263452000I-1000000J0D01*
G01*
X460907500Y-250452000D02*
G75*
G02*
X461907500Y-249452000I1000000J0D01*
G01*
X460907500Y-262452000D02*
X460907500Y-250452000D01*
X473907500Y-263452000D02*
X461907500Y-263452000D01*
X474907500Y-250452000D02*
X474907500Y-262452000D01*
X461907500Y-249452000D02*
X473907500Y-249452000D01*
X442856500Y-263451000D02*
G75*
G02*
X441857500Y-262452000I0J999000D01*
G01*
X454857500Y-249452000D02*
G75*
G02*
X455857500Y-250452000I0J-1000000D01*
G01*
X455857500Y-262452000D02*
G75*
G02*
X454857500Y-263452000I-1000000J0D01*
G01*
X441857500Y-250452000D02*
G75*
G02*
X442857500Y-249452000I1000000J0D01*
G01*
X441857500Y-262452000D02*
X441857500Y-250452000D01*
X454857500Y-263452000D02*
X442857500Y-263452000D01*
X455857500Y-250452000D02*
X455857500Y-262452000D01*
X442857500Y-249452000D02*
X454857500Y-249452000D01*
X423806500Y-263451000D02*
G75*
G02*
X422807500Y-262452000I0J999000D01*
G01*
X435807500Y-249452000D02*
G75*
G02*
X436807500Y-250452000I0J-1000000D01*
G01*
X436807500Y-262452000D02*
G75*
G02*
X435807500Y-263452000I-1000000J0D01*
G01*
X422807500Y-250452000D02*
G75*
G02*
X423807500Y-249452000I1000000J0D01*
G01*
X422807500Y-262452000D02*
X422807500Y-250452000D01*
X435807500Y-263452000D02*
X423807500Y-263452000D01*
X436807500Y-250452000D02*
X436807500Y-262452000D01*
X423807500Y-249452000D02*
X435807500Y-249452000D01*
X395231500Y-272912500D02*
G75*
G02*
X394232500Y-271913500I0J999000D01*
G01*
X407232500Y-258913500D02*
G75*
G02*
X408232500Y-259913500I0J-1000000D01*
G01*
X408232500Y-271913500D02*
G75*
G02*
X407232500Y-272913500I-1000000J0D01*
G01*
X394232500Y-259913500D02*
G75*
G02*
X395232500Y-258913500I1000000J0D01*
G01*
X394232500Y-271913500D02*
X394232500Y-259913500D01*
X407232500Y-272913500D02*
X395232500Y-272913500D01*
X408232500Y-259913500D02*
X408232500Y-271913500D01*
X395232500Y-258913500D02*
X407232500Y-258913500D01*
X359481000Y-263451000D02*
G75*
G02*
X358482000Y-262452000I0J999000D01*
G01*
X371482000Y-249452000D02*
G75*
G02*
X372482000Y-250452000I0J-1000000D01*
G01*
X372482000Y-262452000D02*
G75*
G02*
X371482000Y-263452000I-1000000J0D01*
G01*
X358482000Y-250452000D02*
G75*
G02*
X359482000Y-249452000I1000000J0D01*
G01*
X358482000Y-262452000D02*
X358482000Y-250452000D01*
X371482000Y-263452000D02*
X359482000Y-263452000D01*
X372482000Y-250452000D02*
X372482000Y-262452000D01*
X359482000Y-249452000D02*
X371482000Y-249452000D01*
X333319000Y-263451000D02*
G75*
G02*
X332320000Y-262452000I0J999000D01*
G01*
X345320000Y-249452000D02*
G75*
G02*
X346320000Y-250452000I0J-1000000D01*
G01*
X346320000Y-262452000D02*
G75*
G02*
X345320000Y-263452000I-1000000J0D01*
G01*
X332320000Y-250452000D02*
G75*
G02*
X333320000Y-249452000I1000000J0D01*
G01*
X332320000Y-262452000D02*
X332320000Y-250452000D01*
X345320000Y-263452000D02*
X333320000Y-263452000D01*
X346320000Y-250452000D02*
X346320000Y-262452000D01*
X333320000Y-249452000D02*
X345320000Y-249452000D01*
X314269000Y-263451000D02*
G75*
G02*
X313270000Y-262452000I0J999000D01*
G01*
X326270000Y-249452000D02*
G75*
G02*
X327270000Y-250452000I0J-1000000D01*
G01*
X327270000Y-262452000D02*
G75*
G02*
X326270000Y-263452000I-1000000J0D01*
G01*
X313270000Y-250452000D02*
G75*
G02*
X314270000Y-249452000I1000000J0D01*
G01*
X313270000Y-262452000D02*
X313270000Y-250452000D01*
X326270000Y-263452000D02*
X314270000Y-263452000D01*
X327270000Y-250452000D02*
X327270000Y-262452000D01*
X314270000Y-249452000D02*
X326270000Y-249452000D01*
X295155500Y-263451000D02*
G75*
G02*
X294156500Y-262452000I0J999000D01*
G01*
X307156500Y-249452000D02*
G75*
G02*
X308156500Y-250452000I0J-1000000D01*
G01*
X308156500Y-262452000D02*
G75*
G02*
X307156500Y-263452000I-1000000J0D01*
G01*
X294156500Y-250452000D02*
G75*
G02*
X295156500Y-249452000I1000000J0D01*
G01*
X294156500Y-262452000D02*
X294156500Y-250452000D01*
X307156500Y-263452000D02*
X295156500Y-263452000D01*
X308156500Y-250452000D02*
X308156500Y-262452000D01*
X295156500Y-249452000D02*
X307156500Y-249452000D01*
X276105500Y-263451000D02*
G75*
G02*
X275106500Y-262452000I0J999000D01*
G01*
X288106500Y-249452000D02*
G75*
G02*
X289106500Y-250452000I0J-1000000D01*
G01*
X289106500Y-262452000D02*
G75*
G02*
X288106500Y-263452000I-1000000J0D01*
G01*
X275106500Y-250452000D02*
G75*
G02*
X276106500Y-249452000I1000000J0D01*
G01*
X275106500Y-262452000D02*
X275106500Y-250452000D01*
X288106500Y-263452000D02*
X276106500Y-263452000D01*
X289106500Y-250452000D02*
X289106500Y-262452000D01*
X276106500Y-249452000D02*
X288106500Y-249452000D01*
X257119000Y-263451000D02*
G75*
G02*
X256120000Y-262452000I0J999000D01*
G01*
X269120000Y-249452000D02*
G75*
G02*
X270120000Y-250452000I0J-1000000D01*
G01*
X270120000Y-262452000D02*
G75*
G02*
X269120000Y-263452000I-1000000J0D01*
G01*
X256120000Y-250452000D02*
G75*
G02*
X257120000Y-249452000I1000000J0D01*
G01*
X256120000Y-262452000D02*
X256120000Y-250452000D01*
X269120000Y-263452000D02*
X257120000Y-263452000D01*
X270120000Y-250452000D02*
X270120000Y-262452000D01*
X257120000Y-249452000D02*
X269120000Y-249452000D01*
X238069000Y-263451000D02*
G75*
G02*
X237070000Y-262452000I0J999000D01*
G01*
X250070000Y-249452000D02*
G75*
G02*
X251070000Y-250452000I0J-1000000D01*
G01*
X251070000Y-262452000D02*
G75*
G02*
X250070000Y-263452000I-1000000J0D01*
G01*
X237070000Y-250452000D02*
G75*
G02*
X238070000Y-249452000I1000000J0D01*
G01*
X237070000Y-262452000D02*
X237070000Y-250452000D01*
X250070000Y-263452000D02*
X238070000Y-263452000D01*
X251070000Y-250452000D02*
X251070000Y-262452000D01*
X238070000Y-249452000D02*
X250070000Y-249452000D01*
X219019000Y-263451000D02*
G75*
G02*
X218020000Y-262452000I0J999000D01*
G01*
X231020000Y-249452000D02*
G75*
G02*
X232020000Y-250452000I0J-1000000D01*
G01*
X232020000Y-262452000D02*
G75*
G02*
X231020000Y-263452000I-1000000J0D01*
G01*
X218020000Y-250452000D02*
G75*
G02*
X219020000Y-249452000I1000000J0D01*
G01*
X218020000Y-262452000D02*
X218020000Y-250452000D01*
X231020000Y-263452000D02*
X219020000Y-263452000D01*
X232020000Y-250452000D02*
X232020000Y-262452000D01*
X219020000Y-249452000D02*
X231020000Y-249452000D01*
X199905500Y-263451000D02*
G75*
G02*
X198906500Y-262452000I0J999000D01*
G01*
X211906500Y-249452000D02*
G75*
G02*
X212906500Y-250452000I0J-1000000D01*
G01*
X212906500Y-262452000D02*
G75*
G02*
X211906500Y-263452000I-1000000J0D01*
G01*
X198906500Y-250452000D02*
G75*
G02*
X199906500Y-249452000I1000000J0D01*
G01*
X198906500Y-262452000D02*
X198906500Y-250452000D01*
X211906500Y-263452000D02*
X199906500Y-263452000D01*
X212906500Y-250452000D02*
X212906500Y-262452000D01*
X199906500Y-249452000D02*
X211906500Y-249452000D01*
X180919000Y-263451000D02*
G75*
G02*
X179920000Y-262452000I0J999000D01*
G01*
X192920000Y-249452000D02*
G75*
G02*
X193920000Y-250452000I0J-1000000D01*
G01*
X193920000Y-262452000D02*
G75*
G02*
X192920000Y-263452000I-1000000J0D01*
G01*
X179920000Y-250452000D02*
G75*
G02*
X180920000Y-249452000I1000000J0D01*
G01*
X179920000Y-262452000D02*
X179920000Y-250452000D01*
X192920000Y-263452000D02*
X180920000Y-263452000D01*
X193920000Y-250452000D02*
X193920000Y-262452000D01*
X180920000Y-249452000D02*
X192920000Y-249452000D01*
X161869000Y-263451000D02*
G75*
G02*
X160870000Y-262452000I0J999000D01*
G01*
X173870000Y-249452000D02*
G75*
G02*
X174870000Y-250452000I0J-1000000D01*
G01*
X174870000Y-262452000D02*
G75*
G02*
X173870000Y-263452000I-1000000J0D01*
G01*
X160870000Y-250452000D02*
G75*
G02*
X161870000Y-249452000I1000000J0D01*
G01*
X160870000Y-262452000D02*
X160870000Y-250452000D01*
X173870000Y-263452000D02*
X161870000Y-263452000D01*
X174870000Y-250452000D02*
X174870000Y-262452000D01*
X161870000Y-249452000D02*
X173870000Y-249452000D01*
X461906500Y-244401000D02*
G75*
G02*
X460907500Y-243402000I0J999000D01*
G01*
X473907500Y-230402000D02*
G75*
G02*
X474907500Y-231402000I0J-1000000D01*
G01*
X474907500Y-243402000D02*
G75*
G02*
X473907500Y-244402000I-1000000J0D01*
G01*
X460907500Y-231402000D02*
G75*
G02*
X461907500Y-230402000I1000000J0D01*
G01*
X460907500Y-243402000D02*
X460907500Y-231402000D01*
X473907500Y-244402000D02*
X461907500Y-244402000D01*
X474907500Y-231402000D02*
X474907500Y-243402000D01*
X461907500Y-230402000D02*
X473907500Y-230402000D01*
X442856500Y-244401000D02*
G75*
G02*
X441857500Y-243402000I0J999000D01*
G01*
X454857500Y-230402000D02*
G75*
G02*
X455857500Y-231402000I0J-1000000D01*
G01*
X455857500Y-243402000D02*
G75*
G02*
X454857500Y-244402000I-1000000J0D01*
G01*
X441857500Y-231402000D02*
G75*
G02*
X442857500Y-230402000I1000000J0D01*
G01*
X441857500Y-243402000D02*
X441857500Y-231402000D01*
X454857500Y-244402000D02*
X442857500Y-244402000D01*
X455857500Y-231402000D02*
X455857500Y-243402000D01*
X442857500Y-230402000D02*
X454857500Y-230402000D01*
X423806500Y-244401000D02*
G75*
G02*
X422807500Y-243402000I0J999000D01*
G01*
X435807500Y-230402000D02*
G75*
G02*
X436807500Y-231402000I0J-1000000D01*
G01*
X436807500Y-243402000D02*
G75*
G02*
X435807500Y-244402000I-1000000J0D01*
G01*
X422807500Y-231402000D02*
G75*
G02*
X423807500Y-230402000I1000000J0D01*
G01*
X422807500Y-243402000D02*
X422807500Y-231402000D01*
X435807500Y-244402000D02*
X423807500Y-244402000D01*
X436807500Y-231402000D02*
X436807500Y-243402000D01*
X423807500Y-230402000D02*
X435807500Y-230402000D01*
X342844000Y-244401000D02*
G75*
G02*
X341845000Y-243402000I0J999000D01*
G01*
X354845000Y-230402000D02*
G75*
G02*
X355845000Y-231402000I0J-1000000D01*
G01*
X355845000Y-243402000D02*
G75*
G02*
X354845000Y-244402000I-1000000J0D01*
G01*
X341845000Y-231402000D02*
G75*
G02*
X342845000Y-230402000I1000000J0D01*
G01*
X341845000Y-243402000D02*
X341845000Y-231402000D01*
X354845000Y-244402000D02*
X342845000Y-244402000D01*
X355845000Y-231402000D02*
X355845000Y-243402000D01*
X342845000Y-230402000D02*
X354845000Y-230402000D01*
X323794000Y-244401000D02*
G75*
G02*
X322795000Y-243402000I0J999000D01*
G01*
X335795000Y-230402000D02*
G75*
G02*
X336795000Y-231402000I0J-1000000D01*
G01*
X336795000Y-243402000D02*
G75*
G02*
X335795000Y-244402000I-1000000J0D01*
G01*
X322795000Y-231402000D02*
G75*
G02*
X323795000Y-230402000I1000000J0D01*
G01*
X322795000Y-243402000D02*
X322795000Y-231402000D01*
X335795000Y-244402000D02*
X323795000Y-244402000D01*
X336795000Y-231402000D02*
X336795000Y-243402000D01*
X323795000Y-230402000D02*
X335795000Y-230402000D01*
X304744000Y-244401000D02*
G75*
G02*
X303745000Y-243402000I0J999000D01*
G01*
X316745000Y-230402000D02*
G75*
G02*
X317745000Y-231402000I0J-1000000D01*
G01*
X317745000Y-243402000D02*
G75*
G02*
X316745000Y-244402000I-1000000J0D01*
G01*
X303745000Y-231402000D02*
G75*
G02*
X304745000Y-230402000I1000000J0D01*
G01*
X303745000Y-243402000D02*
X303745000Y-231402000D01*
X316745000Y-244402000D02*
X304745000Y-244402000D01*
X317745000Y-231402000D02*
X317745000Y-243402000D01*
X304745000Y-230402000D02*
X316745000Y-230402000D01*
X285630500Y-244401000D02*
G75*
G02*
X284631500Y-243402000I0J999000D01*
G01*
X297631500Y-230402000D02*
G75*
G02*
X298631500Y-231402000I0J-1000000D01*
G01*
X298631500Y-243402000D02*
G75*
G02*
X297631500Y-244402000I-1000000J0D01*
G01*
X284631500Y-231402000D02*
G75*
G02*
X285631500Y-230402000I1000000J0D01*
G01*
X284631500Y-243402000D02*
X284631500Y-231402000D01*
X297631500Y-244402000D02*
X285631500Y-244402000D01*
X298631500Y-231402000D02*
X298631500Y-243402000D01*
X285631500Y-230402000D02*
X297631500Y-230402000D01*
X266580500Y-244401000D02*
G75*
G02*
X265581500Y-243402000I0J999000D01*
G01*
X278581500Y-230402000D02*
G75*
G02*
X279581500Y-231402000I0J-1000000D01*
G01*
X279581500Y-243402000D02*
G75*
G02*
X278581500Y-244402000I-1000000J0D01*
G01*
X265581500Y-231402000D02*
G75*
G02*
X266581500Y-230402000I1000000J0D01*
G01*
X265581500Y-243402000D02*
X265581500Y-231402000D01*
X278581500Y-244402000D02*
X266581500Y-244402000D01*
X279581500Y-231402000D02*
X279581500Y-243402000D01*
X266581500Y-230402000D02*
X278581500Y-230402000D01*
X247594000Y-244401000D02*
G75*
G02*
X246595000Y-243402000I0J999000D01*
G01*
X259595000Y-230402000D02*
G75*
G02*
X260595000Y-231402000I0J-1000000D01*
G01*
X260595000Y-243402000D02*
G75*
G02*
X259595000Y-244402000I-1000000J0D01*
G01*
X246595000Y-231402000D02*
G75*
G02*
X247595000Y-230402000I1000000J0D01*
G01*
X246595000Y-243402000D02*
X246595000Y-231402000D01*
X259595000Y-244402000D02*
X247595000Y-244402000D01*
X260595000Y-231402000D02*
X260595000Y-243402000D01*
X247595000Y-230402000D02*
X259595000Y-230402000D01*
X228671000Y-244401000D02*
G75*
G02*
X227672000Y-243402000I0J999000D01*
G01*
X240672000Y-230402000D02*
G75*
G02*
X241672000Y-231402000I0J-1000000D01*
G01*
X241672000Y-243402000D02*
G75*
G02*
X240672000Y-244402000I-1000000J0D01*
G01*
X227672000Y-231402000D02*
G75*
G02*
X228672000Y-230402000I1000000J0D01*
G01*
X227672000Y-243402000D02*
X227672000Y-231402000D01*
X240672000Y-244402000D02*
X228672000Y-244402000D01*
X241672000Y-231402000D02*
X241672000Y-243402000D01*
X228672000Y-230402000D02*
X240672000Y-230402000D01*
X209621000Y-244401000D02*
G75*
G02*
X208622000Y-243402000I0J999000D01*
G01*
X221622000Y-230402000D02*
G75*
G02*
X222622000Y-231402000I0J-1000000D01*
G01*
X222622000Y-243402000D02*
G75*
G02*
X221622000Y-244402000I-1000000J0D01*
G01*
X208622000Y-231402000D02*
G75*
G02*
X209622000Y-230402000I1000000J0D01*
G01*
X208622000Y-243402000D02*
X208622000Y-231402000D01*
X221622000Y-244402000D02*
X209622000Y-244402000D01*
X222622000Y-231402000D02*
X222622000Y-243402000D01*
X209622000Y-230402000D02*
X221622000Y-230402000D01*
X190571000Y-244401000D02*
G75*
G02*
X189572000Y-243402000I0J999000D01*
G01*
X202572000Y-230402000D02*
G75*
G02*
X203572000Y-231402000I0J-1000000D01*
G01*
X203572000Y-243402000D02*
G75*
G02*
X202572000Y-244402000I-1000000J0D01*
G01*
X189572000Y-231402000D02*
G75*
G02*
X190572000Y-230402000I1000000J0D01*
G01*
X189572000Y-243402000D02*
X189572000Y-231402000D01*
X202572000Y-244402000D02*
X190572000Y-244402000D01*
X203572000Y-231402000D02*
X203572000Y-243402000D01*
X190572000Y-230402000D02*
X202572000Y-230402000D01*
X171394000Y-244401000D02*
G75*
G02*
X170395000Y-243402000I0J999000D01*
G01*
X183395000Y-230402000D02*
G75*
G02*
X184395000Y-231402000I0J-1000000D01*
G01*
X184395000Y-243402000D02*
G75*
G02*
X183395000Y-244402000I-1000000J0D01*
G01*
X170395000Y-231402000D02*
G75*
G02*
X171395000Y-230402000I1000000J0D01*
G01*
X170395000Y-243402000D02*
X170395000Y-231402000D01*
X183395000Y-244402000D02*
X171395000Y-244402000D01*
X184395000Y-231402000D02*
X184395000Y-243402000D01*
X171395000Y-230402000D02*
X183395000Y-230402000D01*
X152280500Y-244401000D02*
G75*
G02*
X151281500Y-243402000I0J999000D01*
G01*
X164281500Y-230402000D02*
G75*
G02*
X165281500Y-231402000I0J-1000000D01*
G01*
X165281500Y-243402000D02*
G75*
G02*
X164281500Y-244402000I-1000000J0D01*
G01*
X151281500Y-231402000D02*
G75*
G02*
X152281500Y-230402000I1000000J0D01*
G01*
X151281500Y-243402000D02*
X151281500Y-231402000D01*
X164281500Y-244402000D02*
X152281500Y-244402000D01*
X165281500Y-231402000D02*
X165281500Y-243402000D01*
X152281500Y-230402000D02*
X164281500Y-230402000D01*
X138119500Y-230402000D02*
G75*
G02*
X139119500Y-231402000I0J-1000000D01*
G01*
X139119500Y-243402000D02*
G75*
G02*
X138119500Y-244402000I-1000000J0D01*
G01*
X139119500Y-231402000D02*
X139119500Y-243402000D01*
X121356000Y-244401000D02*
G75*
G02*
X120357000Y-243402000I0J999000D01*
G01*
X120357000Y-231402000D02*
G75*
G02*
X121357000Y-230402000I1000000J0D01*
G01*
X120357000Y-243402000D02*
X120357000Y-231402000D01*
X138119500Y-244402000D02*
X121357000Y-244402000D01*
X121357000Y-230402000D02*
X138119500Y-230402000D01*
X461843000Y-225351000D02*
G75*
G02*
X460844000Y-224352000I0J999000D01*
G01*
X473844000Y-211352000D02*
G75*
G02*
X474844000Y-212352000I0J-1000000D01*
G01*
X474844000Y-224352000D02*
G75*
G02*
X473844000Y-225352000I-1000000J0D01*
G01*
X460844000Y-212352000D02*
G75*
G02*
X461844000Y-211352000I1000000J0D01*
G01*
X460844000Y-224352000D02*
X460844000Y-212352000D01*
X473844000Y-225352000D02*
X461844000Y-225352000D01*
X474844000Y-212352000D02*
X474844000Y-224352000D01*
X461844000Y-211352000D02*
X473844000Y-211352000D01*
X442856500Y-225351000D02*
G75*
G02*
X441857500Y-224352000I0J999000D01*
G01*
X454857500Y-211352000D02*
G75*
G02*
X455857500Y-212352000I0J-1000000D01*
G01*
X455857500Y-224352000D02*
G75*
G02*
X454857500Y-225352000I-1000000J0D01*
G01*
X441857500Y-212352000D02*
G75*
G02*
X442857500Y-211352000I1000000J0D01*
G01*
X441857500Y-224352000D02*
X441857500Y-212352000D01*
X454857500Y-225352000D02*
X442857500Y-225352000D01*
X455857500Y-212352000D02*
X455857500Y-224352000D01*
X442857500Y-211352000D02*
X454857500Y-211352000D01*
X423806500Y-225351000D02*
G75*
G02*
X422807500Y-224352000I0J999000D01*
G01*
X435807500Y-211352000D02*
G75*
G02*
X436807500Y-212352000I0J-1000000D01*
G01*
X436807500Y-224352000D02*
G75*
G02*
X435807500Y-225352000I-1000000J0D01*
G01*
X422807500Y-212352000D02*
G75*
G02*
X423807500Y-211352000I1000000J0D01*
G01*
X422807500Y-224352000D02*
X422807500Y-212352000D01*
X435807500Y-225352000D02*
X423807500Y-225352000D01*
X436807500Y-212352000D02*
X436807500Y-224352000D01*
X423807500Y-211352000D02*
X435807500Y-211352000D01*
X381071000Y-225351000D02*
G75*
G02*
X380072000Y-224352000I0J999000D01*
G01*
X393072000Y-211352000D02*
G75*
G02*
X394072000Y-212352000I0J-1000000D01*
G01*
X394072000Y-224352000D02*
G75*
G02*
X393072000Y-225352000I-1000000J0D01*
G01*
X380072000Y-212352000D02*
G75*
G02*
X381072000Y-211352000I1000000J0D01*
G01*
X380072000Y-224352000D02*
X380072000Y-212352000D01*
X393072000Y-225352000D02*
X381072000Y-225352000D01*
X394072000Y-212352000D02*
X394072000Y-224352000D01*
X381072000Y-211352000D02*
X393072000Y-211352000D01*
X357131500Y-225351000D02*
G75*
G02*
X356132500Y-224352000I0J999000D01*
G01*
X369132500Y-211352000D02*
G75*
G02*
X370132500Y-212352000I0J-1000000D01*
G01*
X370132500Y-224352000D02*
G75*
G02*
X369132500Y-225352000I-1000000J0D01*
G01*
X356132500Y-212352000D02*
G75*
G02*
X357132500Y-211352000I1000000J0D01*
G01*
X356132500Y-224352000D02*
X356132500Y-212352000D01*
X369132500Y-225352000D02*
X357132500Y-225352000D01*
X370132500Y-212352000D02*
X370132500Y-224352000D01*
X357132500Y-211352000D02*
X369132500Y-211352000D01*
X338081500Y-225351000D02*
G75*
G02*
X337082500Y-224352000I0J999000D01*
G01*
X350082500Y-211352000D02*
G75*
G02*
X351082500Y-212352000I0J-1000000D01*
G01*
X351082500Y-224352000D02*
G75*
G02*
X350082500Y-225352000I-1000000J0D01*
G01*
X337082500Y-212352000D02*
G75*
G02*
X338082500Y-211352000I1000000J0D01*
G01*
X337082500Y-224352000D02*
X337082500Y-212352000D01*
X350082500Y-225352000D02*
X338082500Y-225352000D01*
X351082500Y-212352000D02*
X351082500Y-224352000D01*
X338082500Y-211352000D02*
X350082500Y-211352000D01*
X319031500Y-225351000D02*
G75*
G02*
X318032500Y-224352000I0J999000D01*
G01*
X331032500Y-211352000D02*
G75*
G02*
X332032500Y-212352000I0J-1000000D01*
G01*
X332032500Y-224352000D02*
G75*
G02*
X331032500Y-225352000I-1000000J0D01*
G01*
X318032500Y-212352000D02*
G75*
G02*
X319032500Y-211352000I1000000J0D01*
G01*
X318032500Y-224352000D02*
X318032500Y-212352000D01*
X331032500Y-225352000D02*
X319032500Y-225352000D01*
X332032500Y-212352000D02*
X332032500Y-224352000D01*
X319032500Y-211352000D02*
X331032500Y-211352000D01*
X299981500Y-225351000D02*
G75*
G02*
X298982500Y-224352000I0J999000D01*
G01*
X311982500Y-211352000D02*
G75*
G02*
X312982500Y-212352000I0J-1000000D01*
G01*
X312982500Y-224352000D02*
G75*
G02*
X311982500Y-225352000I-1000000J0D01*
G01*
X298982500Y-212352000D02*
G75*
G02*
X299982500Y-211352000I1000000J0D01*
G01*
X298982500Y-224352000D02*
X298982500Y-212352000D01*
X311982500Y-225352000D02*
X299982500Y-225352000D01*
X312982500Y-212352000D02*
X312982500Y-224352000D01*
X299982500Y-211352000D02*
X311982500Y-211352000D01*
X280868000Y-225351000D02*
G75*
G02*
X279869000Y-224352000I0J999000D01*
G01*
X292869000Y-211352000D02*
G75*
G02*
X293869000Y-212352000I0J-1000000D01*
G01*
X293869000Y-224352000D02*
G75*
G02*
X292869000Y-225352000I-1000000J0D01*
G01*
X279869000Y-212352000D02*
G75*
G02*
X280869000Y-211352000I1000000J0D01*
G01*
X279869000Y-224352000D02*
X279869000Y-212352000D01*
X292869000Y-225352000D02*
X280869000Y-225352000D01*
X293869000Y-212352000D02*
X293869000Y-224352000D01*
X280869000Y-211352000D02*
X292869000Y-211352000D01*
X261881500Y-225351000D02*
G75*
G02*
X260882500Y-224352000I0J999000D01*
G01*
X273882500Y-211352000D02*
G75*
G02*
X274882500Y-212352000I0J-1000000D01*
G01*
X274882500Y-224352000D02*
G75*
G02*
X273882500Y-225352000I-1000000J0D01*
G01*
X260882500Y-212352000D02*
G75*
G02*
X261882500Y-211352000I1000000J0D01*
G01*
X260882500Y-224352000D02*
X260882500Y-212352000D01*
X273882500Y-225352000D02*
X261882500Y-225352000D01*
X274882500Y-212352000D02*
X274882500Y-224352000D01*
X261882500Y-211352000D02*
X273882500Y-211352000D01*
X242789000Y-225349000D02*
G75*
G02*
X241790000Y-224350000I0J999000D01*
G01*
X254790000Y-211350000D02*
G75*
G02*
X255790000Y-212350000I0J-1000000D01*
G01*
X255790000Y-224350000D02*
G75*
G02*
X254790000Y-225350000I-1000000J0D01*
G01*
X241790000Y-212350000D02*
G75*
G02*
X242790000Y-211350000I1000000J0D01*
G01*
X241790000Y-224350000D02*
X241790000Y-212350000D01*
X254790000Y-225350000D02*
X242790000Y-225350000D01*
X255790000Y-212350000D02*
X255790000Y-224350000D01*
X242790000Y-211350000D02*
X254790000Y-211350000D01*
X223759000Y-225319000D02*
G75*
G02*
X222760000Y-224320000I0J999000D01*
G01*
X235760000Y-211320000D02*
G75*
G02*
X236760000Y-212320000I0J-1000000D01*
G01*
X236760000Y-224320000D02*
G75*
G02*
X235760000Y-225320000I-1000000J0D01*
G01*
X222760000Y-212320000D02*
G75*
G02*
X223760000Y-211320000I1000000J0D01*
G01*
X222760000Y-224320000D02*
X222760000Y-212320000D01*
X235760000Y-225320000D02*
X223760000Y-225320000D01*
X236760000Y-212320000D02*
X236760000Y-224320000D01*
X223760000Y-211320000D02*
X235760000Y-211320000D01*
X204699000Y-225379000D02*
G75*
G02*
X203700000Y-224380000I0J999000D01*
G01*
X216700000Y-211380000D02*
G75*
G02*
X217700000Y-212380000I0J-1000000D01*
G01*
X217700000Y-224380000D02*
G75*
G02*
X216700000Y-225380000I-1000000J0D01*
G01*
X203700000Y-212380000D02*
G75*
G02*
X204700000Y-211380000I1000000J0D01*
G01*
X203700000Y-224380000D02*
X203700000Y-212380000D01*
X216700000Y-225380000D02*
X204700000Y-225380000D01*
X217700000Y-212380000D02*
X217700000Y-224380000D01*
X204700000Y-211380000D02*
X216700000Y-211380000D01*
X185659000Y-225369000D02*
G75*
G02*
X184660000Y-224370000I0J999000D01*
G01*
X197660000Y-211370000D02*
G75*
G02*
X198660000Y-212370000I0J-1000000D01*
G01*
X198660000Y-224370000D02*
G75*
G02*
X197660000Y-225370000I-1000000J0D01*
G01*
X184660000Y-212370000D02*
G75*
G02*
X185660000Y-211370000I1000000J0D01*
G01*
X184660000Y-224370000D02*
X184660000Y-212370000D01*
X197660000Y-225370000D02*
X185660000Y-225370000D01*
X198660000Y-212370000D02*
X198660000Y-224370000D01*
X185660000Y-211370000D02*
X197660000Y-211370000D01*
X166589000Y-225339000D02*
G75*
G02*
X165590000Y-224340000I0J999000D01*
G01*
X178590000Y-211340000D02*
G75*
G02*
X179590000Y-212340000I0J-1000000D01*
G01*
X179590000Y-224340000D02*
G75*
G02*
X178590000Y-225340000I-1000000J0D01*
G01*
X165590000Y-212340000D02*
G75*
G02*
X166590000Y-211340000I1000000J0D01*
G01*
X165590000Y-224340000D02*
X165590000Y-212340000D01*
X178590000Y-225340000D02*
X166590000Y-225340000D01*
X179590000Y-212340000D02*
X179590000Y-224340000D01*
X166590000Y-211340000D02*
X178590000Y-211340000D01*
X147559000Y-225349000D02*
G75*
G02*
X146560000Y-224350000I0J999000D01*
G01*
X159560000Y-211350000D02*
G75*
G02*
X160560000Y-212350000I0J-1000000D01*
G01*
X160560000Y-224350000D02*
G75*
G02*
X159560000Y-225350000I-1000000J0D01*
G01*
X146560000Y-212350000D02*
G75*
G02*
X147560000Y-211350000I1000000J0D01*
G01*
X146560000Y-224350000D02*
X146560000Y-212350000D01*
X159560000Y-225350000D02*
X147560000Y-225350000D01*
X160560000Y-212350000D02*
X160560000Y-224350000D01*
X147560000Y-211350000D02*
X159560000Y-211350000D01*
X123739000Y-225339000D02*
G75*
G02*
X122740000Y-224340000I0J999000D01*
G01*
X135740000Y-211340000D02*
G75*
G02*
X136740000Y-212340000I0J-1000000D01*
G01*
X136740000Y-224340000D02*
G75*
G02*
X135740000Y-225340000I-1000000J0D01*
G01*
X122740000Y-212340000D02*
G75*
G02*
X123740000Y-211340000I1000000J0D01*
G01*
X122740000Y-224340000D02*
X122740000Y-212340000D01*
X135740000Y-225340000D02*
X123740000Y-225340000D01*
X136740000Y-212340000D02*
X136740000Y-224340000D01*
X123740000Y-211340000D02*
X135740000Y-211340000D01*
X480949000Y-206299000D02*
G75*
G02*
X479950000Y-205300000I0J999000D01*
G01*
X492950000Y-192300000D02*
G75*
G02*
X493950000Y-193300000I0J-1000000D01*
G01*
X493950000Y-205300000D02*
G75*
G02*
X492950000Y-206300000I-1000000J0D01*
G01*
X479950000Y-193300000D02*
G75*
G02*
X480950000Y-192300000I1000000J0D01*
G01*
X479950000Y-205300000D02*
X479950000Y-193300000D01*
X492950000Y-206300000D02*
X480950000Y-206300000D01*
X493950000Y-193300000D02*
X493950000Y-205300000D01*
X480950000Y-192300000D02*
X492950000Y-192300000D01*
X461869000Y-206299000D02*
G75*
G02*
X460870000Y-205300000I0J999000D01*
G01*
X473870000Y-192300000D02*
G75*
G02*
X474870000Y-193300000I0J-1000000D01*
G01*
X474870000Y-205300000D02*
G75*
G02*
X473870000Y-206300000I-1000000J0D01*
G01*
X460870000Y-193300000D02*
G75*
G02*
X461870000Y-192300000I1000000J0D01*
G01*
X460870000Y-205300000D02*
X460870000Y-193300000D01*
X473870000Y-206300000D02*
X461870000Y-206300000D01*
X474870000Y-193300000D02*
X474870000Y-205300000D01*
X461870000Y-192300000D02*
X473870000Y-192300000D01*
X442819000Y-206279000D02*
G75*
G02*
X441820000Y-205280000I0J999000D01*
G01*
X454820000Y-192280000D02*
G75*
G02*
X455820000Y-193280000I0J-1000000D01*
G01*
X455820000Y-205280000D02*
G75*
G02*
X454820000Y-206280000I-1000000J0D01*
G01*
X441820000Y-193280000D02*
G75*
G02*
X442820000Y-192280000I1000000J0D01*
G01*
X441820000Y-205280000D02*
X441820000Y-193280000D01*
X454820000Y-206280000D02*
X442820000Y-206280000D01*
X455820000Y-193280000D02*
X455820000Y-205280000D01*
X442820000Y-192280000D02*
X454820000Y-192280000D01*
X423809000Y-206299000D02*
G75*
G02*
X422810000Y-205300000I0J999000D01*
G01*
X435810000Y-192300000D02*
G75*
G02*
X436810000Y-193300000I0J-1000000D01*
G01*
X436810000Y-205300000D02*
G75*
G02*
X435810000Y-206300000I-1000000J0D01*
G01*
X422810000Y-193300000D02*
G75*
G02*
X423810000Y-192300000I1000000J0D01*
G01*
X422810000Y-205300000D02*
X422810000Y-193300000D01*
X435810000Y-206300000D02*
X423810000Y-206300000D01*
X436810000Y-193300000D02*
X436810000Y-205300000D01*
X423810000Y-192300000D02*
X435810000Y-192300000D01*
X347589000Y-206269000D02*
G75*
G02*
X346590000Y-205270000I0J999000D01*
G01*
X359590000Y-192270000D02*
G75*
G02*
X360590000Y-193270000I0J-1000000D01*
G01*
X360590000Y-205270000D02*
G75*
G02*
X359590000Y-206270000I-1000000J0D01*
G01*
X346590000Y-193270000D02*
G75*
G02*
X347590000Y-192270000I1000000J0D01*
G01*
X346590000Y-205270000D02*
X346590000Y-193270000D01*
X359590000Y-206270000D02*
X347590000Y-206270000D01*
X360590000Y-193270000D02*
X360590000Y-205270000D01*
X347590000Y-192270000D02*
X359590000Y-192270000D01*
X328559000Y-206269000D02*
G75*
G02*
X327560000Y-205270000I0J999000D01*
G01*
X340560000Y-192270000D02*
G75*
G02*
X341560000Y-193270000I0J-1000000D01*
G01*
X341560000Y-205270000D02*
G75*
G02*
X340560000Y-206270000I-1000000J0D01*
G01*
X327560000Y-193270000D02*
G75*
G02*
X328560000Y-192270000I1000000J0D01*
G01*
X327560000Y-205270000D02*
X327560000Y-193270000D01*
X340560000Y-206270000D02*
X328560000Y-206270000D01*
X341560000Y-193270000D02*
X341560000Y-205270000D01*
X328560000Y-192270000D02*
X340560000Y-192270000D01*
X309519000Y-206249000D02*
G75*
G02*
X308520000Y-205250000I0J999000D01*
G01*
X321520000Y-192250000D02*
G75*
G02*
X322520000Y-193250000I0J-1000000D01*
G01*
X322520000Y-205250000D02*
G75*
G02*
X321520000Y-206250000I-1000000J0D01*
G01*
X308520000Y-193250000D02*
G75*
G02*
X309520000Y-192250000I1000000J0D01*
G01*
X308520000Y-205250000D02*
X308520000Y-193250000D01*
X321520000Y-206250000D02*
X309520000Y-206250000D01*
X322520000Y-193250000D02*
X322520000Y-205250000D01*
X309520000Y-192250000D02*
X321520000Y-192250000D01*
X290459000Y-206259000D02*
G75*
G02*
X289460000Y-205260000I0J999000D01*
G01*
X302460000Y-192260000D02*
G75*
G02*
X303460000Y-193260000I0J-1000000D01*
G01*
X303460000Y-205260000D02*
G75*
G02*
X302460000Y-206260000I-1000000J0D01*
G01*
X289460000Y-193260000D02*
G75*
G02*
X290460000Y-192260000I1000000J0D01*
G01*
X289460000Y-205260000D02*
X289460000Y-193260000D01*
X302460000Y-206260000D02*
X290460000Y-206260000D01*
X303460000Y-193260000D02*
X303460000Y-205260000D01*
X290460000Y-192260000D02*
X302460000Y-192260000D01*
X271419000Y-206269000D02*
G75*
G02*
X270420000Y-205270000I0J999000D01*
G01*
X283420000Y-192270000D02*
G75*
G02*
X284420000Y-193270000I0J-1000000D01*
G01*
X284420000Y-205270000D02*
G75*
G02*
X283420000Y-206270000I-1000000J0D01*
G01*
X270420000Y-193270000D02*
G75*
G02*
X271420000Y-192270000I1000000J0D01*
G01*
X270420000Y-205270000D02*
X270420000Y-193270000D01*
X283420000Y-206270000D02*
X271420000Y-206270000D01*
X284420000Y-193270000D02*
X284420000Y-205270000D01*
X271420000Y-192270000D02*
X283420000Y-192270000D01*
X252369000Y-206269000D02*
G75*
G02*
X251370000Y-205270000I0J999000D01*
G01*
X264370000Y-192270000D02*
G75*
G02*
X265370000Y-193270000I0J-1000000D01*
G01*
X265370000Y-205270000D02*
G75*
G02*
X264370000Y-206270000I-1000000J0D01*
G01*
X251370000Y-193270000D02*
G75*
G02*
X252370000Y-192270000I1000000J0D01*
G01*
X251370000Y-205270000D02*
X251370000Y-193270000D01*
X264370000Y-206270000D02*
X252370000Y-206270000D01*
X265370000Y-193270000D02*
X265370000Y-205270000D01*
X252370000Y-192270000D02*
X264370000Y-192270000D01*
X233289000Y-206259000D02*
G75*
G02*
X232290000Y-205260000I0J999000D01*
G01*
X245290000Y-192260000D02*
G75*
G02*
X246290000Y-193260000I0J-1000000D01*
G01*
X246290000Y-205260000D02*
G75*
G02*
X245290000Y-206260000I-1000000J0D01*
G01*
X232290000Y-193260000D02*
G75*
G02*
X233290000Y-192260000I1000000J0D01*
G01*
X232290000Y-205260000D02*
X232290000Y-193260000D01*
X245290000Y-206260000D02*
X233290000Y-206260000D01*
X246290000Y-193260000D02*
X246290000Y-205260000D01*
X233290000Y-192260000D02*
X245290000Y-192260000D01*
X214249000Y-206299000D02*
G75*
G02*
X213250000Y-205300000I0J999000D01*
G01*
X226250000Y-192300000D02*
G75*
G02*
X227250000Y-193300000I0J-1000000D01*
G01*
X227250000Y-205300000D02*
G75*
G02*
X226250000Y-206300000I-1000000J0D01*
G01*
X213250000Y-193300000D02*
G75*
G02*
X214250000Y-192300000I1000000J0D01*
G01*
X213250000Y-205300000D02*
X213250000Y-193300000D01*
X226250000Y-206300000D02*
X214250000Y-206300000D01*
X227250000Y-193300000D02*
X227250000Y-205300000D01*
X214250000Y-192300000D02*
X226250000Y-192300000D01*
X195199000Y-206279000D02*
G75*
G02*
X194200000Y-205280000I0J999000D01*
G01*
X207200000Y-192280000D02*
G75*
G02*
X208200000Y-193280000I0J-1000000D01*
G01*
X208200000Y-205280000D02*
G75*
G02*
X207200000Y-206280000I-1000000J0D01*
G01*
X194200000Y-193280000D02*
G75*
G02*
X195200000Y-192280000I1000000J0D01*
G01*
X194200000Y-205280000D02*
X194200000Y-193280000D01*
X207200000Y-206280000D02*
X195200000Y-206280000D01*
X208200000Y-193280000D02*
X208200000Y-205280000D01*
X195200000Y-192280000D02*
X207200000Y-192280000D01*
X176129000Y-206299000D02*
G75*
G02*
X175130000Y-205300000I0J999000D01*
G01*
X188130000Y-192300000D02*
G75*
G02*
X189130000Y-193300000I0J-1000000D01*
G01*
X189130000Y-205300000D02*
G75*
G02*
X188130000Y-206300000I-1000000J0D01*
G01*
X175130000Y-193300000D02*
G75*
G02*
X176130000Y-192300000I1000000J0D01*
G01*
X175130000Y-205300000D02*
X175130000Y-193300000D01*
X188130000Y-206300000D02*
X176130000Y-206300000D01*
X189130000Y-193300000D02*
X189130000Y-205300000D01*
X176130000Y-192300000D02*
X188130000Y-192300000D01*
X157099000Y-206299000D02*
G75*
G02*
X156100000Y-205300000I0J999000D01*
G01*
X169100000Y-192300000D02*
G75*
G02*
X170100000Y-193300000I0J-1000000D01*
G01*
X170100000Y-205300000D02*
G75*
G02*
X169100000Y-206300000I-1000000J0D01*
G01*
X156100000Y-193300000D02*
G75*
G02*
X157100000Y-192300000I1000000J0D01*
G01*
X156100000Y-205300000D02*
X156100000Y-193300000D01*
X169100000Y-206300000D02*
X157100000Y-206300000D01*
X170100000Y-193300000D02*
X170100000Y-205300000D01*
X157100000Y-192300000D02*
X169100000Y-192300000D01*
X138049000Y-206269000D02*
G75*
G02*
X137050000Y-205270000I0J999000D01*
G01*
X150050000Y-192270000D02*
G75*
G02*
X151050000Y-193270000I0J-1000000D01*
G01*
X151050000Y-205270000D02*
G75*
G02*
X150050000Y-206270000I-1000000J0D01*
G01*
X137050000Y-193270000D02*
G75*
G02*
X138050000Y-192270000I1000000J0D01*
G01*
X137050000Y-205270000D02*
X137050000Y-193270000D01*
X150050000Y-206270000D02*
X138050000Y-206270000D01*
X151050000Y-193270000D02*
X151050000Y-205270000D01*
X138050000Y-192270000D02*
X150050000Y-192270000D01*
X118979000Y-206269000D02*
G75*
G02*
X117980000Y-205270000I0J999000D01*
G01*
X130980000Y-192270000D02*
G75*
G02*
X131980000Y-193270000I0J-1000000D01*
G01*
X131980000Y-205270000D02*
G75*
G02*
X130980000Y-206270000I-1000000J0D01*
G01*
X117980000Y-193270000D02*
G75*
G02*
X118980000Y-192270000I1000000J0D01*
G01*
X117980000Y-205270000D02*
X117980000Y-193270000D01*
X130980000Y-206270000D02*
X118980000Y-206270000D01*
X131980000Y-193270000D02*
X131980000Y-205270000D01*
X118980000Y-192270000D02*
X130980000Y-192270000D01*
X480939000Y-175329000D02*
G75*
G02*
X479940000Y-174330000I0J999000D01*
G01*
X492940000Y-161330000D02*
G75*
G02*
X493940000Y-162330000I0J-1000000D01*
G01*
X493940000Y-174330000D02*
G75*
G02*
X492940000Y-175330000I-1000000J0D01*
G01*
X479940000Y-162330000D02*
G75*
G02*
X480940000Y-161330000I1000000J0D01*
G01*
X479940000Y-174330000D02*
X479940000Y-162330000D01*
X492940000Y-175330000D02*
X480940000Y-175330000D01*
X493940000Y-162330000D02*
X493940000Y-174330000D01*
X480940000Y-161330000D02*
X492940000Y-161330000D01*
X461899000Y-175309000D02*
G75*
G02*
X460900000Y-174310000I0J999000D01*
G01*
X473900000Y-161310000D02*
G75*
G02*
X474900000Y-162310000I0J-1000000D01*
G01*
X474900000Y-174310000D02*
G75*
G02*
X473900000Y-175310000I-1000000J0D01*
G01*
X460900000Y-162310000D02*
G75*
G02*
X461900000Y-161310000I1000000J0D01*
G01*
X460900000Y-174310000D02*
X460900000Y-162310000D01*
X473900000Y-175310000D02*
X461900000Y-175310000D01*
X474900000Y-162310000D02*
X474900000Y-174310000D01*
X461900000Y-161310000D02*
X473900000Y-161310000D01*
X442849000Y-175329000D02*
G75*
G02*
X441850000Y-174330000I0J999000D01*
G01*
X454850000Y-161330000D02*
G75*
G02*
X455850000Y-162330000I0J-1000000D01*
G01*
X455850000Y-174330000D02*
G75*
G02*
X454850000Y-175330000I-1000000J0D01*
G01*
X441850000Y-162330000D02*
G75*
G02*
X442850000Y-161330000I1000000J0D01*
G01*
X441850000Y-174330000D02*
X441850000Y-162330000D01*
X454850000Y-175330000D02*
X442850000Y-175330000D01*
X455850000Y-162330000D02*
X455850000Y-174330000D01*
X442850000Y-161330000D02*
X454850000Y-161330000D01*
X423799000Y-175309000D02*
G75*
G02*
X422800000Y-174310000I0J999000D01*
G01*
X435800000Y-161310000D02*
G75*
G02*
X436800000Y-162310000I0J-1000000D01*
G01*
X436800000Y-174310000D02*
G75*
G02*
X435800000Y-175310000I-1000000J0D01*
G01*
X422800000Y-162310000D02*
G75*
G02*
X423800000Y-161310000I1000000J0D01*
G01*
X422800000Y-174310000D02*
X422800000Y-162310000D01*
X435800000Y-175310000D02*
X423800000Y-175310000D01*
X436800000Y-162310000D02*
X436800000Y-174310000D01*
X423800000Y-161310000D02*
X435800000Y-161310000D01*
X385679000Y-175319000D02*
G75*
G02*
X384680000Y-174320000I0J999000D01*
G01*
X397680000Y-161320000D02*
G75*
G02*
X398680000Y-162320000I0J-1000000D01*
G01*
X398680000Y-174320000D02*
G75*
G02*
X397680000Y-175320000I-1000000J0D01*
G01*
X384680000Y-162320000D02*
G75*
G02*
X385680000Y-161320000I1000000J0D01*
G01*
X384680000Y-174320000D02*
X384680000Y-162320000D01*
X397680000Y-175320000D02*
X385680000Y-175320000D01*
X398680000Y-162320000D02*
X398680000Y-174320000D01*
X385680000Y-161320000D02*
X397680000Y-161320000D01*
X361879000Y-175339000D02*
G75*
G02*
X360880000Y-174340000I0J999000D01*
G01*
X373880000Y-161340000D02*
G75*
G02*
X374880000Y-162340000I0J-1000000D01*
G01*
X374880000Y-174340000D02*
G75*
G02*
X373880000Y-175340000I-1000000J0D01*
G01*
X360880000Y-162340000D02*
G75*
G02*
X361880000Y-161340000I1000000J0D01*
G01*
X360880000Y-174340000D02*
X360880000Y-162340000D01*
X373880000Y-175340000D02*
X361880000Y-175340000D01*
X374880000Y-162340000D02*
X374880000Y-174340000D01*
X361880000Y-161340000D02*
X373880000Y-161340000D01*
X342839000Y-175339000D02*
G75*
G02*
X341840000Y-174340000I0J999000D01*
G01*
X354840000Y-161340000D02*
G75*
G02*
X355840000Y-162340000I0J-1000000D01*
G01*
X355840000Y-174340000D02*
G75*
G02*
X354840000Y-175340000I-1000000J0D01*
G01*
X341840000Y-162340000D02*
G75*
G02*
X342840000Y-161340000I1000000J0D01*
G01*
X341840000Y-174340000D02*
X341840000Y-162340000D01*
X354840000Y-175340000D02*
X342840000Y-175340000D01*
X355840000Y-162340000D02*
X355840000Y-174340000D01*
X342840000Y-161340000D02*
X354840000Y-161340000D01*
X323789000Y-175329000D02*
G75*
G02*
X322790000Y-174330000I0J999000D01*
G01*
X335790000Y-161330000D02*
G75*
G02*
X336790000Y-162330000I0J-1000000D01*
G01*
X336790000Y-174330000D02*
G75*
G02*
X335790000Y-175330000I-1000000J0D01*
G01*
X322790000Y-162330000D02*
G75*
G02*
X323790000Y-161330000I1000000J0D01*
G01*
X322790000Y-174330000D02*
X322790000Y-162330000D01*
X335790000Y-175330000D02*
X323790000Y-175330000D01*
X336790000Y-162330000D02*
X336790000Y-174330000D01*
X323790000Y-161330000D02*
X335790000Y-161330000D01*
X304729000Y-175339000D02*
G75*
G02*
X303730000Y-174340000I0J999000D01*
G01*
X316730000Y-161340000D02*
G75*
G02*
X317730000Y-162340000I0J-1000000D01*
G01*
X317730000Y-174340000D02*
G75*
G02*
X316730000Y-175340000I-1000000J0D01*
G01*
X303730000Y-162340000D02*
G75*
G02*
X304730000Y-161340000I1000000J0D01*
G01*
X303730000Y-174340000D02*
X303730000Y-162340000D01*
X316730000Y-175340000D02*
X304730000Y-175340000D01*
X317730000Y-162340000D02*
X317730000Y-174340000D01*
X304730000Y-161340000D02*
X316730000Y-161340000D01*
X280909000Y-175329000D02*
G75*
G02*
X279910000Y-174330000I0J999000D01*
G01*
X292910000Y-161330000D02*
G75*
G02*
X293910000Y-162330000I0J-1000000D01*
G01*
X293910000Y-174330000D02*
G75*
G02*
X292910000Y-175330000I-1000000J0D01*
G01*
X279910000Y-162330000D02*
G75*
G02*
X280910000Y-161330000I1000000J0D01*
G01*
X279910000Y-174330000D02*
X279910000Y-162330000D01*
X292910000Y-175330000D02*
X280910000Y-175330000D01*
X293910000Y-162330000D02*
X293910000Y-174330000D01*
X280910000Y-161330000D02*
X292910000Y-161330000D01*
X261849000Y-175329000D02*
G75*
G02*
X260850000Y-174330000I0J999000D01*
G01*
X273850000Y-161330000D02*
G75*
G02*
X274850000Y-162330000I0J-1000000D01*
G01*
X274850000Y-174330000D02*
G75*
G02*
X273850000Y-175330000I-1000000J0D01*
G01*
X260850000Y-162330000D02*
G75*
G02*
X261850000Y-161330000I1000000J0D01*
G01*
X260850000Y-174330000D02*
X260850000Y-162330000D01*
X273850000Y-175330000D02*
X261850000Y-175330000D01*
X274850000Y-162330000D02*
X274850000Y-174330000D01*
X261850000Y-161330000D02*
X273850000Y-161330000D01*
X242819000Y-175319000D02*
G75*
G02*
X241820000Y-174320000I0J999000D01*
G01*
X254820000Y-161320000D02*
G75*
G02*
X255820000Y-162320000I0J-1000000D01*
G01*
X255820000Y-174320000D02*
G75*
G02*
X254820000Y-175320000I-1000000J0D01*
G01*
X241820000Y-162320000D02*
G75*
G02*
X242820000Y-161320000I1000000J0D01*
G01*
X241820000Y-174320000D02*
X241820000Y-162320000D01*
X254820000Y-175320000D02*
X242820000Y-175320000D01*
X255820000Y-162320000D02*
X255820000Y-174320000D01*
X242820000Y-161320000D02*
X254820000Y-161320000D01*
X223769000Y-175349000D02*
G75*
G02*
X222770000Y-174350000I0J999000D01*
G01*
X235770000Y-161350000D02*
G75*
G02*
X236770000Y-162350000I0J-1000000D01*
G01*
X236770000Y-174350000D02*
G75*
G02*
X235770000Y-175350000I-1000000J0D01*
G01*
X222770000Y-162350000D02*
G75*
G02*
X223770000Y-161350000I1000000J0D01*
G01*
X222770000Y-174350000D02*
X222770000Y-162350000D01*
X235770000Y-175350000D02*
X223770000Y-175350000D01*
X236770000Y-162350000D02*
X236770000Y-174350000D01*
X223770000Y-161350000D02*
X235770000Y-161350000D01*
X199949000Y-175309000D02*
G75*
G02*
X198950000Y-174310000I0J999000D01*
G01*
X211950000Y-161310000D02*
G75*
G02*
X212950000Y-162310000I0J-1000000D01*
G01*
X212950000Y-174310000D02*
G75*
G02*
X211950000Y-175310000I-1000000J0D01*
G01*
X198950000Y-162310000D02*
G75*
G02*
X199950000Y-161310000I1000000J0D01*
G01*
X198950000Y-174310000D02*
X198950000Y-162310000D01*
X211950000Y-175310000D02*
X199950000Y-175310000D01*
X212950000Y-162310000D02*
X212950000Y-174310000D01*
X199950000Y-161310000D02*
X211950000Y-161310000D01*
X180919000Y-175329000D02*
G75*
G02*
X179920000Y-174330000I0J999000D01*
G01*
X192920000Y-161330000D02*
G75*
G02*
X193920000Y-162330000I0J-1000000D01*
G01*
X193920000Y-174330000D02*
G75*
G02*
X192920000Y-175330000I-1000000J0D01*
G01*
X179920000Y-162330000D02*
G75*
G02*
X180920000Y-161330000I1000000J0D01*
G01*
X179920000Y-174330000D02*
X179920000Y-162330000D01*
X192920000Y-175330000D02*
X180920000Y-175330000D01*
X193920000Y-162330000D02*
X193920000Y-174330000D01*
X180920000Y-161330000D02*
X192920000Y-161330000D01*
X161839000Y-175319000D02*
G75*
G02*
X160840000Y-174320000I0J999000D01*
G01*
X173840000Y-161320000D02*
G75*
G02*
X174840000Y-162320000I0J-1000000D01*
G01*
X174840000Y-174320000D02*
G75*
G02*
X173840000Y-175320000I-1000000J0D01*
G01*
X160840000Y-162320000D02*
G75*
G02*
X161840000Y-161320000I1000000J0D01*
G01*
X160840000Y-174320000D02*
X160840000Y-162320000D01*
X173840000Y-175320000D02*
X161840000Y-175320000D01*
X174840000Y-162320000D02*
X174840000Y-174320000D01*
X161840000Y-161320000D02*
X173840000Y-161320000D01*
X142799000Y-175359000D02*
G75*
G02*
X141800000Y-174360000I0J999000D01*
G01*
X154800000Y-161360000D02*
G75*
G02*
X155800000Y-162360000I0J-1000000D01*
G01*
X155800000Y-174360000D02*
G75*
G02*
X154800000Y-175360000I-1000000J0D01*
G01*
X141800000Y-162360000D02*
G75*
G02*
X142800000Y-161360000I1000000J0D01*
G01*
X141800000Y-174360000D02*
X141800000Y-162360000D01*
X154800000Y-175360000D02*
X142800000Y-175360000D01*
X155800000Y-162360000D02*
X155800000Y-174360000D01*
X142800000Y-161360000D02*
X154800000Y-161360000D01*
X118979000Y-175349000D02*
G75*
G02*
X117980000Y-174350000I0J999000D01*
G01*
X130980000Y-161350000D02*
G75*
G02*
X131980000Y-162350000I0J-1000000D01*
G01*
X131980000Y-174350000D02*
G75*
G02*
X130980000Y-175350000I-1000000J0D01*
G01*
X117980000Y-162350000D02*
G75*
G02*
X118980000Y-161350000I1000000J0D01*
G01*
X117980000Y-174350000D02*
X117980000Y-162350000D01*
X130980000Y-175350000D02*
X118980000Y-175350000D01*
X131980000Y-162350000D02*
X131980000Y-174350000D01*
X118980000Y-161350000D02*
X130980000Y-161350000D01*
X372320000Y-294695000D02*
G75*
G02*
X367875000Y-290250000I0J4445000D01*
G01*
X499320000Y-283265000D02*
X499320000Y-161091000D01*
X117685000Y-285805000D02*
G75*
G02*
X115145000Y-283265000I0J2540000D01*
G01*
X430105000Y-294695000D02*
X372320000Y-294695000D01*
X434550000Y-290250000D02*
G75*
G02*
X438995000Y-285805000I4445000J0D01*
G01*
X363430000Y-285805000D02*
X117685000Y-285805000D01*
X499320000Y-283265000D02*
G75*
G02*
X496780000Y-285805000I-2540000J0D01*
G01*
X363430000Y-285805000D02*
G75*
G02*
X367875000Y-290250000I0J-4445000D01*
G01*
X434550000Y-290250000D02*
G75*
G02*
X430105000Y-294695000I-4445000J0D01*
G01*
X438995000Y-285805000D02*
X496780000Y-285805000D01*
M02*
